G04 EAGLE Gerber RS-274X export*
G75*
%MOMM*%
%FSLAX34Y34*%
%LPD*%
%INSilkscreen Top*%
%IPPOS*%
%AMOC8*
5,1,8,0,0,1.08239X$1,22.5*%
G01*
%ADD10C,0.203200*%
%ADD11C,0.025400*%
%ADD12C,0.152400*%
%ADD13C,0.127000*%
%ADD14R,0.863600X0.609600*%
%ADD15C,0.101600*%


D10*
X381000Y628650D02*
X381000Y590550D01*
D11*
X380162Y589763D02*
X381991Y591135D01*
X381991Y591134D02*
X382450Y590543D01*
X382923Y589963D01*
X383410Y589395D01*
X383911Y588839D01*
X384425Y588296D01*
X384952Y587765D01*
X385492Y587247D01*
X386045Y586742D01*
X386610Y586252D01*
X387187Y585775D01*
X387775Y585312D01*
X388374Y584864D01*
X388985Y584431D01*
X389605Y584012D01*
X390236Y583610D01*
X390876Y583222D01*
X391525Y582850D01*
X392184Y582495D01*
X392851Y582155D01*
X393526Y581832D01*
X394209Y581526D01*
X394899Y581236D01*
X395595Y580963D01*
X396299Y580708D01*
X397008Y580470D01*
X397723Y580249D01*
X398443Y580045D01*
X399168Y579860D01*
X399897Y579692D01*
X400631Y579542D01*
X401367Y579410D01*
X402107Y579296D01*
X402849Y579200D01*
X403593Y579122D01*
X404339Y579062D01*
X405086Y579021D01*
X405834Y578998D01*
X406583Y578994D01*
X407331Y579007D01*
X408079Y579039D01*
X408825Y579089D01*
X409570Y579158D01*
X410314Y579244D01*
X411055Y579349D01*
X411793Y579472D01*
X412528Y579613D01*
X413259Y579771D01*
X413986Y579948D01*
X414709Y580142D01*
X415427Y580354D01*
X416139Y580584D01*
X416845Y580831D01*
X417546Y581095D01*
X418239Y581376D01*
X418926Y581673D01*
X419605Y581988D01*
X420276Y582319D01*
X420939Y582666D01*
X421593Y583030D01*
X422238Y583409D01*
X422873Y583804D01*
X423499Y584215D01*
X424115Y584640D01*
X424720Y585081D01*
X425314Y585536D01*
X425896Y586006D01*
X426467Y586490D01*
X427026Y586987D01*
X427573Y587498D01*
X428107Y588022D01*
X428628Y588559D01*
X429136Y589109D01*
X429630Y589671D01*
X430110Y590245D01*
X430576Y590830D01*
X431028Y591427D01*
X431465Y592035D01*
X431887Y592653D01*
X432294Y593281D01*
X432685Y593919D01*
X433060Y594566D01*
X433420Y595222D01*
X433763Y595887D01*
X434090Y596560D01*
X434401Y597241D01*
X434695Y597929D01*
X434971Y598625D01*
X435231Y599326D01*
X435474Y600034D01*
X435699Y600748D01*
X435907Y601467D01*
X436097Y602191D01*
X436269Y602919D01*
X436423Y603651D01*
X436560Y604387D01*
X436678Y605126D01*
X436779Y605868D01*
X436861Y606611D01*
X436925Y607357D01*
X436970Y608104D01*
X436998Y608852D01*
X437007Y609600D01*
X436998Y610348D01*
X436970Y611096D01*
X436925Y611843D01*
X436861Y612589D01*
X436779Y613332D01*
X436678Y614074D01*
X436560Y614813D01*
X436423Y615549D01*
X436269Y616281D01*
X436097Y617009D01*
X435907Y617733D01*
X435699Y618452D01*
X435474Y619166D01*
X435231Y619874D01*
X434971Y620575D01*
X434695Y621271D01*
X434401Y621959D01*
X434090Y622640D01*
X433763Y623313D01*
X433420Y623978D01*
X433060Y624634D01*
X432685Y625281D01*
X432294Y625919D01*
X431887Y626547D01*
X431465Y627165D01*
X431028Y627773D01*
X430576Y628370D01*
X430110Y628955D01*
X429630Y629529D01*
X429136Y630091D01*
X428628Y630641D01*
X428107Y631178D01*
X427573Y631702D01*
X427026Y632213D01*
X426467Y632710D01*
X425896Y633194D01*
X425314Y633664D01*
X424720Y634119D01*
X424115Y634560D01*
X423499Y634985D01*
X422873Y635396D01*
X422238Y635791D01*
X421593Y636170D01*
X420939Y636534D01*
X420276Y636881D01*
X419605Y637212D01*
X418926Y637527D01*
X418239Y637824D01*
X417546Y638105D01*
X416845Y638369D01*
X416139Y638616D01*
X415427Y638846D01*
X414709Y639058D01*
X413986Y639252D01*
X413259Y639429D01*
X412528Y639587D01*
X411793Y639728D01*
X411055Y639851D01*
X410314Y639956D01*
X409570Y640042D01*
X408825Y640111D01*
X408079Y640161D01*
X407331Y640193D01*
X406583Y640206D01*
X405834Y640202D01*
X405086Y640179D01*
X404339Y640138D01*
X403593Y640078D01*
X402849Y640000D01*
X402107Y639904D01*
X401367Y639790D01*
X400631Y639658D01*
X399897Y639508D01*
X399168Y639340D01*
X398443Y639155D01*
X397723Y638951D01*
X397008Y638730D01*
X396299Y638492D01*
X395595Y638237D01*
X394899Y637964D01*
X394209Y637674D01*
X393526Y637368D01*
X392851Y637045D01*
X392184Y636705D01*
X391525Y636350D01*
X390876Y635978D01*
X390236Y635590D01*
X389605Y635188D01*
X388985Y634769D01*
X388374Y634336D01*
X387775Y633888D01*
X387187Y633425D01*
X386610Y632948D01*
X386045Y632458D01*
X385492Y631953D01*
X384952Y631435D01*
X384425Y630904D01*
X383911Y630361D01*
X383410Y629805D01*
X382923Y629237D01*
X382450Y628657D01*
X381991Y628066D01*
X380162Y629437D01*
X380655Y630073D01*
X381163Y630696D01*
X381687Y631307D01*
X382225Y631905D01*
X382777Y632489D01*
X383344Y633060D01*
X383924Y633617D01*
X384518Y634159D01*
X385125Y634687D01*
X385745Y635199D01*
X386377Y635697D01*
X387021Y636179D01*
X387677Y636644D01*
X388344Y637094D01*
X389022Y637527D01*
X389710Y637944D01*
X390408Y638344D01*
X391115Y638726D01*
X391832Y639091D01*
X392557Y639438D01*
X393291Y639768D01*
X394033Y640079D01*
X394782Y640373D01*
X395537Y640648D01*
X396300Y640904D01*
X397068Y641142D01*
X397842Y641360D01*
X398621Y641560D01*
X399405Y641741D01*
X400193Y641902D01*
X400985Y642044D01*
X401780Y642167D01*
X402577Y642270D01*
X403377Y642354D01*
X404179Y642418D01*
X404982Y642462D01*
X405786Y642487D01*
X406590Y642492D01*
X407395Y642478D01*
X408198Y642444D01*
X409001Y642390D01*
X409802Y642317D01*
X410601Y642224D01*
X411397Y642111D01*
X412190Y641979D01*
X412980Y641828D01*
X413766Y641658D01*
X414548Y641468D01*
X415325Y641259D01*
X416096Y641031D01*
X416862Y640785D01*
X417621Y640520D01*
X418374Y640236D01*
X419119Y639934D01*
X419857Y639614D01*
X420587Y639276D01*
X421309Y638920D01*
X422021Y638547D01*
X422724Y638156D01*
X423417Y637749D01*
X424101Y637324D01*
X424773Y636883D01*
X425435Y636426D01*
X426085Y635952D01*
X426723Y635463D01*
X427350Y634959D01*
X427964Y634439D01*
X428564Y633904D01*
X429152Y633355D01*
X429726Y632791D01*
X430286Y632214D01*
X430832Y631623D01*
X431363Y631019D01*
X431879Y630403D01*
X432380Y629773D01*
X432866Y629132D01*
X433336Y628479D01*
X433789Y627815D01*
X434226Y627140D01*
X434647Y626454D01*
X435051Y625759D01*
X435437Y625053D01*
X435806Y624339D01*
X436158Y623615D01*
X436492Y622883D01*
X436807Y622144D01*
X437105Y621396D01*
X437384Y620642D01*
X437645Y619881D01*
X437887Y619114D01*
X438110Y618341D01*
X438314Y617563D01*
X438500Y616781D01*
X438666Y615994D01*
X438812Y615203D01*
X438940Y614409D01*
X439047Y613612D01*
X439136Y612812D01*
X439205Y612011D01*
X439254Y611208D01*
X439283Y610404D01*
X439293Y609600D01*
X439283Y608796D01*
X439254Y607992D01*
X439205Y607189D01*
X439136Y606388D01*
X439047Y605588D01*
X438940Y604791D01*
X438812Y603997D01*
X438666Y603206D01*
X438500Y602419D01*
X438314Y601637D01*
X438110Y600859D01*
X437887Y600086D01*
X437645Y599319D01*
X437384Y598558D01*
X437105Y597804D01*
X436807Y597056D01*
X436492Y596317D01*
X436158Y595585D01*
X435806Y594861D01*
X435437Y594147D01*
X435051Y593441D01*
X434647Y592746D01*
X434226Y592060D01*
X433789Y591385D01*
X433336Y590721D01*
X432866Y590068D01*
X432380Y589427D01*
X431879Y588797D01*
X431363Y588181D01*
X430832Y587577D01*
X430286Y586986D01*
X429726Y586409D01*
X429152Y585845D01*
X428564Y585296D01*
X427964Y584761D01*
X427350Y584241D01*
X426723Y583737D01*
X426085Y583248D01*
X425435Y582774D01*
X424773Y582317D01*
X424101Y581876D01*
X423417Y581451D01*
X422724Y581044D01*
X422021Y580653D01*
X421309Y580280D01*
X420587Y579924D01*
X419857Y579586D01*
X419119Y579266D01*
X418374Y578964D01*
X417621Y578680D01*
X416862Y578415D01*
X416096Y578169D01*
X415325Y577941D01*
X414548Y577732D01*
X413766Y577542D01*
X412980Y577372D01*
X412190Y577221D01*
X411397Y577089D01*
X410601Y576976D01*
X409802Y576883D01*
X409001Y576810D01*
X408198Y576756D01*
X407395Y576722D01*
X406590Y576708D01*
X405786Y576713D01*
X404982Y576738D01*
X404179Y576782D01*
X403377Y576846D01*
X402577Y576930D01*
X401780Y577033D01*
X400985Y577156D01*
X400193Y577298D01*
X399405Y577459D01*
X398621Y577640D01*
X397842Y577840D01*
X397068Y578058D01*
X396300Y578296D01*
X395537Y578552D01*
X394782Y578827D01*
X394033Y579121D01*
X393291Y579432D01*
X392557Y579762D01*
X391832Y580109D01*
X391115Y580474D01*
X390408Y580856D01*
X389710Y581256D01*
X389022Y581673D01*
X388344Y582106D01*
X387677Y582556D01*
X387021Y583021D01*
X386377Y583503D01*
X385745Y584001D01*
X385125Y584513D01*
X384518Y585041D01*
X383924Y585583D01*
X383344Y586140D01*
X382777Y586711D01*
X382225Y587295D01*
X381687Y587893D01*
X381163Y588504D01*
X380655Y589127D01*
X380162Y589763D01*
X380354Y589907D01*
X380843Y589276D01*
X381348Y588657D01*
X381867Y588051D01*
X382402Y587457D01*
X382950Y586877D01*
X383513Y586311D01*
X384089Y585758D01*
X384679Y585220D01*
X385281Y584696D01*
X385897Y584187D01*
X386524Y583693D01*
X387163Y583215D01*
X387814Y582752D01*
X388476Y582306D01*
X389149Y581876D01*
X389832Y581462D01*
X390525Y581066D01*
X391227Y580686D01*
X391939Y580324D01*
X392659Y579979D01*
X393387Y579652D01*
X394124Y579343D01*
X394867Y579052D01*
X395617Y578779D01*
X396374Y578524D01*
X397137Y578288D01*
X397905Y578071D01*
X398679Y577873D01*
X399457Y577694D01*
X400239Y577533D01*
X401025Y577392D01*
X401814Y577271D01*
X402606Y577168D01*
X403400Y577085D01*
X404196Y577021D01*
X404993Y576977D01*
X405791Y576953D01*
X406590Y576948D01*
X407388Y576962D01*
X408186Y576996D01*
X408982Y577049D01*
X409777Y577122D01*
X410570Y577214D01*
X411361Y577326D01*
X412149Y577457D01*
X412933Y577607D01*
X413713Y577776D01*
X414489Y577965D01*
X415260Y578172D01*
X416026Y578398D01*
X416786Y578643D01*
X417540Y578906D01*
X418287Y579188D01*
X419027Y579487D01*
X419760Y579805D01*
X420484Y580141D01*
X421200Y580494D01*
X421907Y580864D01*
X422605Y581252D01*
X423294Y581657D01*
X423972Y582078D01*
X424639Y582516D01*
X425296Y582970D01*
X425942Y583440D01*
X426575Y583926D01*
X427197Y584427D01*
X427806Y584943D01*
X428403Y585473D01*
X428986Y586019D01*
X429556Y586578D01*
X430112Y587151D01*
X430654Y587738D01*
X431181Y588337D01*
X431694Y588949D01*
X432191Y589574D01*
X432673Y590211D01*
X433139Y590859D01*
X433589Y591518D01*
X434023Y592188D01*
X434441Y592869D01*
X434842Y593560D01*
X435225Y594260D01*
X435592Y594969D01*
X435941Y595687D01*
X436272Y596414D01*
X436586Y597148D01*
X436881Y597890D01*
X437158Y598639D01*
X437417Y599394D01*
X437657Y600155D01*
X437879Y600922D01*
X438082Y601695D01*
X438265Y602472D01*
X438430Y603253D01*
X438576Y604038D01*
X438702Y604826D01*
X438809Y605618D01*
X438897Y606411D01*
X438965Y607207D01*
X439014Y608004D01*
X439043Y608802D01*
X439053Y609600D01*
X439043Y610398D01*
X439014Y611196D01*
X438965Y611993D01*
X438897Y612789D01*
X438809Y613582D01*
X438702Y614374D01*
X438576Y615162D01*
X438430Y615947D01*
X438265Y616728D01*
X438082Y617505D01*
X437879Y618278D01*
X437657Y619045D01*
X437417Y619806D01*
X437158Y620561D01*
X436881Y621310D01*
X436586Y622052D01*
X436272Y622786D01*
X435941Y623513D01*
X435592Y624231D01*
X435225Y624940D01*
X434842Y625640D01*
X434441Y626331D01*
X434023Y627012D01*
X433589Y627682D01*
X433139Y628341D01*
X432673Y628989D01*
X432191Y629626D01*
X431694Y630251D01*
X431181Y630863D01*
X430654Y631462D01*
X430112Y632049D01*
X429556Y632622D01*
X428986Y633181D01*
X428403Y633727D01*
X427806Y634257D01*
X427197Y634773D01*
X426575Y635274D01*
X425942Y635760D01*
X425296Y636230D01*
X424639Y636684D01*
X423972Y637122D01*
X423294Y637543D01*
X422605Y637948D01*
X421907Y638336D01*
X421200Y638706D01*
X420484Y639059D01*
X419760Y639395D01*
X419027Y639713D01*
X418287Y640012D01*
X417540Y640294D01*
X416786Y640557D01*
X416026Y640802D01*
X415260Y641028D01*
X414489Y641235D01*
X413713Y641424D01*
X412933Y641593D01*
X412149Y641743D01*
X411361Y641874D01*
X410570Y641986D01*
X409777Y642078D01*
X408982Y642151D01*
X408186Y642204D01*
X407388Y642238D01*
X406590Y642252D01*
X405791Y642247D01*
X404993Y642223D01*
X404196Y642179D01*
X403400Y642115D01*
X402606Y642032D01*
X401814Y641929D01*
X401025Y641808D01*
X400239Y641667D01*
X399457Y641506D01*
X398679Y641327D01*
X397905Y641129D01*
X397137Y640912D01*
X396374Y640676D01*
X395617Y640421D01*
X394867Y640148D01*
X394124Y639857D01*
X393387Y639548D01*
X392659Y639221D01*
X391939Y638876D01*
X391227Y638514D01*
X390525Y638134D01*
X389832Y637738D01*
X389149Y637324D01*
X388476Y636894D01*
X387814Y636448D01*
X387163Y635985D01*
X386524Y635507D01*
X385897Y635013D01*
X385281Y634504D01*
X384679Y633980D01*
X384089Y633442D01*
X383513Y632889D01*
X382950Y632323D01*
X382402Y631743D01*
X381867Y631149D01*
X381348Y630543D01*
X380843Y629924D01*
X380354Y629293D01*
X380546Y629149D01*
X381032Y629776D01*
X381533Y630390D01*
X382048Y630992D01*
X382579Y631581D01*
X383123Y632156D01*
X383682Y632719D01*
X384254Y633267D01*
X384839Y633802D01*
X385437Y634322D01*
X386048Y634827D01*
X386671Y635317D01*
X387305Y635792D01*
X387952Y636251D01*
X388609Y636694D01*
X389276Y637121D01*
X389955Y637531D01*
X390642Y637925D01*
X391340Y638302D01*
X392046Y638661D01*
X392761Y639004D01*
X393484Y639328D01*
X394214Y639635D01*
X394952Y639924D01*
X395697Y640195D01*
X396449Y640448D01*
X397206Y640682D01*
X397968Y640897D01*
X398736Y641094D01*
X399509Y641272D01*
X400285Y641431D01*
X401065Y641571D01*
X401848Y641692D01*
X402634Y641794D01*
X403423Y641876D01*
X404213Y641939D01*
X405004Y641983D01*
X405796Y642007D01*
X406589Y642012D01*
X407381Y641998D01*
X408173Y641964D01*
X408964Y641911D01*
X409753Y641839D01*
X410540Y641747D01*
X411325Y641637D01*
X412107Y641507D01*
X412885Y641358D01*
X413660Y641189D01*
X414430Y641003D01*
X415196Y640797D01*
X415956Y640572D01*
X416710Y640330D01*
X417458Y640068D01*
X418200Y639789D01*
X418935Y639491D01*
X419662Y639176D01*
X420381Y638843D01*
X421092Y638492D01*
X421794Y638124D01*
X422487Y637739D01*
X423170Y637338D01*
X423843Y636919D01*
X424506Y636485D01*
X425158Y636034D01*
X425798Y635567D01*
X426427Y635085D01*
X427045Y634588D01*
X427649Y634076D01*
X428241Y633549D01*
X428820Y633008D01*
X429386Y632453D01*
X429938Y631884D01*
X430476Y631302D01*
X430999Y630706D01*
X431508Y630099D01*
X432002Y629479D01*
X432480Y628847D01*
X432943Y628203D01*
X433390Y627549D01*
X433820Y626884D01*
X434235Y626208D01*
X434633Y625522D01*
X435013Y624827D01*
X435377Y624123D01*
X435724Y623410D01*
X436053Y622689D01*
X436364Y621960D01*
X436657Y621224D01*
X436932Y620481D01*
X437189Y619731D01*
X437428Y618975D01*
X437648Y618214D01*
X437849Y617447D01*
X438031Y616676D01*
X438195Y615900D01*
X438339Y615121D01*
X438465Y614338D01*
X438571Y613553D01*
X438658Y612765D01*
X438726Y611976D01*
X438774Y611185D01*
X438803Y610393D01*
X438813Y609600D01*
X438803Y608807D01*
X438774Y608015D01*
X438726Y607224D01*
X438658Y606435D01*
X438571Y605647D01*
X438465Y604862D01*
X438339Y604079D01*
X438195Y603300D01*
X438031Y602524D01*
X437849Y601753D01*
X437648Y600986D01*
X437428Y600225D01*
X437189Y599469D01*
X436932Y598719D01*
X436657Y597976D01*
X436364Y597240D01*
X436053Y596511D01*
X435724Y595790D01*
X435377Y595077D01*
X435013Y594373D01*
X434633Y593678D01*
X434235Y592992D01*
X433820Y592316D01*
X433390Y591651D01*
X432943Y590997D01*
X432480Y590353D01*
X432002Y589721D01*
X431508Y589101D01*
X430999Y588494D01*
X430476Y587898D01*
X429938Y587316D01*
X429386Y586747D01*
X428820Y586192D01*
X428241Y585651D01*
X427649Y585124D01*
X427045Y584612D01*
X426427Y584115D01*
X425798Y583633D01*
X425158Y583166D01*
X424506Y582715D01*
X423843Y582281D01*
X423170Y581862D01*
X422487Y581461D01*
X421794Y581076D01*
X421092Y580708D01*
X420381Y580357D01*
X419662Y580024D01*
X418935Y579709D01*
X418200Y579411D01*
X417458Y579132D01*
X416710Y578870D01*
X415956Y578628D01*
X415196Y578403D01*
X414430Y578197D01*
X413660Y578011D01*
X412885Y577842D01*
X412107Y577693D01*
X411325Y577563D01*
X410540Y577453D01*
X409753Y577361D01*
X408964Y577289D01*
X408173Y577236D01*
X407381Y577202D01*
X406589Y577188D01*
X405796Y577193D01*
X405004Y577217D01*
X404213Y577261D01*
X403423Y577324D01*
X402634Y577406D01*
X401848Y577508D01*
X401065Y577629D01*
X400285Y577769D01*
X399509Y577928D01*
X398736Y578106D01*
X397968Y578303D01*
X397206Y578518D01*
X396449Y578752D01*
X395697Y579005D01*
X394952Y579276D01*
X394214Y579565D01*
X393484Y579872D01*
X392761Y580196D01*
X392046Y580539D01*
X391340Y580898D01*
X390642Y581275D01*
X389955Y581669D01*
X389276Y582079D01*
X388609Y582506D01*
X387952Y582949D01*
X387305Y583408D01*
X386671Y583883D01*
X386048Y584373D01*
X385437Y584878D01*
X384839Y585398D01*
X384254Y585933D01*
X383682Y586481D01*
X383123Y587044D01*
X382579Y587619D01*
X382048Y588208D01*
X381533Y588810D01*
X381032Y589424D01*
X380546Y590051D01*
X380738Y590195D01*
X381220Y589573D01*
X381717Y588963D01*
X382229Y588366D01*
X382756Y587782D01*
X383296Y587210D01*
X383851Y586652D01*
X384418Y586107D01*
X384999Y585577D01*
X385593Y585061D01*
X386199Y584559D01*
X386818Y584073D01*
X387448Y583602D01*
X388089Y583146D01*
X388741Y582706D01*
X389404Y582283D01*
X390077Y581875D01*
X390760Y581484D01*
X391452Y581110D01*
X392153Y580754D01*
X392862Y580414D01*
X393580Y580092D01*
X394305Y579787D01*
X395038Y579500D01*
X395777Y579231D01*
X396523Y578981D01*
X397275Y578748D01*
X398032Y578534D01*
X398794Y578339D01*
X399560Y578162D01*
X400331Y578005D01*
X401105Y577866D01*
X401883Y577746D01*
X402663Y577645D01*
X403445Y577563D01*
X404230Y577500D01*
X405015Y577457D01*
X405801Y577433D01*
X406588Y577428D01*
X407375Y577442D01*
X408161Y577475D01*
X408945Y577528D01*
X409729Y577600D01*
X410510Y577691D01*
X411289Y577801D01*
X412065Y577930D01*
X412838Y578078D01*
X413607Y578245D01*
X414371Y578430D01*
X415131Y578634D01*
X415885Y578857D01*
X416634Y579098D01*
X417377Y579357D01*
X418113Y579635D01*
X418842Y579930D01*
X419564Y580243D01*
X420278Y580574D01*
X420983Y580922D01*
X421680Y581287D01*
X422368Y581669D01*
X423046Y582068D01*
X423714Y582483D01*
X424372Y582915D01*
X425019Y583362D01*
X425655Y583825D01*
X426279Y584304D01*
X426892Y584797D01*
X427492Y585306D01*
X428080Y585829D01*
X428655Y586366D01*
X429216Y586917D01*
X429764Y587481D01*
X430298Y588059D01*
X430817Y588650D01*
X431322Y589253D01*
X431812Y589869D01*
X432287Y590496D01*
X432746Y591135D01*
X433190Y591784D01*
X433618Y592445D01*
X434029Y593115D01*
X434424Y593796D01*
X434802Y594486D01*
X435163Y595185D01*
X435507Y595892D01*
X435833Y596608D01*
X436142Y597331D01*
X436433Y598062D01*
X436706Y598800D01*
X436961Y599544D01*
X437198Y600294D01*
X437416Y601050D01*
X437616Y601811D01*
X437797Y602577D01*
X437959Y603346D01*
X438103Y604120D01*
X438227Y604897D01*
X438333Y605676D01*
X438419Y606458D01*
X438486Y607242D01*
X438535Y608027D01*
X438563Y608813D01*
X438573Y609600D01*
X438563Y610387D01*
X438535Y611173D01*
X438486Y611958D01*
X438419Y612742D01*
X438333Y613524D01*
X438227Y614303D01*
X438103Y615080D01*
X437959Y615854D01*
X437797Y616623D01*
X437616Y617389D01*
X437416Y618150D01*
X437198Y618906D01*
X436961Y619656D01*
X436706Y620400D01*
X436433Y621138D01*
X436142Y621869D01*
X435833Y622592D01*
X435507Y623308D01*
X435163Y624015D01*
X434802Y624714D01*
X434424Y625404D01*
X434029Y626085D01*
X433618Y626755D01*
X433190Y627416D01*
X432746Y628065D01*
X432287Y628704D01*
X431812Y629331D01*
X431322Y629947D01*
X430817Y630550D01*
X430298Y631141D01*
X429764Y631719D01*
X429216Y632283D01*
X428655Y632834D01*
X428080Y633371D01*
X427492Y633894D01*
X426892Y634403D01*
X426279Y634896D01*
X425655Y635375D01*
X425019Y635838D01*
X424372Y636285D01*
X423714Y636717D01*
X423046Y637132D01*
X422368Y637531D01*
X421680Y637913D01*
X420983Y638278D01*
X420278Y638626D01*
X419564Y638957D01*
X418842Y639270D01*
X418113Y639565D01*
X417377Y639843D01*
X416634Y640102D01*
X415885Y640343D01*
X415131Y640566D01*
X414371Y640770D01*
X413607Y640955D01*
X412838Y641122D01*
X412065Y641270D01*
X411289Y641399D01*
X410510Y641509D01*
X409729Y641600D01*
X408945Y641672D01*
X408161Y641725D01*
X407375Y641758D01*
X406588Y641772D01*
X405801Y641767D01*
X405015Y641743D01*
X404230Y641700D01*
X403445Y641637D01*
X402663Y641555D01*
X401883Y641454D01*
X401105Y641334D01*
X400331Y641195D01*
X399560Y641038D01*
X398794Y640861D01*
X398032Y640666D01*
X397275Y640452D01*
X396523Y640219D01*
X395777Y639969D01*
X395038Y639700D01*
X394305Y639413D01*
X393580Y639108D01*
X392862Y638786D01*
X392153Y638446D01*
X391452Y638090D01*
X390760Y637716D01*
X390077Y637325D01*
X389404Y636917D01*
X388741Y636494D01*
X388089Y636054D01*
X387448Y635598D01*
X386818Y635127D01*
X386199Y634641D01*
X385593Y634139D01*
X384999Y633623D01*
X384418Y633093D01*
X383851Y632548D01*
X383296Y631990D01*
X382756Y631418D01*
X382229Y630834D01*
X381717Y630237D01*
X381220Y629627D01*
X380738Y629005D01*
X380930Y628861D01*
X381409Y629478D01*
X381902Y630083D01*
X382410Y630676D01*
X382933Y631256D01*
X383469Y631824D01*
X384019Y632378D01*
X384583Y632918D01*
X385160Y633445D01*
X385749Y633957D01*
X386351Y634454D01*
X386964Y634937D01*
X387590Y635405D01*
X388226Y635857D01*
X388874Y636293D01*
X389531Y636714D01*
X390199Y637118D01*
X390877Y637506D01*
X391564Y637877D01*
X392260Y638232D01*
X392964Y638569D01*
X393676Y638889D01*
X394396Y639191D01*
X395123Y639476D01*
X395857Y639742D01*
X396597Y639991D01*
X397343Y640222D01*
X398095Y640434D01*
X398851Y640628D01*
X399612Y640803D01*
X400377Y640960D01*
X401145Y641098D01*
X401917Y641217D01*
X402691Y641317D01*
X403468Y641398D01*
X404246Y641460D01*
X405026Y641503D01*
X405806Y641527D01*
X406587Y641532D01*
X407368Y641518D01*
X408148Y641485D01*
X408927Y641433D01*
X409705Y641362D01*
X410480Y641271D01*
X411253Y641162D01*
X412024Y641034D01*
X412790Y640887D01*
X413553Y640721D01*
X414312Y640537D01*
X415066Y640335D01*
X415815Y640113D01*
X416558Y639874D01*
X417295Y639617D01*
X418026Y639341D01*
X418750Y639048D01*
X419466Y638737D01*
X420175Y638409D01*
X420875Y638064D01*
X421566Y637701D01*
X422249Y637322D01*
X422922Y636926D01*
X423585Y636514D01*
X424238Y636086D01*
X424880Y635642D01*
X425512Y635182D01*
X426131Y634708D01*
X426739Y634218D01*
X427335Y633713D01*
X427918Y633194D01*
X428489Y632661D01*
X429046Y632114D01*
X429590Y631553D01*
X430120Y630980D01*
X430635Y630393D01*
X431136Y629795D01*
X431623Y629184D01*
X432094Y628561D01*
X432550Y627927D01*
X432990Y627283D01*
X433415Y626627D01*
X433823Y625962D01*
X434215Y625286D01*
X434590Y624601D01*
X434948Y623908D01*
X435290Y623206D01*
X435614Y622495D01*
X435920Y621777D01*
X436209Y621052D01*
X436480Y620319D01*
X436733Y619581D01*
X436968Y618836D01*
X437185Y618086D01*
X437383Y617331D01*
X437563Y616571D01*
X437724Y615807D01*
X437866Y615039D01*
X437990Y614268D01*
X438095Y613494D01*
X438180Y612718D01*
X438247Y611940D01*
X438295Y611161D01*
X438323Y610381D01*
X438333Y609600D01*
X438323Y608819D01*
X438295Y608039D01*
X438247Y607260D01*
X438180Y606482D01*
X438095Y605706D01*
X437990Y604932D01*
X437866Y604161D01*
X437724Y603393D01*
X437563Y602629D01*
X437383Y601869D01*
X437185Y601114D01*
X436968Y600364D01*
X436733Y599619D01*
X436480Y598881D01*
X436209Y598148D01*
X435920Y597423D01*
X435614Y596705D01*
X435290Y595994D01*
X434948Y595292D01*
X434590Y594599D01*
X434215Y593914D01*
X433823Y593238D01*
X433415Y592573D01*
X432990Y591917D01*
X432550Y591273D01*
X432094Y590639D01*
X431623Y590016D01*
X431136Y589405D01*
X430635Y588807D01*
X430120Y588220D01*
X429590Y587647D01*
X429046Y587086D01*
X428489Y586539D01*
X427918Y586006D01*
X427335Y585487D01*
X426739Y584982D01*
X426131Y584492D01*
X425512Y584018D01*
X424880Y583558D01*
X424238Y583114D01*
X423585Y582686D01*
X422922Y582274D01*
X422249Y581878D01*
X421566Y581499D01*
X420875Y581136D01*
X420175Y580791D01*
X419466Y580463D01*
X418750Y580152D01*
X418026Y579859D01*
X417295Y579583D01*
X416558Y579326D01*
X415815Y579087D01*
X415066Y578865D01*
X414312Y578663D01*
X413553Y578479D01*
X412790Y578313D01*
X412024Y578166D01*
X411253Y578038D01*
X410480Y577929D01*
X409705Y577838D01*
X408927Y577767D01*
X408148Y577715D01*
X407368Y577682D01*
X406587Y577668D01*
X405806Y577673D01*
X405026Y577697D01*
X404246Y577740D01*
X403468Y577802D01*
X402691Y577883D01*
X401917Y577983D01*
X401145Y578102D01*
X400377Y578240D01*
X399612Y578397D01*
X398851Y578572D01*
X398095Y578766D01*
X397343Y578978D01*
X396597Y579209D01*
X395857Y579458D01*
X395123Y579724D01*
X394396Y580009D01*
X393676Y580311D01*
X392964Y580631D01*
X392260Y580968D01*
X391564Y581323D01*
X390877Y581694D01*
X390199Y582082D01*
X389531Y582486D01*
X388874Y582907D01*
X388226Y583343D01*
X387590Y583795D01*
X386964Y584263D01*
X386351Y584746D01*
X385749Y585243D01*
X385160Y585755D01*
X384583Y586282D01*
X384019Y586822D01*
X383469Y587376D01*
X382933Y587944D01*
X382410Y588524D01*
X381902Y589117D01*
X381409Y589722D01*
X380930Y590339D01*
X381122Y590483D01*
X381597Y589870D01*
X382087Y589270D01*
X382591Y588682D01*
X383110Y588106D01*
X383642Y587543D01*
X384188Y586993D01*
X384748Y586457D01*
X385320Y585934D01*
X385905Y585426D01*
X386502Y584932D01*
X387111Y584453D01*
X387732Y583989D01*
X388363Y583540D01*
X389006Y583107D01*
X389659Y582689D01*
X390322Y582288D01*
X390994Y581903D01*
X391676Y581535D01*
X392367Y581183D01*
X393066Y580849D01*
X393773Y580531D01*
X394487Y580231D01*
X395209Y579949D01*
X395937Y579684D01*
X396672Y579437D01*
X397412Y579208D01*
X398158Y578998D01*
X398908Y578805D01*
X399664Y578631D01*
X400423Y578476D01*
X401186Y578339D01*
X401951Y578221D01*
X402720Y578121D01*
X403491Y578041D01*
X404263Y577979D01*
X405037Y577936D01*
X405811Y577912D01*
X406586Y577908D01*
X407361Y577922D01*
X408135Y577955D01*
X408909Y578006D01*
X409680Y578077D01*
X410450Y578167D01*
X411217Y578275D01*
X411982Y578402D01*
X412743Y578548D01*
X413500Y578713D01*
X414253Y578895D01*
X415002Y579097D01*
X415745Y579316D01*
X416482Y579554D01*
X417214Y579809D01*
X417939Y580082D01*
X418657Y580373D01*
X419368Y580682D01*
X420071Y581007D01*
X420766Y581350D01*
X421453Y581710D01*
X422130Y582086D01*
X422798Y582479D01*
X423456Y582888D01*
X424104Y583313D01*
X424742Y583754D01*
X425368Y584210D01*
X425983Y584681D01*
X426587Y585168D01*
X427178Y585668D01*
X427757Y586184D01*
X428323Y586713D01*
X428876Y587256D01*
X429416Y587812D01*
X429942Y588381D01*
X430453Y588963D01*
X430951Y589557D01*
X431433Y590164D01*
X431901Y590781D01*
X432354Y591410D01*
X432791Y592050D01*
X433212Y592701D01*
X433617Y593362D01*
X434006Y594032D01*
X434378Y594711D01*
X434734Y595400D01*
X435073Y596097D01*
X435394Y596802D01*
X435698Y597515D01*
X435985Y598235D01*
X436254Y598961D01*
X436505Y599694D01*
X436738Y600433D01*
X436953Y601178D01*
X437150Y601927D01*
X437329Y602682D01*
X437489Y603440D01*
X437630Y604202D01*
X437753Y604967D01*
X437856Y605735D01*
X437942Y606505D01*
X438008Y607277D01*
X438055Y608051D01*
X438084Y608825D01*
X438093Y609600D01*
X438084Y610375D01*
X438055Y611149D01*
X438008Y611923D01*
X437942Y612695D01*
X437856Y613465D01*
X437753Y614233D01*
X437630Y614998D01*
X437489Y615760D01*
X437329Y616518D01*
X437150Y617273D01*
X436953Y618022D01*
X436738Y618767D01*
X436505Y619506D01*
X436254Y620239D01*
X435985Y620965D01*
X435698Y621685D01*
X435394Y622398D01*
X435073Y623103D01*
X434734Y623800D01*
X434378Y624489D01*
X434006Y625168D01*
X433617Y625838D01*
X433212Y626499D01*
X432791Y627150D01*
X432354Y627790D01*
X431901Y628419D01*
X431433Y629036D01*
X430951Y629643D01*
X430453Y630237D01*
X429942Y630819D01*
X429416Y631388D01*
X428876Y631944D01*
X428323Y632487D01*
X427757Y633016D01*
X427178Y633532D01*
X426587Y634032D01*
X425983Y634519D01*
X425368Y634990D01*
X424742Y635446D01*
X424104Y635887D01*
X423456Y636312D01*
X422798Y636721D01*
X422130Y637114D01*
X421453Y637490D01*
X420766Y637850D01*
X420071Y638193D01*
X419368Y638518D01*
X418657Y638827D01*
X417939Y639118D01*
X417214Y639391D01*
X416482Y639646D01*
X415745Y639884D01*
X415002Y640103D01*
X414253Y640305D01*
X413500Y640487D01*
X412743Y640652D01*
X411982Y640798D01*
X411217Y640925D01*
X410450Y641033D01*
X409680Y641123D01*
X408909Y641194D01*
X408135Y641245D01*
X407361Y641278D01*
X406586Y641292D01*
X405811Y641288D01*
X405037Y641264D01*
X404263Y641221D01*
X403491Y641159D01*
X402720Y641079D01*
X401951Y640979D01*
X401186Y640861D01*
X400423Y640724D01*
X399664Y640569D01*
X398908Y640395D01*
X398158Y640202D01*
X397412Y639992D01*
X396672Y639763D01*
X395937Y639516D01*
X395209Y639251D01*
X394487Y638969D01*
X393773Y638669D01*
X393066Y638351D01*
X392367Y638017D01*
X391676Y637665D01*
X390994Y637297D01*
X390322Y636912D01*
X389659Y636511D01*
X389006Y636093D01*
X388363Y635660D01*
X387732Y635211D01*
X387111Y634747D01*
X386502Y634268D01*
X385905Y633774D01*
X385320Y633266D01*
X384748Y632743D01*
X384188Y632207D01*
X383642Y631657D01*
X383110Y631094D01*
X382591Y630518D01*
X382087Y629930D01*
X381597Y629330D01*
X381122Y628717D01*
X381314Y628573D01*
X381785Y629181D01*
X382271Y629777D01*
X382772Y630361D01*
X383287Y630932D01*
X383815Y631491D01*
X384357Y632037D01*
X384912Y632569D01*
X385480Y633087D01*
X386061Y633592D01*
X386653Y634082D01*
X387258Y634557D01*
X387874Y635018D01*
X388501Y635463D01*
X389138Y635893D01*
X389786Y636307D01*
X390444Y636705D01*
X391112Y637087D01*
X391788Y637453D01*
X392474Y637802D01*
X393167Y638134D01*
X393869Y638449D01*
X394578Y638747D01*
X395294Y639027D01*
X396017Y639290D01*
X396746Y639535D01*
X397481Y639762D01*
X398221Y639971D01*
X398966Y640162D01*
X399715Y640334D01*
X400469Y640489D01*
X401226Y640624D01*
X401986Y640742D01*
X402748Y640840D01*
X403513Y640920D01*
X404280Y640981D01*
X405048Y641024D01*
X405817Y641048D01*
X406586Y641052D01*
X407354Y641039D01*
X408123Y641006D01*
X408890Y640954D01*
X409656Y640884D01*
X410420Y640795D01*
X411181Y640687D01*
X411940Y640561D01*
X412695Y640417D01*
X413447Y640253D01*
X414194Y640072D01*
X414937Y639872D01*
X415674Y639655D01*
X416407Y639419D01*
X417133Y639165D01*
X417852Y638894D01*
X418565Y638605D01*
X419271Y638299D01*
X419968Y637976D01*
X420658Y637636D01*
X421339Y637279D01*
X422011Y636905D01*
X422674Y636515D01*
X423328Y636109D01*
X423971Y635688D01*
X424603Y635250D01*
X425225Y634797D01*
X425835Y634330D01*
X426434Y633847D01*
X427021Y633350D01*
X427595Y632839D01*
X428157Y632314D01*
X428706Y631775D01*
X429242Y631223D01*
X429763Y630658D01*
X430271Y630081D01*
X430765Y629491D01*
X431244Y628889D01*
X431708Y628276D01*
X432157Y627652D01*
X432591Y627016D01*
X433009Y626371D01*
X433411Y625715D01*
X433797Y625050D01*
X434166Y624376D01*
X434519Y623692D01*
X434855Y623001D01*
X435175Y622301D01*
X435477Y621594D01*
X435761Y620879D01*
X436028Y620158D01*
X436277Y619430D01*
X436509Y618697D01*
X436722Y617958D01*
X436917Y617214D01*
X437094Y616466D01*
X437253Y615713D01*
X437393Y614957D01*
X437515Y614198D01*
X437618Y613436D01*
X437703Y612671D01*
X437768Y611905D01*
X437815Y611138D01*
X437844Y610369D01*
X437853Y609600D01*
X437844Y608831D01*
X437815Y608062D01*
X437768Y607295D01*
X437703Y606529D01*
X437618Y605764D01*
X437515Y605002D01*
X437393Y604243D01*
X437253Y603487D01*
X437094Y602734D01*
X436917Y601986D01*
X436722Y601242D01*
X436509Y600503D01*
X436277Y599770D01*
X436028Y599042D01*
X435761Y598321D01*
X435477Y597606D01*
X435175Y596899D01*
X434855Y596199D01*
X434519Y595508D01*
X434166Y594824D01*
X433797Y594150D01*
X433411Y593485D01*
X433009Y592829D01*
X432591Y592184D01*
X432157Y591548D01*
X431708Y590924D01*
X431244Y590311D01*
X430765Y589709D01*
X430271Y589119D01*
X429763Y588542D01*
X429242Y587977D01*
X428706Y587425D01*
X428157Y586886D01*
X427595Y586361D01*
X427021Y585850D01*
X426434Y585353D01*
X425835Y584870D01*
X425225Y584403D01*
X424603Y583950D01*
X423971Y583512D01*
X423328Y583091D01*
X422674Y582685D01*
X422011Y582295D01*
X421339Y581921D01*
X420658Y581564D01*
X419968Y581224D01*
X419271Y580901D01*
X418565Y580595D01*
X417852Y580306D01*
X417133Y580035D01*
X416407Y579781D01*
X415674Y579545D01*
X414937Y579328D01*
X414194Y579128D01*
X413447Y578947D01*
X412695Y578783D01*
X411940Y578639D01*
X411181Y578513D01*
X410420Y578405D01*
X409656Y578316D01*
X408890Y578246D01*
X408123Y578194D01*
X407354Y578161D01*
X406586Y578148D01*
X405817Y578152D01*
X405048Y578176D01*
X404280Y578219D01*
X403513Y578280D01*
X402748Y578360D01*
X401986Y578458D01*
X401226Y578576D01*
X400469Y578711D01*
X399715Y578866D01*
X398966Y579038D01*
X398221Y579229D01*
X397481Y579438D01*
X396746Y579665D01*
X396017Y579910D01*
X395294Y580173D01*
X394578Y580453D01*
X393869Y580751D01*
X393167Y581066D01*
X392474Y581398D01*
X391788Y581747D01*
X391112Y582113D01*
X390444Y582495D01*
X389786Y582893D01*
X389138Y583307D01*
X388501Y583737D01*
X387874Y584182D01*
X387258Y584643D01*
X386653Y585118D01*
X386061Y585608D01*
X385480Y586113D01*
X384912Y586631D01*
X384357Y587163D01*
X383815Y587709D01*
X383287Y588268D01*
X382772Y588839D01*
X382271Y589423D01*
X381785Y590019D01*
X381314Y590627D01*
X381506Y590771D01*
X381974Y590168D01*
X382456Y589576D01*
X382953Y588997D01*
X383464Y588430D01*
X383988Y587875D01*
X384526Y587334D01*
X385077Y586806D01*
X385640Y586291D01*
X386217Y585791D01*
X386805Y585304D01*
X387405Y584833D01*
X388016Y584376D01*
X388638Y583934D01*
X389271Y583507D01*
X389914Y583096D01*
X390567Y582701D01*
X391229Y582322D01*
X391901Y581959D01*
X392581Y581613D01*
X393269Y581283D01*
X393965Y580971D01*
X394669Y580675D01*
X395380Y580397D01*
X396097Y580136D01*
X396820Y579893D01*
X397550Y579668D01*
X398284Y579461D01*
X399023Y579271D01*
X399767Y579100D01*
X400515Y578947D01*
X401266Y578812D01*
X402020Y578696D01*
X402777Y578598D01*
X403536Y578519D01*
X404297Y578458D01*
X405059Y578416D01*
X405822Y578392D01*
X406585Y578388D01*
X407348Y578401D01*
X408110Y578434D01*
X408872Y578485D01*
X409632Y578555D01*
X410390Y578643D01*
X411145Y578750D01*
X411898Y578875D01*
X412648Y579019D01*
X413394Y579181D01*
X414135Y579361D01*
X414872Y579559D01*
X415604Y579775D01*
X416331Y580009D01*
X417051Y580261D01*
X417765Y580530D01*
X418473Y580816D01*
X419173Y581120D01*
X419865Y581441D01*
X420550Y581778D01*
X421226Y582133D01*
X421893Y582503D01*
X422551Y582890D01*
X423199Y583293D01*
X423837Y583712D01*
X424465Y584146D01*
X425082Y584595D01*
X425687Y585059D01*
X426282Y585538D01*
X426864Y586031D01*
X427434Y586539D01*
X427992Y587060D01*
X428536Y587594D01*
X429068Y588142D01*
X429585Y588703D01*
X430089Y589276D01*
X430579Y589861D01*
X431055Y590458D01*
X431515Y591067D01*
X431961Y591686D01*
X432391Y592317D01*
X432806Y592957D01*
X433205Y593608D01*
X433588Y594268D01*
X433955Y594937D01*
X434305Y595615D01*
X434638Y596302D01*
X434955Y596996D01*
X435255Y597698D01*
X435537Y598407D01*
X435802Y599123D01*
X436049Y599845D01*
X436279Y600573D01*
X436491Y601306D01*
X436685Y602044D01*
X436860Y602787D01*
X437018Y603533D01*
X437157Y604284D01*
X437278Y605037D01*
X437380Y605794D01*
X437464Y606552D01*
X437529Y607312D01*
X437576Y608074D01*
X437604Y608837D01*
X437613Y609600D01*
X437604Y610363D01*
X437576Y611126D01*
X437529Y611888D01*
X437464Y612648D01*
X437380Y613406D01*
X437278Y614163D01*
X437157Y614916D01*
X437018Y615667D01*
X436860Y616413D01*
X436685Y617156D01*
X436491Y617894D01*
X436279Y618627D01*
X436049Y619355D01*
X435802Y620077D01*
X435537Y620793D01*
X435255Y621502D01*
X434955Y622204D01*
X434638Y622898D01*
X434305Y623585D01*
X433955Y624263D01*
X433588Y624932D01*
X433205Y625592D01*
X432806Y626243D01*
X432391Y626883D01*
X431961Y627514D01*
X431515Y628133D01*
X431055Y628742D01*
X430579Y629339D01*
X430089Y629924D01*
X429585Y630497D01*
X429068Y631058D01*
X428536Y631606D01*
X427992Y632140D01*
X427434Y632661D01*
X426864Y633169D01*
X426282Y633662D01*
X425687Y634141D01*
X425082Y634605D01*
X424465Y635054D01*
X423837Y635488D01*
X423199Y635907D01*
X422551Y636310D01*
X421893Y636697D01*
X421226Y637067D01*
X420550Y637422D01*
X419865Y637759D01*
X419173Y638080D01*
X418473Y638384D01*
X417765Y638670D01*
X417051Y638939D01*
X416331Y639191D01*
X415604Y639425D01*
X414872Y639641D01*
X414135Y639839D01*
X413394Y640019D01*
X412648Y640181D01*
X411898Y640325D01*
X411145Y640450D01*
X410390Y640557D01*
X409632Y640645D01*
X408872Y640715D01*
X408110Y640766D01*
X407348Y640799D01*
X406585Y640812D01*
X405822Y640808D01*
X405059Y640784D01*
X404297Y640742D01*
X403536Y640681D01*
X402777Y640602D01*
X402020Y640504D01*
X401266Y640388D01*
X400515Y640253D01*
X399767Y640100D01*
X399023Y639929D01*
X398284Y639739D01*
X397550Y639532D01*
X396820Y639307D01*
X396097Y639064D01*
X395380Y638803D01*
X394669Y638525D01*
X393965Y638229D01*
X393269Y637917D01*
X392581Y637587D01*
X391901Y637241D01*
X391229Y636878D01*
X390567Y636499D01*
X389914Y636104D01*
X389271Y635693D01*
X388638Y635266D01*
X388016Y634824D01*
X387405Y634367D01*
X386805Y633896D01*
X386217Y633409D01*
X385640Y632909D01*
X385077Y632394D01*
X384526Y631866D01*
X383988Y631325D01*
X383464Y630770D01*
X382953Y630203D01*
X382456Y629624D01*
X381974Y629032D01*
X381506Y628429D01*
X381698Y628285D01*
X382162Y628884D01*
X382641Y629470D01*
X383134Y630045D01*
X383641Y630608D01*
X384161Y631158D01*
X384695Y631695D01*
X385241Y632220D01*
X385801Y632730D01*
X386372Y633227D01*
X386956Y633709D01*
X387551Y634177D01*
X388158Y634631D01*
X388775Y635069D01*
X389403Y635493D01*
X390041Y635901D01*
X390689Y636293D01*
X391347Y636669D01*
X392013Y637029D01*
X392688Y637372D01*
X393371Y637699D01*
X394062Y638009D01*
X394760Y638303D01*
X395465Y638579D01*
X396177Y638837D01*
X396895Y639078D01*
X397618Y639302D01*
X398347Y639508D01*
X399081Y639696D01*
X399819Y639866D01*
X400561Y640018D01*
X401306Y640151D01*
X402054Y640267D01*
X402805Y640364D01*
X403559Y640442D01*
X404314Y640503D01*
X405070Y640544D01*
X405827Y640568D01*
X406584Y640572D01*
X407341Y640559D01*
X408098Y640526D01*
X408853Y640476D01*
X409607Y640406D01*
X410360Y640319D01*
X411110Y640213D01*
X411857Y640089D01*
X412600Y639946D01*
X413340Y639785D01*
X414076Y639607D01*
X414808Y639410D01*
X415534Y639196D01*
X416255Y638963D01*
X416970Y638714D01*
X417678Y638447D01*
X418380Y638162D01*
X419075Y637861D01*
X419762Y637542D01*
X420441Y637207D01*
X421112Y636856D01*
X421774Y636488D01*
X422427Y636104D01*
X423070Y635704D01*
X423703Y635289D01*
X424326Y634858D01*
X424938Y634413D01*
X425539Y633952D01*
X426129Y633477D01*
X426707Y632987D01*
X427273Y632484D01*
X427826Y631967D01*
X428366Y631436D01*
X428893Y630893D01*
X429407Y630336D01*
X429907Y629768D01*
X430393Y629187D01*
X430865Y628594D01*
X431322Y627991D01*
X431764Y627376D01*
X432191Y626750D01*
X432603Y626115D01*
X432999Y625469D01*
X433379Y624814D01*
X433743Y624150D01*
X434090Y623477D01*
X434421Y622796D01*
X434736Y622107D01*
X435033Y621410D01*
X435313Y620707D01*
X435576Y619997D01*
X435821Y619280D01*
X436049Y618558D01*
X436259Y617830D01*
X436452Y617098D01*
X436626Y616361D01*
X436782Y615620D01*
X436920Y614875D01*
X437040Y614128D01*
X437142Y613377D01*
X437225Y612624D01*
X437290Y611870D01*
X437336Y611114D01*
X437364Y610357D01*
X437373Y609600D01*
X437364Y608843D01*
X437336Y608086D01*
X437290Y607330D01*
X437225Y606576D01*
X437142Y605823D01*
X437040Y605072D01*
X436920Y604325D01*
X436782Y603580D01*
X436626Y602839D01*
X436452Y602102D01*
X436259Y601370D01*
X436049Y600642D01*
X435821Y599920D01*
X435576Y599203D01*
X435313Y598493D01*
X435033Y597790D01*
X434736Y597093D01*
X434421Y596404D01*
X434090Y595723D01*
X433743Y595050D01*
X433379Y594386D01*
X432999Y593731D01*
X432603Y593085D01*
X432191Y592450D01*
X431764Y591824D01*
X431322Y591209D01*
X430865Y590606D01*
X430393Y590013D01*
X429907Y589432D01*
X429407Y588864D01*
X428893Y588307D01*
X428366Y587764D01*
X427826Y587233D01*
X427273Y586716D01*
X426707Y586213D01*
X426129Y585723D01*
X425539Y585248D01*
X424938Y584787D01*
X424326Y584342D01*
X423703Y583911D01*
X423070Y583496D01*
X422427Y583096D01*
X421774Y582712D01*
X421112Y582344D01*
X420441Y581993D01*
X419762Y581658D01*
X419075Y581339D01*
X418380Y581038D01*
X417678Y580753D01*
X416970Y580486D01*
X416255Y580237D01*
X415534Y580004D01*
X414808Y579790D01*
X414076Y579593D01*
X413340Y579415D01*
X412600Y579254D01*
X411857Y579111D01*
X411110Y578987D01*
X410360Y578881D01*
X409607Y578794D01*
X408853Y578724D01*
X408098Y578674D01*
X407341Y578641D01*
X406584Y578628D01*
X405827Y578632D01*
X405070Y578656D01*
X404314Y578697D01*
X403559Y578758D01*
X402805Y578836D01*
X402054Y578933D01*
X401306Y579049D01*
X400561Y579182D01*
X399819Y579334D01*
X399081Y579504D01*
X398347Y579692D01*
X397618Y579898D01*
X396895Y580122D01*
X396177Y580363D01*
X395465Y580621D01*
X394760Y580897D01*
X394062Y581191D01*
X393371Y581501D01*
X392688Y581828D01*
X392013Y582171D01*
X391347Y582531D01*
X390689Y582907D01*
X390041Y583299D01*
X389403Y583707D01*
X388775Y584131D01*
X388158Y584569D01*
X387551Y585023D01*
X386956Y585491D01*
X386372Y585973D01*
X385801Y586470D01*
X385241Y586980D01*
X384695Y587505D01*
X384161Y588042D01*
X383641Y588592D01*
X383134Y589155D01*
X382641Y589730D01*
X382162Y590316D01*
X381698Y590915D01*
X381890Y591059D01*
X382351Y590465D01*
X382826Y589883D01*
X383315Y589312D01*
X383818Y588754D01*
X384334Y588208D01*
X384864Y587675D01*
X385406Y587155D01*
X385961Y586649D01*
X386528Y586156D01*
X387107Y585677D01*
X387698Y585212D01*
X388300Y584762D01*
X388913Y584327D01*
X389536Y583907D01*
X390169Y583503D01*
X390812Y583114D01*
X391464Y582741D01*
X392125Y582383D01*
X392795Y582043D01*
X393472Y581718D01*
X394158Y581410D01*
X394851Y581120D01*
X395551Y580846D01*
X396257Y580589D01*
X396969Y580350D01*
X397687Y580128D01*
X398410Y579924D01*
X399138Y579737D01*
X399870Y579569D01*
X400607Y579418D01*
X401346Y579285D01*
X402089Y579171D01*
X402834Y579075D01*
X403581Y578997D01*
X404330Y578937D01*
X405081Y578895D01*
X405832Y578872D01*
X406583Y578868D01*
X407334Y578881D01*
X408085Y578913D01*
X408835Y578964D01*
X409583Y579032D01*
X410330Y579119D01*
X411074Y579224D01*
X411815Y579348D01*
X412553Y579489D01*
X413287Y579649D01*
X414017Y579826D01*
X414743Y580021D01*
X415464Y580234D01*
X416179Y580464D01*
X416888Y580712D01*
X417591Y580977D01*
X418288Y581259D01*
X418977Y581558D01*
X419659Y581874D01*
X420333Y582207D01*
X420998Y582555D01*
X421655Y582920D01*
X422303Y583301D01*
X422941Y583698D01*
X423569Y584110D01*
X424187Y584538D01*
X424795Y584980D01*
X425391Y585437D01*
X425976Y585909D01*
X426550Y586394D01*
X427111Y586894D01*
X427660Y587407D01*
X428196Y587933D01*
X428719Y588473D01*
X429229Y589025D01*
X429725Y589589D01*
X430208Y590165D01*
X430676Y590753D01*
X431129Y591352D01*
X431568Y591962D01*
X431992Y592583D01*
X432400Y593214D01*
X432793Y593854D01*
X433170Y594504D01*
X433531Y595163D01*
X433876Y595831D01*
X434204Y596507D01*
X434516Y597190D01*
X434811Y597881D01*
X435089Y598579D01*
X435350Y599284D01*
X435593Y599995D01*
X435820Y600712D01*
X436028Y601433D01*
X436219Y602160D01*
X436392Y602891D01*
X436547Y603627D01*
X436684Y604366D01*
X436803Y605108D01*
X436904Y605852D01*
X436986Y606599D01*
X437050Y607348D01*
X437096Y608098D01*
X437124Y608849D01*
X437133Y609600D01*
X437124Y610351D01*
X437096Y611102D01*
X437050Y611852D01*
X436986Y612601D01*
X436904Y613348D01*
X436803Y614092D01*
X436684Y614834D01*
X436547Y615573D01*
X436392Y616309D01*
X436219Y617040D01*
X436028Y617767D01*
X435820Y618488D01*
X435593Y619205D01*
X435350Y619916D01*
X435089Y620621D01*
X434811Y621319D01*
X434516Y622010D01*
X434204Y622693D01*
X433876Y623369D01*
X433531Y624037D01*
X433170Y624696D01*
X432793Y625346D01*
X432400Y625986D01*
X431992Y626617D01*
X431568Y627238D01*
X431129Y627848D01*
X430676Y628447D01*
X430208Y629035D01*
X429725Y629611D01*
X429229Y630175D01*
X428719Y630727D01*
X428196Y631267D01*
X427660Y631793D01*
X427111Y632306D01*
X426550Y632806D01*
X425976Y633291D01*
X425391Y633763D01*
X424795Y634220D01*
X424187Y634662D01*
X423569Y635090D01*
X422941Y635502D01*
X422303Y635899D01*
X421655Y636280D01*
X420998Y636645D01*
X420333Y636993D01*
X419659Y637326D01*
X418977Y637642D01*
X418288Y637941D01*
X417591Y638223D01*
X416888Y638488D01*
X416179Y638736D01*
X415464Y638966D01*
X414743Y639179D01*
X414017Y639374D01*
X413287Y639551D01*
X412553Y639711D01*
X411815Y639852D01*
X411074Y639976D01*
X410330Y640081D01*
X409583Y640168D01*
X408835Y640236D01*
X408085Y640287D01*
X407334Y640319D01*
X406583Y640332D01*
X405832Y640328D01*
X405081Y640305D01*
X404330Y640263D01*
X403581Y640203D01*
X402834Y640125D01*
X402089Y640029D01*
X401346Y639915D01*
X400607Y639782D01*
X399870Y639631D01*
X399138Y639463D01*
X398410Y639276D01*
X397687Y639072D01*
X396969Y638850D01*
X396257Y638611D01*
X395551Y638354D01*
X394851Y638080D01*
X394158Y637790D01*
X393472Y637482D01*
X392795Y637157D01*
X392125Y636817D01*
X391464Y636459D01*
X390812Y636086D01*
X390169Y635697D01*
X389536Y635293D01*
X388913Y634873D01*
X388300Y634438D01*
X387698Y633988D01*
X387107Y633523D01*
X386528Y633044D01*
X385961Y632551D01*
X385406Y632045D01*
X384864Y631525D01*
X384334Y630992D01*
X383818Y630446D01*
X383315Y629888D01*
X382826Y629317D01*
X382351Y628735D01*
X381890Y628141D01*
D12*
X381000Y609600D02*
X381008Y610223D01*
X381031Y610846D01*
X381069Y611469D01*
X381122Y612090D01*
X381191Y612709D01*
X381275Y613327D01*
X381374Y613942D01*
X381488Y614555D01*
X381617Y615165D01*
X381761Y615772D01*
X381920Y616375D01*
X382094Y616973D01*
X382282Y617568D01*
X382485Y618157D01*
X382702Y618741D01*
X382933Y619320D01*
X383179Y619893D01*
X383439Y620460D01*
X383712Y621020D01*
X383999Y621573D01*
X384300Y622120D01*
X384614Y622658D01*
X384941Y623189D01*
X385281Y623711D01*
X385633Y624226D01*
X385999Y624731D01*
X386376Y625227D01*
X386766Y625714D01*
X387167Y626191D01*
X387580Y626658D01*
X388004Y627114D01*
X388439Y627561D01*
X388886Y627996D01*
X389342Y628420D01*
X389809Y628833D01*
X390286Y629234D01*
X390773Y629624D01*
X391269Y630001D01*
X391774Y630367D01*
X392289Y630719D01*
X392811Y631059D01*
X393342Y631386D01*
X393880Y631700D01*
X394427Y632001D01*
X394980Y632288D01*
X395540Y632561D01*
X396107Y632821D01*
X396680Y633067D01*
X397259Y633298D01*
X397843Y633515D01*
X398432Y633718D01*
X399027Y633906D01*
X399625Y634080D01*
X400228Y634239D01*
X400835Y634383D01*
X401445Y634512D01*
X402058Y634626D01*
X402673Y634725D01*
X403291Y634809D01*
X403910Y634878D01*
X404531Y634931D01*
X405154Y634969D01*
X405777Y634992D01*
X406400Y635000D01*
X407023Y634992D01*
X407646Y634969D01*
X408269Y634931D01*
X408890Y634878D01*
X409509Y634809D01*
X410127Y634725D01*
X410742Y634626D01*
X411355Y634512D01*
X411965Y634383D01*
X412572Y634239D01*
X413175Y634080D01*
X413773Y633906D01*
X414368Y633718D01*
X414957Y633515D01*
X415541Y633298D01*
X416120Y633067D01*
X416693Y632821D01*
X417260Y632561D01*
X417820Y632288D01*
X418373Y632001D01*
X418920Y631700D01*
X419458Y631386D01*
X419989Y631059D01*
X420511Y630719D01*
X421026Y630367D01*
X421531Y630001D01*
X422027Y629624D01*
X422514Y629234D01*
X422991Y628833D01*
X423458Y628420D01*
X423914Y627996D01*
X424361Y627561D01*
X424796Y627114D01*
X425220Y626658D01*
X425633Y626191D01*
X426034Y625714D01*
X426424Y625227D01*
X426801Y624731D01*
X427167Y624226D01*
X427519Y623711D01*
X427859Y623189D01*
X428186Y622658D01*
X428500Y622120D01*
X428801Y621573D01*
X429088Y621020D01*
X429361Y620460D01*
X429621Y619893D01*
X429867Y619320D01*
X430098Y618741D01*
X430315Y618157D01*
X430518Y617568D01*
X430706Y616973D01*
X430880Y616375D01*
X431039Y615772D01*
X431183Y615165D01*
X431312Y614555D01*
X431426Y613942D01*
X431525Y613327D01*
X431609Y612709D01*
X431678Y612090D01*
X431731Y611469D01*
X431769Y610846D01*
X431792Y610223D01*
X431800Y609600D01*
X431792Y608977D01*
X431769Y608354D01*
X431731Y607731D01*
X431678Y607110D01*
X431609Y606491D01*
X431525Y605873D01*
X431426Y605258D01*
X431312Y604645D01*
X431183Y604035D01*
X431039Y603428D01*
X430880Y602825D01*
X430706Y602227D01*
X430518Y601632D01*
X430315Y601043D01*
X430098Y600459D01*
X429867Y599880D01*
X429621Y599307D01*
X429361Y598740D01*
X429088Y598180D01*
X428801Y597627D01*
X428500Y597080D01*
X428186Y596542D01*
X427859Y596011D01*
X427519Y595489D01*
X427167Y594974D01*
X426801Y594469D01*
X426424Y593973D01*
X426034Y593486D01*
X425633Y593009D01*
X425220Y592542D01*
X424796Y592086D01*
X424361Y591639D01*
X423914Y591204D01*
X423458Y590780D01*
X422991Y590367D01*
X422514Y589966D01*
X422027Y589576D01*
X421531Y589199D01*
X421026Y588833D01*
X420511Y588481D01*
X419989Y588141D01*
X419458Y587814D01*
X418920Y587500D01*
X418373Y587199D01*
X417820Y586912D01*
X417260Y586639D01*
X416693Y586379D01*
X416120Y586133D01*
X415541Y585902D01*
X414957Y585685D01*
X414368Y585482D01*
X413773Y585294D01*
X413175Y585120D01*
X412572Y584961D01*
X411965Y584817D01*
X411355Y584688D01*
X410742Y584574D01*
X410127Y584475D01*
X409509Y584391D01*
X408890Y584322D01*
X408269Y584269D01*
X407646Y584231D01*
X407023Y584208D01*
X406400Y584200D01*
X405777Y584208D01*
X405154Y584231D01*
X404531Y584269D01*
X403910Y584322D01*
X403291Y584391D01*
X402673Y584475D01*
X402058Y584574D01*
X401445Y584688D01*
X400835Y584817D01*
X400228Y584961D01*
X399625Y585120D01*
X399027Y585294D01*
X398432Y585482D01*
X397843Y585685D01*
X397259Y585902D01*
X396680Y586133D01*
X396107Y586379D01*
X395540Y586639D01*
X394980Y586912D01*
X394427Y587199D01*
X393880Y587500D01*
X393342Y587814D01*
X392811Y588141D01*
X392289Y588481D01*
X391774Y588833D01*
X391269Y589199D01*
X390773Y589576D01*
X390286Y589966D01*
X389809Y590367D01*
X389342Y590780D01*
X388886Y591204D01*
X388439Y591639D01*
X388004Y592086D01*
X387580Y592542D01*
X387167Y593009D01*
X386766Y593486D01*
X386376Y593973D01*
X385999Y594469D01*
X385633Y594974D01*
X385281Y595489D01*
X384941Y596011D01*
X384614Y596542D01*
X384300Y597080D01*
X383999Y597627D01*
X383712Y598180D01*
X383439Y598740D01*
X383179Y599307D01*
X382933Y599880D01*
X382702Y600459D01*
X382485Y601043D01*
X382282Y601632D01*
X382094Y602227D01*
X381920Y602825D01*
X381761Y603428D01*
X381617Y604035D01*
X381488Y604645D01*
X381374Y605258D01*
X381275Y605873D01*
X381191Y606491D01*
X381122Y607110D01*
X381069Y607731D01*
X381031Y608354D01*
X381008Y608977D01*
X381000Y609600D01*
D13*
X336067Y603631D02*
X336067Y592201D01*
X341147Y592201D01*
X345973Y592201D02*
X351053Y592201D01*
X345973Y592201D02*
X345973Y603631D01*
X351053Y603631D01*
X349783Y598551D02*
X345973Y598551D01*
X355854Y603631D02*
X355854Y592201D01*
X355854Y603631D02*
X359029Y603631D01*
X359140Y603629D01*
X359250Y603623D01*
X359361Y603614D01*
X359471Y603600D01*
X359580Y603583D01*
X359689Y603562D01*
X359797Y603537D01*
X359904Y603508D01*
X360010Y603476D01*
X360115Y603440D01*
X360218Y603400D01*
X360320Y603357D01*
X360421Y603310D01*
X360520Y603259D01*
X360617Y603206D01*
X360711Y603149D01*
X360804Y603088D01*
X360895Y603025D01*
X360984Y602958D01*
X361070Y602888D01*
X361153Y602815D01*
X361235Y602740D01*
X361313Y602662D01*
X361388Y602580D01*
X361461Y602497D01*
X361531Y602411D01*
X361598Y602322D01*
X361661Y602231D01*
X361722Y602138D01*
X361779Y602044D01*
X361832Y601947D01*
X361883Y601848D01*
X361930Y601747D01*
X361973Y601645D01*
X362013Y601542D01*
X362049Y601437D01*
X362081Y601331D01*
X362110Y601224D01*
X362135Y601116D01*
X362156Y601007D01*
X362173Y600898D01*
X362187Y600788D01*
X362196Y600677D01*
X362202Y600567D01*
X362204Y600456D01*
X362204Y595376D01*
X362202Y595265D01*
X362196Y595155D01*
X362187Y595044D01*
X362173Y594934D01*
X362156Y594825D01*
X362135Y594716D01*
X362110Y594608D01*
X362081Y594501D01*
X362049Y594395D01*
X362013Y594290D01*
X361973Y594187D01*
X361930Y594085D01*
X361883Y593984D01*
X361832Y593885D01*
X361779Y593789D01*
X361722Y593694D01*
X361661Y593601D01*
X361598Y593510D01*
X361531Y593421D01*
X361461Y593335D01*
X361388Y593252D01*
X361313Y593170D01*
X361235Y593092D01*
X361153Y593017D01*
X361070Y592944D01*
X360984Y592874D01*
X360895Y592807D01*
X360804Y592744D01*
X360711Y592683D01*
X360617Y592626D01*
X360520Y592573D01*
X360421Y592522D01*
X360320Y592475D01*
X360218Y592432D01*
X360115Y592392D01*
X360010Y592356D01*
X359904Y592324D01*
X359797Y592295D01*
X359689Y592270D01*
X359580Y592249D01*
X359471Y592232D01*
X359361Y592218D01*
X359250Y592209D01*
X359140Y592203D01*
X359029Y592201D01*
X355854Y592201D01*
X367665Y601091D02*
X370840Y603631D01*
X370840Y592201D01*
X367665Y592201D02*
X374015Y592201D01*
D10*
X381000Y514350D02*
X381000Y476250D01*
D11*
X380162Y475463D02*
X381991Y476835D01*
X381991Y476834D02*
X382450Y476243D01*
X382923Y475663D01*
X383410Y475095D01*
X383911Y474539D01*
X384425Y473996D01*
X384952Y473465D01*
X385492Y472947D01*
X386045Y472442D01*
X386610Y471952D01*
X387187Y471475D01*
X387775Y471012D01*
X388374Y470564D01*
X388985Y470131D01*
X389605Y469712D01*
X390236Y469310D01*
X390876Y468922D01*
X391525Y468550D01*
X392184Y468195D01*
X392851Y467855D01*
X393526Y467532D01*
X394209Y467226D01*
X394899Y466936D01*
X395595Y466663D01*
X396299Y466408D01*
X397008Y466170D01*
X397723Y465949D01*
X398443Y465745D01*
X399168Y465560D01*
X399897Y465392D01*
X400631Y465242D01*
X401367Y465110D01*
X402107Y464996D01*
X402849Y464900D01*
X403593Y464822D01*
X404339Y464762D01*
X405086Y464721D01*
X405834Y464698D01*
X406583Y464694D01*
X407331Y464707D01*
X408079Y464739D01*
X408825Y464789D01*
X409570Y464858D01*
X410314Y464944D01*
X411055Y465049D01*
X411793Y465172D01*
X412528Y465313D01*
X413259Y465471D01*
X413986Y465648D01*
X414709Y465842D01*
X415427Y466054D01*
X416139Y466284D01*
X416845Y466531D01*
X417546Y466795D01*
X418239Y467076D01*
X418926Y467373D01*
X419605Y467688D01*
X420276Y468019D01*
X420939Y468366D01*
X421593Y468730D01*
X422238Y469109D01*
X422873Y469504D01*
X423499Y469915D01*
X424115Y470340D01*
X424720Y470781D01*
X425314Y471236D01*
X425896Y471706D01*
X426467Y472190D01*
X427026Y472687D01*
X427573Y473198D01*
X428107Y473722D01*
X428628Y474259D01*
X429136Y474809D01*
X429630Y475371D01*
X430110Y475945D01*
X430576Y476530D01*
X431028Y477127D01*
X431465Y477735D01*
X431887Y478353D01*
X432294Y478981D01*
X432685Y479619D01*
X433060Y480266D01*
X433420Y480922D01*
X433763Y481587D01*
X434090Y482260D01*
X434401Y482941D01*
X434695Y483629D01*
X434971Y484325D01*
X435231Y485026D01*
X435474Y485734D01*
X435699Y486448D01*
X435907Y487167D01*
X436097Y487891D01*
X436269Y488619D01*
X436423Y489351D01*
X436560Y490087D01*
X436678Y490826D01*
X436779Y491568D01*
X436861Y492311D01*
X436925Y493057D01*
X436970Y493804D01*
X436998Y494552D01*
X437007Y495300D01*
X436998Y496048D01*
X436970Y496796D01*
X436925Y497543D01*
X436861Y498289D01*
X436779Y499032D01*
X436678Y499774D01*
X436560Y500513D01*
X436423Y501249D01*
X436269Y501981D01*
X436097Y502709D01*
X435907Y503433D01*
X435699Y504152D01*
X435474Y504866D01*
X435231Y505574D01*
X434971Y506275D01*
X434695Y506971D01*
X434401Y507659D01*
X434090Y508340D01*
X433763Y509013D01*
X433420Y509678D01*
X433060Y510334D01*
X432685Y510981D01*
X432294Y511619D01*
X431887Y512247D01*
X431465Y512865D01*
X431028Y513473D01*
X430576Y514070D01*
X430110Y514655D01*
X429630Y515229D01*
X429136Y515791D01*
X428628Y516341D01*
X428107Y516878D01*
X427573Y517402D01*
X427026Y517913D01*
X426467Y518410D01*
X425896Y518894D01*
X425314Y519364D01*
X424720Y519819D01*
X424115Y520260D01*
X423499Y520685D01*
X422873Y521096D01*
X422238Y521491D01*
X421593Y521870D01*
X420939Y522234D01*
X420276Y522581D01*
X419605Y522912D01*
X418926Y523227D01*
X418239Y523524D01*
X417546Y523805D01*
X416845Y524069D01*
X416139Y524316D01*
X415427Y524546D01*
X414709Y524758D01*
X413986Y524952D01*
X413259Y525129D01*
X412528Y525287D01*
X411793Y525428D01*
X411055Y525551D01*
X410314Y525656D01*
X409570Y525742D01*
X408825Y525811D01*
X408079Y525861D01*
X407331Y525893D01*
X406583Y525906D01*
X405834Y525902D01*
X405086Y525879D01*
X404339Y525838D01*
X403593Y525778D01*
X402849Y525700D01*
X402107Y525604D01*
X401367Y525490D01*
X400631Y525358D01*
X399897Y525208D01*
X399168Y525040D01*
X398443Y524855D01*
X397723Y524651D01*
X397008Y524430D01*
X396299Y524192D01*
X395595Y523937D01*
X394899Y523664D01*
X394209Y523374D01*
X393526Y523068D01*
X392851Y522745D01*
X392184Y522405D01*
X391525Y522050D01*
X390876Y521678D01*
X390236Y521290D01*
X389605Y520888D01*
X388985Y520469D01*
X388374Y520036D01*
X387775Y519588D01*
X387187Y519125D01*
X386610Y518648D01*
X386045Y518158D01*
X385492Y517653D01*
X384952Y517135D01*
X384425Y516604D01*
X383911Y516061D01*
X383410Y515505D01*
X382923Y514937D01*
X382450Y514357D01*
X381991Y513766D01*
X380162Y515137D01*
X380655Y515773D01*
X381163Y516396D01*
X381687Y517007D01*
X382225Y517605D01*
X382777Y518189D01*
X383344Y518760D01*
X383924Y519317D01*
X384518Y519859D01*
X385125Y520387D01*
X385745Y520899D01*
X386377Y521397D01*
X387021Y521879D01*
X387677Y522344D01*
X388344Y522794D01*
X389022Y523227D01*
X389710Y523644D01*
X390408Y524044D01*
X391115Y524426D01*
X391832Y524791D01*
X392557Y525138D01*
X393291Y525468D01*
X394033Y525779D01*
X394782Y526073D01*
X395537Y526348D01*
X396300Y526604D01*
X397068Y526842D01*
X397842Y527060D01*
X398621Y527260D01*
X399405Y527441D01*
X400193Y527602D01*
X400985Y527744D01*
X401780Y527867D01*
X402577Y527970D01*
X403377Y528054D01*
X404179Y528118D01*
X404982Y528162D01*
X405786Y528187D01*
X406590Y528192D01*
X407395Y528178D01*
X408198Y528144D01*
X409001Y528090D01*
X409802Y528017D01*
X410601Y527924D01*
X411397Y527811D01*
X412190Y527679D01*
X412980Y527528D01*
X413766Y527358D01*
X414548Y527168D01*
X415325Y526959D01*
X416096Y526731D01*
X416862Y526485D01*
X417621Y526220D01*
X418374Y525936D01*
X419119Y525634D01*
X419857Y525314D01*
X420587Y524976D01*
X421309Y524620D01*
X422021Y524247D01*
X422724Y523856D01*
X423417Y523449D01*
X424101Y523024D01*
X424773Y522583D01*
X425435Y522126D01*
X426085Y521652D01*
X426723Y521163D01*
X427350Y520659D01*
X427964Y520139D01*
X428564Y519604D01*
X429152Y519055D01*
X429726Y518491D01*
X430286Y517914D01*
X430832Y517323D01*
X431363Y516719D01*
X431879Y516103D01*
X432380Y515473D01*
X432866Y514832D01*
X433336Y514179D01*
X433789Y513515D01*
X434226Y512840D01*
X434647Y512154D01*
X435051Y511459D01*
X435437Y510753D01*
X435806Y510039D01*
X436158Y509315D01*
X436492Y508583D01*
X436807Y507844D01*
X437105Y507096D01*
X437384Y506342D01*
X437645Y505581D01*
X437887Y504814D01*
X438110Y504041D01*
X438314Y503263D01*
X438500Y502481D01*
X438666Y501694D01*
X438812Y500903D01*
X438940Y500109D01*
X439047Y499312D01*
X439136Y498512D01*
X439205Y497711D01*
X439254Y496908D01*
X439283Y496104D01*
X439293Y495300D01*
X439283Y494496D01*
X439254Y493692D01*
X439205Y492889D01*
X439136Y492088D01*
X439047Y491288D01*
X438940Y490491D01*
X438812Y489697D01*
X438666Y488906D01*
X438500Y488119D01*
X438314Y487337D01*
X438110Y486559D01*
X437887Y485786D01*
X437645Y485019D01*
X437384Y484258D01*
X437105Y483504D01*
X436807Y482756D01*
X436492Y482017D01*
X436158Y481285D01*
X435806Y480561D01*
X435437Y479847D01*
X435051Y479141D01*
X434647Y478446D01*
X434226Y477760D01*
X433789Y477085D01*
X433336Y476421D01*
X432866Y475768D01*
X432380Y475127D01*
X431879Y474497D01*
X431363Y473881D01*
X430832Y473277D01*
X430286Y472686D01*
X429726Y472109D01*
X429152Y471545D01*
X428564Y470996D01*
X427964Y470461D01*
X427350Y469941D01*
X426723Y469437D01*
X426085Y468948D01*
X425435Y468474D01*
X424773Y468017D01*
X424101Y467576D01*
X423417Y467151D01*
X422724Y466744D01*
X422021Y466353D01*
X421309Y465980D01*
X420587Y465624D01*
X419857Y465286D01*
X419119Y464966D01*
X418374Y464664D01*
X417621Y464380D01*
X416862Y464115D01*
X416096Y463869D01*
X415325Y463641D01*
X414548Y463432D01*
X413766Y463242D01*
X412980Y463072D01*
X412190Y462921D01*
X411397Y462789D01*
X410601Y462676D01*
X409802Y462583D01*
X409001Y462510D01*
X408198Y462456D01*
X407395Y462422D01*
X406590Y462408D01*
X405786Y462413D01*
X404982Y462438D01*
X404179Y462482D01*
X403377Y462546D01*
X402577Y462630D01*
X401780Y462733D01*
X400985Y462856D01*
X400193Y462998D01*
X399405Y463159D01*
X398621Y463340D01*
X397842Y463540D01*
X397068Y463758D01*
X396300Y463996D01*
X395537Y464252D01*
X394782Y464527D01*
X394033Y464821D01*
X393291Y465132D01*
X392557Y465462D01*
X391832Y465809D01*
X391115Y466174D01*
X390408Y466556D01*
X389710Y466956D01*
X389022Y467373D01*
X388344Y467806D01*
X387677Y468256D01*
X387021Y468721D01*
X386377Y469203D01*
X385745Y469701D01*
X385125Y470213D01*
X384518Y470741D01*
X383924Y471283D01*
X383344Y471840D01*
X382777Y472411D01*
X382225Y472995D01*
X381687Y473593D01*
X381163Y474204D01*
X380655Y474827D01*
X380162Y475463D01*
X380354Y475607D01*
X380843Y474976D01*
X381348Y474357D01*
X381867Y473751D01*
X382402Y473157D01*
X382950Y472577D01*
X383513Y472011D01*
X384089Y471458D01*
X384679Y470920D01*
X385281Y470396D01*
X385897Y469887D01*
X386524Y469393D01*
X387163Y468915D01*
X387814Y468452D01*
X388476Y468006D01*
X389149Y467576D01*
X389832Y467162D01*
X390525Y466766D01*
X391227Y466386D01*
X391939Y466024D01*
X392659Y465679D01*
X393387Y465352D01*
X394124Y465043D01*
X394867Y464752D01*
X395617Y464479D01*
X396374Y464224D01*
X397137Y463988D01*
X397905Y463771D01*
X398679Y463573D01*
X399457Y463394D01*
X400239Y463233D01*
X401025Y463092D01*
X401814Y462971D01*
X402606Y462868D01*
X403400Y462785D01*
X404196Y462721D01*
X404993Y462677D01*
X405791Y462653D01*
X406590Y462648D01*
X407388Y462662D01*
X408186Y462696D01*
X408982Y462749D01*
X409777Y462822D01*
X410570Y462914D01*
X411361Y463026D01*
X412149Y463157D01*
X412933Y463307D01*
X413713Y463476D01*
X414489Y463665D01*
X415260Y463872D01*
X416026Y464098D01*
X416786Y464343D01*
X417540Y464606D01*
X418287Y464888D01*
X419027Y465187D01*
X419760Y465505D01*
X420484Y465841D01*
X421200Y466194D01*
X421907Y466564D01*
X422605Y466952D01*
X423294Y467357D01*
X423972Y467778D01*
X424639Y468216D01*
X425296Y468670D01*
X425942Y469140D01*
X426575Y469626D01*
X427197Y470127D01*
X427806Y470643D01*
X428403Y471173D01*
X428986Y471719D01*
X429556Y472278D01*
X430112Y472851D01*
X430654Y473438D01*
X431181Y474037D01*
X431694Y474649D01*
X432191Y475274D01*
X432673Y475911D01*
X433139Y476559D01*
X433589Y477218D01*
X434023Y477888D01*
X434441Y478569D01*
X434842Y479260D01*
X435225Y479960D01*
X435592Y480669D01*
X435941Y481387D01*
X436272Y482114D01*
X436586Y482848D01*
X436881Y483590D01*
X437158Y484339D01*
X437417Y485094D01*
X437657Y485855D01*
X437879Y486622D01*
X438082Y487395D01*
X438265Y488172D01*
X438430Y488953D01*
X438576Y489738D01*
X438702Y490526D01*
X438809Y491318D01*
X438897Y492111D01*
X438965Y492907D01*
X439014Y493704D01*
X439043Y494502D01*
X439053Y495300D01*
X439043Y496098D01*
X439014Y496896D01*
X438965Y497693D01*
X438897Y498489D01*
X438809Y499282D01*
X438702Y500074D01*
X438576Y500862D01*
X438430Y501647D01*
X438265Y502428D01*
X438082Y503205D01*
X437879Y503978D01*
X437657Y504745D01*
X437417Y505506D01*
X437158Y506261D01*
X436881Y507010D01*
X436586Y507752D01*
X436272Y508486D01*
X435941Y509213D01*
X435592Y509931D01*
X435225Y510640D01*
X434842Y511340D01*
X434441Y512031D01*
X434023Y512712D01*
X433589Y513382D01*
X433139Y514041D01*
X432673Y514689D01*
X432191Y515326D01*
X431694Y515951D01*
X431181Y516563D01*
X430654Y517162D01*
X430112Y517749D01*
X429556Y518322D01*
X428986Y518881D01*
X428403Y519427D01*
X427806Y519957D01*
X427197Y520473D01*
X426575Y520974D01*
X425942Y521460D01*
X425296Y521930D01*
X424639Y522384D01*
X423972Y522822D01*
X423294Y523243D01*
X422605Y523648D01*
X421907Y524036D01*
X421200Y524406D01*
X420484Y524759D01*
X419760Y525095D01*
X419027Y525413D01*
X418287Y525712D01*
X417540Y525994D01*
X416786Y526257D01*
X416026Y526502D01*
X415260Y526728D01*
X414489Y526935D01*
X413713Y527124D01*
X412933Y527293D01*
X412149Y527443D01*
X411361Y527574D01*
X410570Y527686D01*
X409777Y527778D01*
X408982Y527851D01*
X408186Y527904D01*
X407388Y527938D01*
X406590Y527952D01*
X405791Y527947D01*
X404993Y527923D01*
X404196Y527879D01*
X403400Y527815D01*
X402606Y527732D01*
X401814Y527629D01*
X401025Y527508D01*
X400239Y527367D01*
X399457Y527206D01*
X398679Y527027D01*
X397905Y526829D01*
X397137Y526612D01*
X396374Y526376D01*
X395617Y526121D01*
X394867Y525848D01*
X394124Y525557D01*
X393387Y525248D01*
X392659Y524921D01*
X391939Y524576D01*
X391227Y524214D01*
X390525Y523834D01*
X389832Y523438D01*
X389149Y523024D01*
X388476Y522594D01*
X387814Y522148D01*
X387163Y521685D01*
X386524Y521207D01*
X385897Y520713D01*
X385281Y520204D01*
X384679Y519680D01*
X384089Y519142D01*
X383513Y518589D01*
X382950Y518023D01*
X382402Y517443D01*
X381867Y516849D01*
X381348Y516243D01*
X380843Y515624D01*
X380354Y514993D01*
X380546Y514849D01*
X381032Y515476D01*
X381533Y516090D01*
X382048Y516692D01*
X382579Y517281D01*
X383123Y517856D01*
X383682Y518419D01*
X384254Y518967D01*
X384839Y519502D01*
X385437Y520022D01*
X386048Y520527D01*
X386671Y521017D01*
X387305Y521492D01*
X387952Y521951D01*
X388609Y522394D01*
X389276Y522821D01*
X389955Y523231D01*
X390642Y523625D01*
X391340Y524002D01*
X392046Y524361D01*
X392761Y524704D01*
X393484Y525028D01*
X394214Y525335D01*
X394952Y525624D01*
X395697Y525895D01*
X396449Y526148D01*
X397206Y526382D01*
X397968Y526597D01*
X398736Y526794D01*
X399509Y526972D01*
X400285Y527131D01*
X401065Y527271D01*
X401848Y527392D01*
X402634Y527494D01*
X403423Y527576D01*
X404213Y527639D01*
X405004Y527683D01*
X405796Y527707D01*
X406589Y527712D01*
X407381Y527698D01*
X408173Y527664D01*
X408964Y527611D01*
X409753Y527539D01*
X410540Y527447D01*
X411325Y527337D01*
X412107Y527207D01*
X412885Y527058D01*
X413660Y526889D01*
X414430Y526703D01*
X415196Y526497D01*
X415956Y526272D01*
X416710Y526030D01*
X417458Y525768D01*
X418200Y525489D01*
X418935Y525191D01*
X419662Y524876D01*
X420381Y524543D01*
X421092Y524192D01*
X421794Y523824D01*
X422487Y523439D01*
X423170Y523038D01*
X423843Y522619D01*
X424506Y522185D01*
X425158Y521734D01*
X425798Y521267D01*
X426427Y520785D01*
X427045Y520288D01*
X427649Y519776D01*
X428241Y519249D01*
X428820Y518708D01*
X429386Y518153D01*
X429938Y517584D01*
X430476Y517002D01*
X430999Y516406D01*
X431508Y515799D01*
X432002Y515179D01*
X432480Y514547D01*
X432943Y513903D01*
X433390Y513249D01*
X433820Y512584D01*
X434235Y511908D01*
X434633Y511222D01*
X435013Y510527D01*
X435377Y509823D01*
X435724Y509110D01*
X436053Y508389D01*
X436364Y507660D01*
X436657Y506924D01*
X436932Y506181D01*
X437189Y505431D01*
X437428Y504675D01*
X437648Y503914D01*
X437849Y503147D01*
X438031Y502376D01*
X438195Y501600D01*
X438339Y500821D01*
X438465Y500038D01*
X438571Y499253D01*
X438658Y498465D01*
X438726Y497676D01*
X438774Y496885D01*
X438803Y496093D01*
X438813Y495300D01*
X438803Y494507D01*
X438774Y493715D01*
X438726Y492924D01*
X438658Y492135D01*
X438571Y491347D01*
X438465Y490562D01*
X438339Y489779D01*
X438195Y489000D01*
X438031Y488224D01*
X437849Y487453D01*
X437648Y486686D01*
X437428Y485925D01*
X437189Y485169D01*
X436932Y484419D01*
X436657Y483676D01*
X436364Y482940D01*
X436053Y482211D01*
X435724Y481490D01*
X435377Y480777D01*
X435013Y480073D01*
X434633Y479378D01*
X434235Y478692D01*
X433820Y478016D01*
X433390Y477351D01*
X432943Y476697D01*
X432480Y476053D01*
X432002Y475421D01*
X431508Y474801D01*
X430999Y474194D01*
X430476Y473598D01*
X429938Y473016D01*
X429386Y472447D01*
X428820Y471892D01*
X428241Y471351D01*
X427649Y470824D01*
X427045Y470312D01*
X426427Y469815D01*
X425798Y469333D01*
X425158Y468866D01*
X424506Y468415D01*
X423843Y467981D01*
X423170Y467562D01*
X422487Y467161D01*
X421794Y466776D01*
X421092Y466408D01*
X420381Y466057D01*
X419662Y465724D01*
X418935Y465409D01*
X418200Y465111D01*
X417458Y464832D01*
X416710Y464570D01*
X415956Y464328D01*
X415196Y464103D01*
X414430Y463897D01*
X413660Y463711D01*
X412885Y463542D01*
X412107Y463393D01*
X411325Y463263D01*
X410540Y463153D01*
X409753Y463061D01*
X408964Y462989D01*
X408173Y462936D01*
X407381Y462902D01*
X406589Y462888D01*
X405796Y462893D01*
X405004Y462917D01*
X404213Y462961D01*
X403423Y463024D01*
X402634Y463106D01*
X401848Y463208D01*
X401065Y463329D01*
X400285Y463469D01*
X399509Y463628D01*
X398736Y463806D01*
X397968Y464003D01*
X397206Y464218D01*
X396449Y464452D01*
X395697Y464705D01*
X394952Y464976D01*
X394214Y465265D01*
X393484Y465572D01*
X392761Y465896D01*
X392046Y466239D01*
X391340Y466598D01*
X390642Y466975D01*
X389955Y467369D01*
X389276Y467779D01*
X388609Y468206D01*
X387952Y468649D01*
X387305Y469108D01*
X386671Y469583D01*
X386048Y470073D01*
X385437Y470578D01*
X384839Y471098D01*
X384254Y471633D01*
X383682Y472181D01*
X383123Y472744D01*
X382579Y473319D01*
X382048Y473908D01*
X381533Y474510D01*
X381032Y475124D01*
X380546Y475751D01*
X380738Y475895D01*
X381220Y475273D01*
X381717Y474663D01*
X382229Y474066D01*
X382756Y473482D01*
X383296Y472910D01*
X383851Y472352D01*
X384418Y471807D01*
X384999Y471277D01*
X385593Y470761D01*
X386199Y470259D01*
X386818Y469773D01*
X387448Y469302D01*
X388089Y468846D01*
X388741Y468406D01*
X389404Y467983D01*
X390077Y467575D01*
X390760Y467184D01*
X391452Y466810D01*
X392153Y466454D01*
X392862Y466114D01*
X393580Y465792D01*
X394305Y465487D01*
X395038Y465200D01*
X395777Y464931D01*
X396523Y464681D01*
X397275Y464448D01*
X398032Y464234D01*
X398794Y464039D01*
X399560Y463862D01*
X400331Y463705D01*
X401105Y463566D01*
X401883Y463446D01*
X402663Y463345D01*
X403445Y463263D01*
X404230Y463200D01*
X405015Y463157D01*
X405801Y463133D01*
X406588Y463128D01*
X407375Y463142D01*
X408161Y463175D01*
X408945Y463228D01*
X409729Y463300D01*
X410510Y463391D01*
X411289Y463501D01*
X412065Y463630D01*
X412838Y463778D01*
X413607Y463945D01*
X414371Y464130D01*
X415131Y464334D01*
X415885Y464557D01*
X416634Y464798D01*
X417377Y465057D01*
X418113Y465335D01*
X418842Y465630D01*
X419564Y465943D01*
X420278Y466274D01*
X420983Y466622D01*
X421680Y466987D01*
X422368Y467369D01*
X423046Y467768D01*
X423714Y468183D01*
X424372Y468615D01*
X425019Y469062D01*
X425655Y469525D01*
X426279Y470004D01*
X426892Y470497D01*
X427492Y471006D01*
X428080Y471529D01*
X428655Y472066D01*
X429216Y472617D01*
X429764Y473181D01*
X430298Y473759D01*
X430817Y474350D01*
X431322Y474953D01*
X431812Y475569D01*
X432287Y476196D01*
X432746Y476835D01*
X433190Y477484D01*
X433618Y478145D01*
X434029Y478815D01*
X434424Y479496D01*
X434802Y480186D01*
X435163Y480885D01*
X435507Y481592D01*
X435833Y482308D01*
X436142Y483031D01*
X436433Y483762D01*
X436706Y484500D01*
X436961Y485244D01*
X437198Y485994D01*
X437416Y486750D01*
X437616Y487511D01*
X437797Y488277D01*
X437959Y489046D01*
X438103Y489820D01*
X438227Y490597D01*
X438333Y491376D01*
X438419Y492158D01*
X438486Y492942D01*
X438535Y493727D01*
X438563Y494513D01*
X438573Y495300D01*
X438563Y496087D01*
X438535Y496873D01*
X438486Y497658D01*
X438419Y498442D01*
X438333Y499224D01*
X438227Y500003D01*
X438103Y500780D01*
X437959Y501554D01*
X437797Y502323D01*
X437616Y503089D01*
X437416Y503850D01*
X437198Y504606D01*
X436961Y505356D01*
X436706Y506100D01*
X436433Y506838D01*
X436142Y507569D01*
X435833Y508292D01*
X435507Y509008D01*
X435163Y509715D01*
X434802Y510414D01*
X434424Y511104D01*
X434029Y511785D01*
X433618Y512455D01*
X433190Y513116D01*
X432746Y513765D01*
X432287Y514404D01*
X431812Y515031D01*
X431322Y515647D01*
X430817Y516250D01*
X430298Y516841D01*
X429764Y517419D01*
X429216Y517983D01*
X428655Y518534D01*
X428080Y519071D01*
X427492Y519594D01*
X426892Y520103D01*
X426279Y520596D01*
X425655Y521075D01*
X425019Y521538D01*
X424372Y521985D01*
X423714Y522417D01*
X423046Y522832D01*
X422368Y523231D01*
X421680Y523613D01*
X420983Y523978D01*
X420278Y524326D01*
X419564Y524657D01*
X418842Y524970D01*
X418113Y525265D01*
X417377Y525543D01*
X416634Y525802D01*
X415885Y526043D01*
X415131Y526266D01*
X414371Y526470D01*
X413607Y526655D01*
X412838Y526822D01*
X412065Y526970D01*
X411289Y527099D01*
X410510Y527209D01*
X409729Y527300D01*
X408945Y527372D01*
X408161Y527425D01*
X407375Y527458D01*
X406588Y527472D01*
X405801Y527467D01*
X405015Y527443D01*
X404230Y527400D01*
X403445Y527337D01*
X402663Y527255D01*
X401883Y527154D01*
X401105Y527034D01*
X400331Y526895D01*
X399560Y526738D01*
X398794Y526561D01*
X398032Y526366D01*
X397275Y526152D01*
X396523Y525919D01*
X395777Y525669D01*
X395038Y525400D01*
X394305Y525113D01*
X393580Y524808D01*
X392862Y524486D01*
X392153Y524146D01*
X391452Y523790D01*
X390760Y523416D01*
X390077Y523025D01*
X389404Y522617D01*
X388741Y522194D01*
X388089Y521754D01*
X387448Y521298D01*
X386818Y520827D01*
X386199Y520341D01*
X385593Y519839D01*
X384999Y519323D01*
X384418Y518793D01*
X383851Y518248D01*
X383296Y517690D01*
X382756Y517118D01*
X382229Y516534D01*
X381717Y515937D01*
X381220Y515327D01*
X380738Y514705D01*
X380930Y514561D01*
X381409Y515178D01*
X381902Y515783D01*
X382410Y516376D01*
X382933Y516956D01*
X383469Y517524D01*
X384019Y518078D01*
X384583Y518618D01*
X385160Y519145D01*
X385749Y519657D01*
X386351Y520154D01*
X386964Y520637D01*
X387590Y521105D01*
X388226Y521557D01*
X388874Y521993D01*
X389531Y522414D01*
X390199Y522818D01*
X390877Y523206D01*
X391564Y523577D01*
X392260Y523932D01*
X392964Y524269D01*
X393676Y524589D01*
X394396Y524891D01*
X395123Y525176D01*
X395857Y525442D01*
X396597Y525691D01*
X397343Y525922D01*
X398095Y526134D01*
X398851Y526328D01*
X399612Y526503D01*
X400377Y526660D01*
X401145Y526798D01*
X401917Y526917D01*
X402691Y527017D01*
X403468Y527098D01*
X404246Y527160D01*
X405026Y527203D01*
X405806Y527227D01*
X406587Y527232D01*
X407368Y527218D01*
X408148Y527185D01*
X408927Y527133D01*
X409705Y527062D01*
X410480Y526971D01*
X411253Y526862D01*
X412024Y526734D01*
X412790Y526587D01*
X413553Y526421D01*
X414312Y526237D01*
X415066Y526035D01*
X415815Y525813D01*
X416558Y525574D01*
X417295Y525317D01*
X418026Y525041D01*
X418750Y524748D01*
X419466Y524437D01*
X420175Y524109D01*
X420875Y523764D01*
X421566Y523401D01*
X422249Y523022D01*
X422922Y522626D01*
X423585Y522214D01*
X424238Y521786D01*
X424880Y521342D01*
X425512Y520882D01*
X426131Y520408D01*
X426739Y519918D01*
X427335Y519413D01*
X427918Y518894D01*
X428489Y518361D01*
X429046Y517814D01*
X429590Y517253D01*
X430120Y516680D01*
X430635Y516093D01*
X431136Y515495D01*
X431623Y514884D01*
X432094Y514261D01*
X432550Y513627D01*
X432990Y512983D01*
X433415Y512327D01*
X433823Y511662D01*
X434215Y510986D01*
X434590Y510301D01*
X434948Y509608D01*
X435290Y508906D01*
X435614Y508195D01*
X435920Y507477D01*
X436209Y506752D01*
X436480Y506019D01*
X436733Y505281D01*
X436968Y504536D01*
X437185Y503786D01*
X437383Y503031D01*
X437563Y502271D01*
X437724Y501507D01*
X437866Y500739D01*
X437990Y499968D01*
X438095Y499194D01*
X438180Y498418D01*
X438247Y497640D01*
X438295Y496861D01*
X438323Y496081D01*
X438333Y495300D01*
X438323Y494519D01*
X438295Y493739D01*
X438247Y492960D01*
X438180Y492182D01*
X438095Y491406D01*
X437990Y490632D01*
X437866Y489861D01*
X437724Y489093D01*
X437563Y488329D01*
X437383Y487569D01*
X437185Y486814D01*
X436968Y486064D01*
X436733Y485319D01*
X436480Y484581D01*
X436209Y483848D01*
X435920Y483123D01*
X435614Y482405D01*
X435290Y481694D01*
X434948Y480992D01*
X434590Y480299D01*
X434215Y479614D01*
X433823Y478938D01*
X433415Y478273D01*
X432990Y477617D01*
X432550Y476973D01*
X432094Y476339D01*
X431623Y475716D01*
X431136Y475105D01*
X430635Y474507D01*
X430120Y473920D01*
X429590Y473347D01*
X429046Y472786D01*
X428489Y472239D01*
X427918Y471706D01*
X427335Y471187D01*
X426739Y470682D01*
X426131Y470192D01*
X425512Y469718D01*
X424880Y469258D01*
X424238Y468814D01*
X423585Y468386D01*
X422922Y467974D01*
X422249Y467578D01*
X421566Y467199D01*
X420875Y466836D01*
X420175Y466491D01*
X419466Y466163D01*
X418750Y465852D01*
X418026Y465559D01*
X417295Y465283D01*
X416558Y465026D01*
X415815Y464787D01*
X415066Y464565D01*
X414312Y464363D01*
X413553Y464179D01*
X412790Y464013D01*
X412024Y463866D01*
X411253Y463738D01*
X410480Y463629D01*
X409705Y463538D01*
X408927Y463467D01*
X408148Y463415D01*
X407368Y463382D01*
X406587Y463368D01*
X405806Y463373D01*
X405026Y463397D01*
X404246Y463440D01*
X403468Y463502D01*
X402691Y463583D01*
X401917Y463683D01*
X401145Y463802D01*
X400377Y463940D01*
X399612Y464097D01*
X398851Y464272D01*
X398095Y464466D01*
X397343Y464678D01*
X396597Y464909D01*
X395857Y465158D01*
X395123Y465424D01*
X394396Y465709D01*
X393676Y466011D01*
X392964Y466331D01*
X392260Y466668D01*
X391564Y467023D01*
X390877Y467394D01*
X390199Y467782D01*
X389531Y468186D01*
X388874Y468607D01*
X388226Y469043D01*
X387590Y469495D01*
X386964Y469963D01*
X386351Y470446D01*
X385749Y470943D01*
X385160Y471455D01*
X384583Y471982D01*
X384019Y472522D01*
X383469Y473076D01*
X382933Y473644D01*
X382410Y474224D01*
X381902Y474817D01*
X381409Y475422D01*
X380930Y476039D01*
X381122Y476183D01*
X381597Y475570D01*
X382087Y474970D01*
X382591Y474382D01*
X383110Y473806D01*
X383642Y473243D01*
X384188Y472693D01*
X384748Y472157D01*
X385320Y471634D01*
X385905Y471126D01*
X386502Y470632D01*
X387111Y470153D01*
X387732Y469689D01*
X388363Y469240D01*
X389006Y468807D01*
X389659Y468389D01*
X390322Y467988D01*
X390994Y467603D01*
X391676Y467235D01*
X392367Y466883D01*
X393066Y466549D01*
X393773Y466231D01*
X394487Y465931D01*
X395209Y465649D01*
X395937Y465384D01*
X396672Y465137D01*
X397412Y464908D01*
X398158Y464698D01*
X398908Y464505D01*
X399664Y464331D01*
X400423Y464176D01*
X401186Y464039D01*
X401951Y463921D01*
X402720Y463821D01*
X403491Y463741D01*
X404263Y463679D01*
X405037Y463636D01*
X405811Y463612D01*
X406586Y463608D01*
X407361Y463622D01*
X408135Y463655D01*
X408909Y463706D01*
X409680Y463777D01*
X410450Y463867D01*
X411217Y463975D01*
X411982Y464102D01*
X412743Y464248D01*
X413500Y464413D01*
X414253Y464595D01*
X415002Y464797D01*
X415745Y465016D01*
X416482Y465254D01*
X417214Y465509D01*
X417939Y465782D01*
X418657Y466073D01*
X419368Y466382D01*
X420071Y466707D01*
X420766Y467050D01*
X421453Y467410D01*
X422130Y467786D01*
X422798Y468179D01*
X423456Y468588D01*
X424104Y469013D01*
X424742Y469454D01*
X425368Y469910D01*
X425983Y470381D01*
X426587Y470868D01*
X427178Y471368D01*
X427757Y471884D01*
X428323Y472413D01*
X428876Y472956D01*
X429416Y473512D01*
X429942Y474081D01*
X430453Y474663D01*
X430951Y475257D01*
X431433Y475864D01*
X431901Y476481D01*
X432354Y477110D01*
X432791Y477750D01*
X433212Y478401D01*
X433617Y479062D01*
X434006Y479732D01*
X434378Y480411D01*
X434734Y481100D01*
X435073Y481797D01*
X435394Y482502D01*
X435698Y483215D01*
X435985Y483935D01*
X436254Y484661D01*
X436505Y485394D01*
X436738Y486133D01*
X436953Y486878D01*
X437150Y487627D01*
X437329Y488382D01*
X437489Y489140D01*
X437630Y489902D01*
X437753Y490667D01*
X437856Y491435D01*
X437942Y492205D01*
X438008Y492977D01*
X438055Y493751D01*
X438084Y494525D01*
X438093Y495300D01*
X438084Y496075D01*
X438055Y496849D01*
X438008Y497623D01*
X437942Y498395D01*
X437856Y499165D01*
X437753Y499933D01*
X437630Y500698D01*
X437489Y501460D01*
X437329Y502218D01*
X437150Y502973D01*
X436953Y503722D01*
X436738Y504467D01*
X436505Y505206D01*
X436254Y505939D01*
X435985Y506665D01*
X435698Y507385D01*
X435394Y508098D01*
X435073Y508803D01*
X434734Y509500D01*
X434378Y510189D01*
X434006Y510868D01*
X433617Y511538D01*
X433212Y512199D01*
X432791Y512850D01*
X432354Y513490D01*
X431901Y514119D01*
X431433Y514736D01*
X430951Y515343D01*
X430453Y515937D01*
X429942Y516519D01*
X429416Y517088D01*
X428876Y517644D01*
X428323Y518187D01*
X427757Y518716D01*
X427178Y519232D01*
X426587Y519732D01*
X425983Y520219D01*
X425368Y520690D01*
X424742Y521146D01*
X424104Y521587D01*
X423456Y522012D01*
X422798Y522421D01*
X422130Y522814D01*
X421453Y523190D01*
X420766Y523550D01*
X420071Y523893D01*
X419368Y524218D01*
X418657Y524527D01*
X417939Y524818D01*
X417214Y525091D01*
X416482Y525346D01*
X415745Y525584D01*
X415002Y525803D01*
X414253Y526005D01*
X413500Y526187D01*
X412743Y526352D01*
X411982Y526498D01*
X411217Y526625D01*
X410450Y526733D01*
X409680Y526823D01*
X408909Y526894D01*
X408135Y526945D01*
X407361Y526978D01*
X406586Y526992D01*
X405811Y526988D01*
X405037Y526964D01*
X404263Y526921D01*
X403491Y526859D01*
X402720Y526779D01*
X401951Y526679D01*
X401186Y526561D01*
X400423Y526424D01*
X399664Y526269D01*
X398908Y526095D01*
X398158Y525902D01*
X397412Y525692D01*
X396672Y525463D01*
X395937Y525216D01*
X395209Y524951D01*
X394487Y524669D01*
X393773Y524369D01*
X393066Y524051D01*
X392367Y523717D01*
X391676Y523365D01*
X390994Y522997D01*
X390322Y522612D01*
X389659Y522211D01*
X389006Y521793D01*
X388363Y521360D01*
X387732Y520911D01*
X387111Y520447D01*
X386502Y519968D01*
X385905Y519474D01*
X385320Y518966D01*
X384748Y518443D01*
X384188Y517907D01*
X383642Y517357D01*
X383110Y516794D01*
X382591Y516218D01*
X382087Y515630D01*
X381597Y515030D01*
X381122Y514417D01*
X381314Y514273D01*
X381785Y514881D01*
X382271Y515477D01*
X382772Y516061D01*
X383287Y516632D01*
X383815Y517191D01*
X384357Y517737D01*
X384912Y518269D01*
X385480Y518787D01*
X386061Y519292D01*
X386653Y519782D01*
X387258Y520257D01*
X387874Y520718D01*
X388501Y521163D01*
X389138Y521593D01*
X389786Y522007D01*
X390444Y522405D01*
X391112Y522787D01*
X391788Y523153D01*
X392474Y523502D01*
X393167Y523834D01*
X393869Y524149D01*
X394578Y524447D01*
X395294Y524727D01*
X396017Y524990D01*
X396746Y525235D01*
X397481Y525462D01*
X398221Y525671D01*
X398966Y525862D01*
X399715Y526034D01*
X400469Y526189D01*
X401226Y526324D01*
X401986Y526442D01*
X402748Y526540D01*
X403513Y526620D01*
X404280Y526681D01*
X405048Y526724D01*
X405817Y526748D01*
X406586Y526752D01*
X407354Y526739D01*
X408123Y526706D01*
X408890Y526654D01*
X409656Y526584D01*
X410420Y526495D01*
X411181Y526387D01*
X411940Y526261D01*
X412695Y526117D01*
X413447Y525953D01*
X414194Y525772D01*
X414937Y525572D01*
X415674Y525355D01*
X416407Y525119D01*
X417133Y524865D01*
X417852Y524594D01*
X418565Y524305D01*
X419271Y523999D01*
X419968Y523676D01*
X420658Y523336D01*
X421339Y522979D01*
X422011Y522605D01*
X422674Y522215D01*
X423328Y521809D01*
X423971Y521388D01*
X424603Y520950D01*
X425225Y520497D01*
X425835Y520030D01*
X426434Y519547D01*
X427021Y519050D01*
X427595Y518539D01*
X428157Y518014D01*
X428706Y517475D01*
X429242Y516923D01*
X429763Y516358D01*
X430271Y515781D01*
X430765Y515191D01*
X431244Y514589D01*
X431708Y513976D01*
X432157Y513352D01*
X432591Y512716D01*
X433009Y512071D01*
X433411Y511415D01*
X433797Y510750D01*
X434166Y510076D01*
X434519Y509392D01*
X434855Y508701D01*
X435175Y508001D01*
X435477Y507294D01*
X435761Y506579D01*
X436028Y505858D01*
X436277Y505130D01*
X436509Y504397D01*
X436722Y503658D01*
X436917Y502914D01*
X437094Y502166D01*
X437253Y501413D01*
X437393Y500657D01*
X437515Y499898D01*
X437618Y499136D01*
X437703Y498371D01*
X437768Y497605D01*
X437815Y496838D01*
X437844Y496069D01*
X437853Y495300D01*
X437844Y494531D01*
X437815Y493762D01*
X437768Y492995D01*
X437703Y492229D01*
X437618Y491464D01*
X437515Y490702D01*
X437393Y489943D01*
X437253Y489187D01*
X437094Y488434D01*
X436917Y487686D01*
X436722Y486942D01*
X436509Y486203D01*
X436277Y485470D01*
X436028Y484742D01*
X435761Y484021D01*
X435477Y483306D01*
X435175Y482599D01*
X434855Y481899D01*
X434519Y481208D01*
X434166Y480524D01*
X433797Y479850D01*
X433411Y479185D01*
X433009Y478529D01*
X432591Y477884D01*
X432157Y477248D01*
X431708Y476624D01*
X431244Y476011D01*
X430765Y475409D01*
X430271Y474819D01*
X429763Y474242D01*
X429242Y473677D01*
X428706Y473125D01*
X428157Y472586D01*
X427595Y472061D01*
X427021Y471550D01*
X426434Y471053D01*
X425835Y470570D01*
X425225Y470103D01*
X424603Y469650D01*
X423971Y469212D01*
X423328Y468791D01*
X422674Y468385D01*
X422011Y467995D01*
X421339Y467621D01*
X420658Y467264D01*
X419968Y466924D01*
X419271Y466601D01*
X418565Y466295D01*
X417852Y466006D01*
X417133Y465735D01*
X416407Y465481D01*
X415674Y465245D01*
X414937Y465028D01*
X414194Y464828D01*
X413447Y464647D01*
X412695Y464483D01*
X411940Y464339D01*
X411181Y464213D01*
X410420Y464105D01*
X409656Y464016D01*
X408890Y463946D01*
X408123Y463894D01*
X407354Y463861D01*
X406586Y463848D01*
X405817Y463852D01*
X405048Y463876D01*
X404280Y463919D01*
X403513Y463980D01*
X402748Y464060D01*
X401986Y464158D01*
X401226Y464276D01*
X400469Y464411D01*
X399715Y464566D01*
X398966Y464738D01*
X398221Y464929D01*
X397481Y465138D01*
X396746Y465365D01*
X396017Y465610D01*
X395294Y465873D01*
X394578Y466153D01*
X393869Y466451D01*
X393167Y466766D01*
X392474Y467098D01*
X391788Y467447D01*
X391112Y467813D01*
X390444Y468195D01*
X389786Y468593D01*
X389138Y469007D01*
X388501Y469437D01*
X387874Y469882D01*
X387258Y470343D01*
X386653Y470818D01*
X386061Y471308D01*
X385480Y471813D01*
X384912Y472331D01*
X384357Y472863D01*
X383815Y473409D01*
X383287Y473968D01*
X382772Y474539D01*
X382271Y475123D01*
X381785Y475719D01*
X381314Y476327D01*
X381506Y476471D01*
X381974Y475868D01*
X382456Y475276D01*
X382953Y474697D01*
X383464Y474130D01*
X383988Y473575D01*
X384526Y473034D01*
X385077Y472506D01*
X385640Y471991D01*
X386217Y471491D01*
X386805Y471004D01*
X387405Y470533D01*
X388016Y470076D01*
X388638Y469634D01*
X389271Y469207D01*
X389914Y468796D01*
X390567Y468401D01*
X391229Y468022D01*
X391901Y467659D01*
X392581Y467313D01*
X393269Y466983D01*
X393965Y466671D01*
X394669Y466375D01*
X395380Y466097D01*
X396097Y465836D01*
X396820Y465593D01*
X397550Y465368D01*
X398284Y465161D01*
X399023Y464971D01*
X399767Y464800D01*
X400515Y464647D01*
X401266Y464512D01*
X402020Y464396D01*
X402777Y464298D01*
X403536Y464219D01*
X404297Y464158D01*
X405059Y464116D01*
X405822Y464092D01*
X406585Y464088D01*
X407348Y464101D01*
X408110Y464134D01*
X408872Y464185D01*
X409632Y464255D01*
X410390Y464343D01*
X411145Y464450D01*
X411898Y464575D01*
X412648Y464719D01*
X413394Y464881D01*
X414135Y465061D01*
X414872Y465259D01*
X415604Y465475D01*
X416331Y465709D01*
X417051Y465961D01*
X417765Y466230D01*
X418473Y466516D01*
X419173Y466820D01*
X419865Y467141D01*
X420550Y467478D01*
X421226Y467833D01*
X421893Y468203D01*
X422551Y468590D01*
X423199Y468993D01*
X423837Y469412D01*
X424465Y469846D01*
X425082Y470295D01*
X425687Y470759D01*
X426282Y471238D01*
X426864Y471731D01*
X427434Y472239D01*
X427992Y472760D01*
X428536Y473294D01*
X429068Y473842D01*
X429585Y474403D01*
X430089Y474976D01*
X430579Y475561D01*
X431055Y476158D01*
X431515Y476767D01*
X431961Y477386D01*
X432391Y478017D01*
X432806Y478657D01*
X433205Y479308D01*
X433588Y479968D01*
X433955Y480637D01*
X434305Y481315D01*
X434638Y482002D01*
X434955Y482696D01*
X435255Y483398D01*
X435537Y484107D01*
X435802Y484823D01*
X436049Y485545D01*
X436279Y486273D01*
X436491Y487006D01*
X436685Y487744D01*
X436860Y488487D01*
X437018Y489233D01*
X437157Y489984D01*
X437278Y490737D01*
X437380Y491494D01*
X437464Y492252D01*
X437529Y493012D01*
X437576Y493774D01*
X437604Y494537D01*
X437613Y495300D01*
X437604Y496063D01*
X437576Y496826D01*
X437529Y497588D01*
X437464Y498348D01*
X437380Y499106D01*
X437278Y499863D01*
X437157Y500616D01*
X437018Y501367D01*
X436860Y502113D01*
X436685Y502856D01*
X436491Y503594D01*
X436279Y504327D01*
X436049Y505055D01*
X435802Y505777D01*
X435537Y506493D01*
X435255Y507202D01*
X434955Y507904D01*
X434638Y508598D01*
X434305Y509285D01*
X433955Y509963D01*
X433588Y510632D01*
X433205Y511292D01*
X432806Y511943D01*
X432391Y512583D01*
X431961Y513214D01*
X431515Y513833D01*
X431055Y514442D01*
X430579Y515039D01*
X430089Y515624D01*
X429585Y516197D01*
X429068Y516758D01*
X428536Y517306D01*
X427992Y517840D01*
X427434Y518361D01*
X426864Y518869D01*
X426282Y519362D01*
X425687Y519841D01*
X425082Y520305D01*
X424465Y520754D01*
X423837Y521188D01*
X423199Y521607D01*
X422551Y522010D01*
X421893Y522397D01*
X421226Y522767D01*
X420550Y523122D01*
X419865Y523459D01*
X419173Y523780D01*
X418473Y524084D01*
X417765Y524370D01*
X417051Y524639D01*
X416331Y524891D01*
X415604Y525125D01*
X414872Y525341D01*
X414135Y525539D01*
X413394Y525719D01*
X412648Y525881D01*
X411898Y526025D01*
X411145Y526150D01*
X410390Y526257D01*
X409632Y526345D01*
X408872Y526415D01*
X408110Y526466D01*
X407348Y526499D01*
X406585Y526512D01*
X405822Y526508D01*
X405059Y526484D01*
X404297Y526442D01*
X403536Y526381D01*
X402777Y526302D01*
X402020Y526204D01*
X401266Y526088D01*
X400515Y525953D01*
X399767Y525800D01*
X399023Y525629D01*
X398284Y525439D01*
X397550Y525232D01*
X396820Y525007D01*
X396097Y524764D01*
X395380Y524503D01*
X394669Y524225D01*
X393965Y523929D01*
X393269Y523617D01*
X392581Y523287D01*
X391901Y522941D01*
X391229Y522578D01*
X390567Y522199D01*
X389914Y521804D01*
X389271Y521393D01*
X388638Y520966D01*
X388016Y520524D01*
X387405Y520067D01*
X386805Y519596D01*
X386217Y519109D01*
X385640Y518609D01*
X385077Y518094D01*
X384526Y517566D01*
X383988Y517025D01*
X383464Y516470D01*
X382953Y515903D01*
X382456Y515324D01*
X381974Y514732D01*
X381506Y514129D01*
X381698Y513985D01*
X382162Y514584D01*
X382641Y515170D01*
X383134Y515745D01*
X383641Y516308D01*
X384161Y516858D01*
X384695Y517395D01*
X385241Y517920D01*
X385801Y518430D01*
X386372Y518927D01*
X386956Y519409D01*
X387551Y519877D01*
X388158Y520331D01*
X388775Y520769D01*
X389403Y521193D01*
X390041Y521601D01*
X390689Y521993D01*
X391347Y522369D01*
X392013Y522729D01*
X392688Y523072D01*
X393371Y523399D01*
X394062Y523709D01*
X394760Y524003D01*
X395465Y524279D01*
X396177Y524537D01*
X396895Y524778D01*
X397618Y525002D01*
X398347Y525208D01*
X399081Y525396D01*
X399819Y525566D01*
X400561Y525718D01*
X401306Y525851D01*
X402054Y525967D01*
X402805Y526064D01*
X403559Y526142D01*
X404314Y526203D01*
X405070Y526244D01*
X405827Y526268D01*
X406584Y526272D01*
X407341Y526259D01*
X408098Y526226D01*
X408853Y526176D01*
X409607Y526106D01*
X410360Y526019D01*
X411110Y525913D01*
X411857Y525789D01*
X412600Y525646D01*
X413340Y525485D01*
X414076Y525307D01*
X414808Y525110D01*
X415534Y524896D01*
X416255Y524663D01*
X416970Y524414D01*
X417678Y524147D01*
X418380Y523862D01*
X419075Y523561D01*
X419762Y523242D01*
X420441Y522907D01*
X421112Y522556D01*
X421774Y522188D01*
X422427Y521804D01*
X423070Y521404D01*
X423703Y520989D01*
X424326Y520558D01*
X424938Y520113D01*
X425539Y519652D01*
X426129Y519177D01*
X426707Y518687D01*
X427273Y518184D01*
X427826Y517667D01*
X428366Y517136D01*
X428893Y516593D01*
X429407Y516036D01*
X429907Y515468D01*
X430393Y514887D01*
X430865Y514294D01*
X431322Y513691D01*
X431764Y513076D01*
X432191Y512450D01*
X432603Y511815D01*
X432999Y511169D01*
X433379Y510514D01*
X433743Y509850D01*
X434090Y509177D01*
X434421Y508496D01*
X434736Y507807D01*
X435033Y507110D01*
X435313Y506407D01*
X435576Y505697D01*
X435821Y504980D01*
X436049Y504258D01*
X436259Y503530D01*
X436452Y502798D01*
X436626Y502061D01*
X436782Y501320D01*
X436920Y500575D01*
X437040Y499828D01*
X437142Y499077D01*
X437225Y498324D01*
X437290Y497570D01*
X437336Y496814D01*
X437364Y496057D01*
X437373Y495300D01*
X437364Y494543D01*
X437336Y493786D01*
X437290Y493030D01*
X437225Y492276D01*
X437142Y491523D01*
X437040Y490772D01*
X436920Y490025D01*
X436782Y489280D01*
X436626Y488539D01*
X436452Y487802D01*
X436259Y487070D01*
X436049Y486342D01*
X435821Y485620D01*
X435576Y484903D01*
X435313Y484193D01*
X435033Y483490D01*
X434736Y482793D01*
X434421Y482104D01*
X434090Y481423D01*
X433743Y480750D01*
X433379Y480086D01*
X432999Y479431D01*
X432603Y478785D01*
X432191Y478150D01*
X431764Y477524D01*
X431322Y476909D01*
X430865Y476306D01*
X430393Y475713D01*
X429907Y475132D01*
X429407Y474564D01*
X428893Y474007D01*
X428366Y473464D01*
X427826Y472933D01*
X427273Y472416D01*
X426707Y471913D01*
X426129Y471423D01*
X425539Y470948D01*
X424938Y470487D01*
X424326Y470042D01*
X423703Y469611D01*
X423070Y469196D01*
X422427Y468796D01*
X421774Y468412D01*
X421112Y468044D01*
X420441Y467693D01*
X419762Y467358D01*
X419075Y467039D01*
X418380Y466738D01*
X417678Y466453D01*
X416970Y466186D01*
X416255Y465937D01*
X415534Y465704D01*
X414808Y465490D01*
X414076Y465293D01*
X413340Y465115D01*
X412600Y464954D01*
X411857Y464811D01*
X411110Y464687D01*
X410360Y464581D01*
X409607Y464494D01*
X408853Y464424D01*
X408098Y464374D01*
X407341Y464341D01*
X406584Y464328D01*
X405827Y464332D01*
X405070Y464356D01*
X404314Y464397D01*
X403559Y464458D01*
X402805Y464536D01*
X402054Y464633D01*
X401306Y464749D01*
X400561Y464882D01*
X399819Y465034D01*
X399081Y465204D01*
X398347Y465392D01*
X397618Y465598D01*
X396895Y465822D01*
X396177Y466063D01*
X395465Y466321D01*
X394760Y466597D01*
X394062Y466891D01*
X393371Y467201D01*
X392688Y467528D01*
X392013Y467871D01*
X391347Y468231D01*
X390689Y468607D01*
X390041Y468999D01*
X389403Y469407D01*
X388775Y469831D01*
X388158Y470269D01*
X387551Y470723D01*
X386956Y471191D01*
X386372Y471673D01*
X385801Y472170D01*
X385241Y472680D01*
X384695Y473205D01*
X384161Y473742D01*
X383641Y474292D01*
X383134Y474855D01*
X382641Y475430D01*
X382162Y476016D01*
X381698Y476615D01*
X381890Y476759D01*
X382351Y476165D01*
X382826Y475583D01*
X383315Y475012D01*
X383818Y474454D01*
X384334Y473908D01*
X384864Y473375D01*
X385406Y472855D01*
X385961Y472349D01*
X386528Y471856D01*
X387107Y471377D01*
X387698Y470912D01*
X388300Y470462D01*
X388913Y470027D01*
X389536Y469607D01*
X390169Y469203D01*
X390812Y468814D01*
X391464Y468441D01*
X392125Y468083D01*
X392795Y467743D01*
X393472Y467418D01*
X394158Y467110D01*
X394851Y466820D01*
X395551Y466546D01*
X396257Y466289D01*
X396969Y466050D01*
X397687Y465828D01*
X398410Y465624D01*
X399138Y465437D01*
X399870Y465269D01*
X400607Y465118D01*
X401346Y464985D01*
X402089Y464871D01*
X402834Y464775D01*
X403581Y464697D01*
X404330Y464637D01*
X405081Y464595D01*
X405832Y464572D01*
X406583Y464568D01*
X407334Y464581D01*
X408085Y464613D01*
X408835Y464664D01*
X409583Y464732D01*
X410330Y464819D01*
X411074Y464924D01*
X411815Y465048D01*
X412553Y465189D01*
X413287Y465349D01*
X414017Y465526D01*
X414743Y465721D01*
X415464Y465934D01*
X416179Y466164D01*
X416888Y466412D01*
X417591Y466677D01*
X418288Y466959D01*
X418977Y467258D01*
X419659Y467574D01*
X420333Y467907D01*
X420998Y468255D01*
X421655Y468620D01*
X422303Y469001D01*
X422941Y469398D01*
X423569Y469810D01*
X424187Y470238D01*
X424795Y470680D01*
X425391Y471137D01*
X425976Y471609D01*
X426550Y472094D01*
X427111Y472594D01*
X427660Y473107D01*
X428196Y473633D01*
X428719Y474173D01*
X429229Y474725D01*
X429725Y475289D01*
X430208Y475865D01*
X430676Y476453D01*
X431129Y477052D01*
X431568Y477662D01*
X431992Y478283D01*
X432400Y478914D01*
X432793Y479554D01*
X433170Y480204D01*
X433531Y480863D01*
X433876Y481531D01*
X434204Y482207D01*
X434516Y482890D01*
X434811Y483581D01*
X435089Y484279D01*
X435350Y484984D01*
X435593Y485695D01*
X435820Y486412D01*
X436028Y487133D01*
X436219Y487860D01*
X436392Y488591D01*
X436547Y489327D01*
X436684Y490066D01*
X436803Y490808D01*
X436904Y491552D01*
X436986Y492299D01*
X437050Y493048D01*
X437096Y493798D01*
X437124Y494549D01*
X437133Y495300D01*
X437124Y496051D01*
X437096Y496802D01*
X437050Y497552D01*
X436986Y498301D01*
X436904Y499048D01*
X436803Y499792D01*
X436684Y500534D01*
X436547Y501273D01*
X436392Y502009D01*
X436219Y502740D01*
X436028Y503467D01*
X435820Y504188D01*
X435593Y504905D01*
X435350Y505616D01*
X435089Y506321D01*
X434811Y507019D01*
X434516Y507710D01*
X434204Y508393D01*
X433876Y509069D01*
X433531Y509737D01*
X433170Y510396D01*
X432793Y511046D01*
X432400Y511686D01*
X431992Y512317D01*
X431568Y512938D01*
X431129Y513548D01*
X430676Y514147D01*
X430208Y514735D01*
X429725Y515311D01*
X429229Y515875D01*
X428719Y516427D01*
X428196Y516967D01*
X427660Y517493D01*
X427111Y518006D01*
X426550Y518506D01*
X425976Y518991D01*
X425391Y519463D01*
X424795Y519920D01*
X424187Y520362D01*
X423569Y520790D01*
X422941Y521202D01*
X422303Y521599D01*
X421655Y521980D01*
X420998Y522345D01*
X420333Y522693D01*
X419659Y523026D01*
X418977Y523342D01*
X418288Y523641D01*
X417591Y523923D01*
X416888Y524188D01*
X416179Y524436D01*
X415464Y524666D01*
X414743Y524879D01*
X414017Y525074D01*
X413287Y525251D01*
X412553Y525411D01*
X411815Y525552D01*
X411074Y525676D01*
X410330Y525781D01*
X409583Y525868D01*
X408835Y525936D01*
X408085Y525987D01*
X407334Y526019D01*
X406583Y526032D01*
X405832Y526028D01*
X405081Y526005D01*
X404330Y525963D01*
X403581Y525903D01*
X402834Y525825D01*
X402089Y525729D01*
X401346Y525615D01*
X400607Y525482D01*
X399870Y525331D01*
X399138Y525163D01*
X398410Y524976D01*
X397687Y524772D01*
X396969Y524550D01*
X396257Y524311D01*
X395551Y524054D01*
X394851Y523780D01*
X394158Y523490D01*
X393472Y523182D01*
X392795Y522857D01*
X392125Y522517D01*
X391464Y522159D01*
X390812Y521786D01*
X390169Y521397D01*
X389536Y520993D01*
X388913Y520573D01*
X388300Y520138D01*
X387698Y519688D01*
X387107Y519223D01*
X386528Y518744D01*
X385961Y518251D01*
X385406Y517745D01*
X384864Y517225D01*
X384334Y516692D01*
X383818Y516146D01*
X383315Y515588D01*
X382826Y515017D01*
X382351Y514435D01*
X381890Y513841D01*
D12*
X381000Y495300D02*
X381008Y495923D01*
X381031Y496546D01*
X381069Y497169D01*
X381122Y497790D01*
X381191Y498409D01*
X381275Y499027D01*
X381374Y499642D01*
X381488Y500255D01*
X381617Y500865D01*
X381761Y501472D01*
X381920Y502075D01*
X382094Y502673D01*
X382282Y503268D01*
X382485Y503857D01*
X382702Y504441D01*
X382933Y505020D01*
X383179Y505593D01*
X383439Y506160D01*
X383712Y506720D01*
X383999Y507273D01*
X384300Y507820D01*
X384614Y508358D01*
X384941Y508889D01*
X385281Y509411D01*
X385633Y509926D01*
X385999Y510431D01*
X386376Y510927D01*
X386766Y511414D01*
X387167Y511891D01*
X387580Y512358D01*
X388004Y512814D01*
X388439Y513261D01*
X388886Y513696D01*
X389342Y514120D01*
X389809Y514533D01*
X390286Y514934D01*
X390773Y515324D01*
X391269Y515701D01*
X391774Y516067D01*
X392289Y516419D01*
X392811Y516759D01*
X393342Y517086D01*
X393880Y517400D01*
X394427Y517701D01*
X394980Y517988D01*
X395540Y518261D01*
X396107Y518521D01*
X396680Y518767D01*
X397259Y518998D01*
X397843Y519215D01*
X398432Y519418D01*
X399027Y519606D01*
X399625Y519780D01*
X400228Y519939D01*
X400835Y520083D01*
X401445Y520212D01*
X402058Y520326D01*
X402673Y520425D01*
X403291Y520509D01*
X403910Y520578D01*
X404531Y520631D01*
X405154Y520669D01*
X405777Y520692D01*
X406400Y520700D01*
X407023Y520692D01*
X407646Y520669D01*
X408269Y520631D01*
X408890Y520578D01*
X409509Y520509D01*
X410127Y520425D01*
X410742Y520326D01*
X411355Y520212D01*
X411965Y520083D01*
X412572Y519939D01*
X413175Y519780D01*
X413773Y519606D01*
X414368Y519418D01*
X414957Y519215D01*
X415541Y518998D01*
X416120Y518767D01*
X416693Y518521D01*
X417260Y518261D01*
X417820Y517988D01*
X418373Y517701D01*
X418920Y517400D01*
X419458Y517086D01*
X419989Y516759D01*
X420511Y516419D01*
X421026Y516067D01*
X421531Y515701D01*
X422027Y515324D01*
X422514Y514934D01*
X422991Y514533D01*
X423458Y514120D01*
X423914Y513696D01*
X424361Y513261D01*
X424796Y512814D01*
X425220Y512358D01*
X425633Y511891D01*
X426034Y511414D01*
X426424Y510927D01*
X426801Y510431D01*
X427167Y509926D01*
X427519Y509411D01*
X427859Y508889D01*
X428186Y508358D01*
X428500Y507820D01*
X428801Y507273D01*
X429088Y506720D01*
X429361Y506160D01*
X429621Y505593D01*
X429867Y505020D01*
X430098Y504441D01*
X430315Y503857D01*
X430518Y503268D01*
X430706Y502673D01*
X430880Y502075D01*
X431039Y501472D01*
X431183Y500865D01*
X431312Y500255D01*
X431426Y499642D01*
X431525Y499027D01*
X431609Y498409D01*
X431678Y497790D01*
X431731Y497169D01*
X431769Y496546D01*
X431792Y495923D01*
X431800Y495300D01*
X431792Y494677D01*
X431769Y494054D01*
X431731Y493431D01*
X431678Y492810D01*
X431609Y492191D01*
X431525Y491573D01*
X431426Y490958D01*
X431312Y490345D01*
X431183Y489735D01*
X431039Y489128D01*
X430880Y488525D01*
X430706Y487927D01*
X430518Y487332D01*
X430315Y486743D01*
X430098Y486159D01*
X429867Y485580D01*
X429621Y485007D01*
X429361Y484440D01*
X429088Y483880D01*
X428801Y483327D01*
X428500Y482780D01*
X428186Y482242D01*
X427859Y481711D01*
X427519Y481189D01*
X427167Y480674D01*
X426801Y480169D01*
X426424Y479673D01*
X426034Y479186D01*
X425633Y478709D01*
X425220Y478242D01*
X424796Y477786D01*
X424361Y477339D01*
X423914Y476904D01*
X423458Y476480D01*
X422991Y476067D01*
X422514Y475666D01*
X422027Y475276D01*
X421531Y474899D01*
X421026Y474533D01*
X420511Y474181D01*
X419989Y473841D01*
X419458Y473514D01*
X418920Y473200D01*
X418373Y472899D01*
X417820Y472612D01*
X417260Y472339D01*
X416693Y472079D01*
X416120Y471833D01*
X415541Y471602D01*
X414957Y471385D01*
X414368Y471182D01*
X413773Y470994D01*
X413175Y470820D01*
X412572Y470661D01*
X411965Y470517D01*
X411355Y470388D01*
X410742Y470274D01*
X410127Y470175D01*
X409509Y470091D01*
X408890Y470022D01*
X408269Y469969D01*
X407646Y469931D01*
X407023Y469908D01*
X406400Y469900D01*
X405777Y469908D01*
X405154Y469931D01*
X404531Y469969D01*
X403910Y470022D01*
X403291Y470091D01*
X402673Y470175D01*
X402058Y470274D01*
X401445Y470388D01*
X400835Y470517D01*
X400228Y470661D01*
X399625Y470820D01*
X399027Y470994D01*
X398432Y471182D01*
X397843Y471385D01*
X397259Y471602D01*
X396680Y471833D01*
X396107Y472079D01*
X395540Y472339D01*
X394980Y472612D01*
X394427Y472899D01*
X393880Y473200D01*
X393342Y473514D01*
X392811Y473841D01*
X392289Y474181D01*
X391774Y474533D01*
X391269Y474899D01*
X390773Y475276D01*
X390286Y475666D01*
X389809Y476067D01*
X389342Y476480D01*
X388886Y476904D01*
X388439Y477339D01*
X388004Y477786D01*
X387580Y478242D01*
X387167Y478709D01*
X386766Y479186D01*
X386376Y479673D01*
X385999Y480169D01*
X385633Y480674D01*
X385281Y481189D01*
X384941Y481711D01*
X384614Y482242D01*
X384300Y482780D01*
X383999Y483327D01*
X383712Y483880D01*
X383439Y484440D01*
X383179Y485007D01*
X382933Y485580D01*
X382702Y486159D01*
X382485Y486743D01*
X382282Y487332D01*
X382094Y487927D01*
X381920Y488525D01*
X381761Y489128D01*
X381617Y489735D01*
X381488Y490345D01*
X381374Y490958D01*
X381275Y491573D01*
X381191Y492191D01*
X381122Y492810D01*
X381069Y493431D01*
X381031Y494054D01*
X381008Y494677D01*
X381000Y495300D01*
D13*
X336067Y489331D02*
X336067Y477901D01*
X341147Y477901D01*
X345973Y477901D02*
X351053Y477901D01*
X345973Y477901D02*
X345973Y489331D01*
X351053Y489331D01*
X349783Y484251D02*
X345973Y484251D01*
X355854Y489331D02*
X355854Y477901D01*
X355854Y489331D02*
X359029Y489331D01*
X359140Y489329D01*
X359250Y489323D01*
X359361Y489314D01*
X359471Y489300D01*
X359580Y489283D01*
X359689Y489262D01*
X359797Y489237D01*
X359904Y489208D01*
X360010Y489176D01*
X360115Y489140D01*
X360218Y489100D01*
X360320Y489057D01*
X360421Y489010D01*
X360520Y488959D01*
X360617Y488906D01*
X360711Y488849D01*
X360804Y488788D01*
X360895Y488725D01*
X360984Y488658D01*
X361070Y488588D01*
X361153Y488515D01*
X361235Y488440D01*
X361313Y488362D01*
X361388Y488280D01*
X361461Y488197D01*
X361531Y488111D01*
X361598Y488022D01*
X361661Y487931D01*
X361722Y487838D01*
X361779Y487744D01*
X361832Y487647D01*
X361883Y487548D01*
X361930Y487447D01*
X361973Y487345D01*
X362013Y487242D01*
X362049Y487137D01*
X362081Y487031D01*
X362110Y486924D01*
X362135Y486816D01*
X362156Y486707D01*
X362173Y486598D01*
X362187Y486488D01*
X362196Y486377D01*
X362202Y486267D01*
X362204Y486156D01*
X362204Y481076D01*
X362202Y480965D01*
X362196Y480855D01*
X362187Y480744D01*
X362173Y480634D01*
X362156Y480525D01*
X362135Y480416D01*
X362110Y480308D01*
X362081Y480201D01*
X362049Y480095D01*
X362013Y479990D01*
X361973Y479887D01*
X361930Y479785D01*
X361883Y479684D01*
X361832Y479585D01*
X361779Y479488D01*
X361722Y479394D01*
X361661Y479301D01*
X361598Y479210D01*
X361531Y479121D01*
X361461Y479035D01*
X361388Y478952D01*
X361313Y478870D01*
X361235Y478792D01*
X361153Y478717D01*
X361070Y478644D01*
X360984Y478574D01*
X360895Y478507D01*
X360804Y478444D01*
X360711Y478383D01*
X360617Y478326D01*
X360520Y478273D01*
X360421Y478222D01*
X360320Y478175D01*
X360218Y478132D01*
X360115Y478092D01*
X360010Y478056D01*
X359904Y478024D01*
X359797Y477995D01*
X359689Y477970D01*
X359580Y477949D01*
X359471Y477932D01*
X359361Y477918D01*
X359250Y477909D01*
X359140Y477903D01*
X359029Y477901D01*
X355854Y477901D01*
X371158Y489332D02*
X371262Y489330D01*
X371367Y489324D01*
X371471Y489315D01*
X371574Y489302D01*
X371677Y489284D01*
X371779Y489264D01*
X371881Y489239D01*
X371981Y489211D01*
X372081Y489179D01*
X372179Y489143D01*
X372276Y489104D01*
X372371Y489062D01*
X372465Y489016D01*
X372557Y488966D01*
X372647Y488914D01*
X372735Y488858D01*
X372821Y488798D01*
X372905Y488736D01*
X372986Y488671D01*
X373065Y488603D01*
X373142Y488531D01*
X373215Y488458D01*
X373287Y488381D01*
X373355Y488302D01*
X373420Y488221D01*
X373482Y488137D01*
X373542Y488051D01*
X373598Y487963D01*
X373650Y487873D01*
X373700Y487781D01*
X373746Y487687D01*
X373788Y487592D01*
X373827Y487495D01*
X373863Y487397D01*
X373895Y487297D01*
X373923Y487197D01*
X373948Y487095D01*
X373968Y486993D01*
X373986Y486890D01*
X373999Y486787D01*
X374008Y486683D01*
X374014Y486578D01*
X374016Y486474D01*
X371158Y489331D02*
X371040Y489329D01*
X370921Y489323D01*
X370803Y489314D01*
X370686Y489301D01*
X370569Y489283D01*
X370452Y489263D01*
X370336Y489238D01*
X370221Y489210D01*
X370108Y489177D01*
X369995Y489142D01*
X369883Y489102D01*
X369773Y489060D01*
X369664Y489013D01*
X369556Y488963D01*
X369451Y488910D01*
X369347Y488853D01*
X369245Y488793D01*
X369145Y488730D01*
X369047Y488663D01*
X368951Y488594D01*
X368858Y488521D01*
X368767Y488445D01*
X368678Y488367D01*
X368592Y488285D01*
X368509Y488201D01*
X368428Y488115D01*
X368351Y488025D01*
X368276Y487934D01*
X368204Y487840D01*
X368135Y487743D01*
X368070Y487645D01*
X368007Y487544D01*
X367948Y487441D01*
X367892Y487337D01*
X367840Y487231D01*
X367791Y487123D01*
X367746Y487014D01*
X367704Y486903D01*
X367666Y486791D01*
X373063Y484252D02*
X373139Y484327D01*
X373214Y484406D01*
X373285Y484487D01*
X373354Y484571D01*
X373419Y484657D01*
X373481Y484745D01*
X373541Y484835D01*
X373597Y484927D01*
X373650Y485022D01*
X373699Y485118D01*
X373745Y485216D01*
X373788Y485315D01*
X373827Y485416D01*
X373862Y485518D01*
X373894Y485621D01*
X373922Y485725D01*
X373947Y485830D01*
X373968Y485937D01*
X373985Y486043D01*
X373998Y486150D01*
X374007Y486258D01*
X374013Y486366D01*
X374015Y486474D01*
X373063Y484251D02*
X367665Y477901D01*
X374015Y477901D01*
D10*
X381000Y400050D02*
X381000Y361950D01*
D11*
X380162Y361163D02*
X381991Y362535D01*
X381991Y362534D02*
X382450Y361943D01*
X382923Y361363D01*
X383410Y360795D01*
X383911Y360239D01*
X384425Y359696D01*
X384952Y359165D01*
X385492Y358647D01*
X386045Y358142D01*
X386610Y357652D01*
X387187Y357175D01*
X387775Y356712D01*
X388374Y356264D01*
X388985Y355831D01*
X389605Y355412D01*
X390236Y355010D01*
X390876Y354622D01*
X391525Y354250D01*
X392184Y353895D01*
X392851Y353555D01*
X393526Y353232D01*
X394209Y352926D01*
X394899Y352636D01*
X395595Y352363D01*
X396299Y352108D01*
X397008Y351870D01*
X397723Y351649D01*
X398443Y351445D01*
X399168Y351260D01*
X399897Y351092D01*
X400631Y350942D01*
X401367Y350810D01*
X402107Y350696D01*
X402849Y350600D01*
X403593Y350522D01*
X404339Y350462D01*
X405086Y350421D01*
X405834Y350398D01*
X406583Y350394D01*
X407331Y350407D01*
X408079Y350439D01*
X408825Y350489D01*
X409570Y350558D01*
X410314Y350644D01*
X411055Y350749D01*
X411793Y350872D01*
X412528Y351013D01*
X413259Y351171D01*
X413986Y351348D01*
X414709Y351542D01*
X415427Y351754D01*
X416139Y351984D01*
X416845Y352231D01*
X417546Y352495D01*
X418239Y352776D01*
X418926Y353073D01*
X419605Y353388D01*
X420276Y353719D01*
X420939Y354066D01*
X421593Y354430D01*
X422238Y354809D01*
X422873Y355204D01*
X423499Y355615D01*
X424115Y356040D01*
X424720Y356481D01*
X425314Y356936D01*
X425896Y357406D01*
X426467Y357890D01*
X427026Y358387D01*
X427573Y358898D01*
X428107Y359422D01*
X428628Y359959D01*
X429136Y360509D01*
X429630Y361071D01*
X430110Y361645D01*
X430576Y362230D01*
X431028Y362827D01*
X431465Y363435D01*
X431887Y364053D01*
X432294Y364681D01*
X432685Y365319D01*
X433060Y365966D01*
X433420Y366622D01*
X433763Y367287D01*
X434090Y367960D01*
X434401Y368641D01*
X434695Y369329D01*
X434971Y370025D01*
X435231Y370726D01*
X435474Y371434D01*
X435699Y372148D01*
X435907Y372867D01*
X436097Y373591D01*
X436269Y374319D01*
X436423Y375051D01*
X436560Y375787D01*
X436678Y376526D01*
X436779Y377268D01*
X436861Y378011D01*
X436925Y378757D01*
X436970Y379504D01*
X436998Y380252D01*
X437007Y381000D01*
X436998Y381748D01*
X436970Y382496D01*
X436925Y383243D01*
X436861Y383989D01*
X436779Y384732D01*
X436678Y385474D01*
X436560Y386213D01*
X436423Y386949D01*
X436269Y387681D01*
X436097Y388409D01*
X435907Y389133D01*
X435699Y389852D01*
X435474Y390566D01*
X435231Y391274D01*
X434971Y391975D01*
X434695Y392671D01*
X434401Y393359D01*
X434090Y394040D01*
X433763Y394713D01*
X433420Y395378D01*
X433060Y396034D01*
X432685Y396681D01*
X432294Y397319D01*
X431887Y397947D01*
X431465Y398565D01*
X431028Y399173D01*
X430576Y399770D01*
X430110Y400355D01*
X429630Y400929D01*
X429136Y401491D01*
X428628Y402041D01*
X428107Y402578D01*
X427573Y403102D01*
X427026Y403613D01*
X426467Y404110D01*
X425896Y404594D01*
X425314Y405064D01*
X424720Y405519D01*
X424115Y405960D01*
X423499Y406385D01*
X422873Y406796D01*
X422238Y407191D01*
X421593Y407570D01*
X420939Y407934D01*
X420276Y408281D01*
X419605Y408612D01*
X418926Y408927D01*
X418239Y409224D01*
X417546Y409505D01*
X416845Y409769D01*
X416139Y410016D01*
X415427Y410246D01*
X414709Y410458D01*
X413986Y410652D01*
X413259Y410829D01*
X412528Y410987D01*
X411793Y411128D01*
X411055Y411251D01*
X410314Y411356D01*
X409570Y411442D01*
X408825Y411511D01*
X408079Y411561D01*
X407331Y411593D01*
X406583Y411606D01*
X405834Y411602D01*
X405086Y411579D01*
X404339Y411538D01*
X403593Y411478D01*
X402849Y411400D01*
X402107Y411304D01*
X401367Y411190D01*
X400631Y411058D01*
X399897Y410908D01*
X399168Y410740D01*
X398443Y410555D01*
X397723Y410351D01*
X397008Y410130D01*
X396299Y409892D01*
X395595Y409637D01*
X394899Y409364D01*
X394209Y409074D01*
X393526Y408768D01*
X392851Y408445D01*
X392184Y408105D01*
X391525Y407750D01*
X390876Y407378D01*
X390236Y406990D01*
X389605Y406588D01*
X388985Y406169D01*
X388374Y405736D01*
X387775Y405288D01*
X387187Y404825D01*
X386610Y404348D01*
X386045Y403858D01*
X385492Y403353D01*
X384952Y402835D01*
X384425Y402304D01*
X383911Y401761D01*
X383410Y401205D01*
X382923Y400637D01*
X382450Y400057D01*
X381991Y399466D01*
X380162Y400837D01*
X380655Y401473D01*
X381163Y402096D01*
X381687Y402707D01*
X382225Y403305D01*
X382777Y403889D01*
X383344Y404460D01*
X383924Y405017D01*
X384518Y405559D01*
X385125Y406087D01*
X385745Y406599D01*
X386377Y407097D01*
X387021Y407579D01*
X387677Y408044D01*
X388344Y408494D01*
X389022Y408927D01*
X389710Y409344D01*
X390408Y409744D01*
X391115Y410126D01*
X391832Y410491D01*
X392557Y410838D01*
X393291Y411168D01*
X394033Y411479D01*
X394782Y411773D01*
X395537Y412048D01*
X396300Y412304D01*
X397068Y412542D01*
X397842Y412760D01*
X398621Y412960D01*
X399405Y413141D01*
X400193Y413302D01*
X400985Y413444D01*
X401780Y413567D01*
X402577Y413670D01*
X403377Y413754D01*
X404179Y413818D01*
X404982Y413862D01*
X405786Y413887D01*
X406590Y413892D01*
X407395Y413878D01*
X408198Y413844D01*
X409001Y413790D01*
X409802Y413717D01*
X410601Y413624D01*
X411397Y413511D01*
X412190Y413379D01*
X412980Y413228D01*
X413766Y413058D01*
X414548Y412868D01*
X415325Y412659D01*
X416096Y412431D01*
X416862Y412185D01*
X417621Y411920D01*
X418374Y411636D01*
X419119Y411334D01*
X419857Y411014D01*
X420587Y410676D01*
X421309Y410320D01*
X422021Y409947D01*
X422724Y409556D01*
X423417Y409149D01*
X424101Y408724D01*
X424773Y408283D01*
X425435Y407826D01*
X426085Y407352D01*
X426723Y406863D01*
X427350Y406359D01*
X427964Y405839D01*
X428564Y405304D01*
X429152Y404755D01*
X429726Y404191D01*
X430286Y403614D01*
X430832Y403023D01*
X431363Y402419D01*
X431879Y401803D01*
X432380Y401173D01*
X432866Y400532D01*
X433336Y399879D01*
X433789Y399215D01*
X434226Y398540D01*
X434647Y397854D01*
X435051Y397159D01*
X435437Y396453D01*
X435806Y395739D01*
X436158Y395015D01*
X436492Y394283D01*
X436807Y393544D01*
X437105Y392796D01*
X437384Y392042D01*
X437645Y391281D01*
X437887Y390514D01*
X438110Y389741D01*
X438314Y388963D01*
X438500Y388181D01*
X438666Y387394D01*
X438812Y386603D01*
X438940Y385809D01*
X439047Y385012D01*
X439136Y384212D01*
X439205Y383411D01*
X439254Y382608D01*
X439283Y381804D01*
X439293Y381000D01*
X439283Y380196D01*
X439254Y379392D01*
X439205Y378589D01*
X439136Y377788D01*
X439047Y376988D01*
X438940Y376191D01*
X438812Y375397D01*
X438666Y374606D01*
X438500Y373819D01*
X438314Y373037D01*
X438110Y372259D01*
X437887Y371486D01*
X437645Y370719D01*
X437384Y369958D01*
X437105Y369204D01*
X436807Y368456D01*
X436492Y367717D01*
X436158Y366985D01*
X435806Y366261D01*
X435437Y365547D01*
X435051Y364841D01*
X434647Y364146D01*
X434226Y363460D01*
X433789Y362785D01*
X433336Y362121D01*
X432866Y361468D01*
X432380Y360827D01*
X431879Y360197D01*
X431363Y359581D01*
X430832Y358977D01*
X430286Y358386D01*
X429726Y357809D01*
X429152Y357245D01*
X428564Y356696D01*
X427964Y356161D01*
X427350Y355641D01*
X426723Y355137D01*
X426085Y354648D01*
X425435Y354174D01*
X424773Y353717D01*
X424101Y353276D01*
X423417Y352851D01*
X422724Y352444D01*
X422021Y352053D01*
X421309Y351680D01*
X420587Y351324D01*
X419857Y350986D01*
X419119Y350666D01*
X418374Y350364D01*
X417621Y350080D01*
X416862Y349815D01*
X416096Y349569D01*
X415325Y349341D01*
X414548Y349132D01*
X413766Y348942D01*
X412980Y348772D01*
X412190Y348621D01*
X411397Y348489D01*
X410601Y348376D01*
X409802Y348283D01*
X409001Y348210D01*
X408198Y348156D01*
X407395Y348122D01*
X406590Y348108D01*
X405786Y348113D01*
X404982Y348138D01*
X404179Y348182D01*
X403377Y348246D01*
X402577Y348330D01*
X401780Y348433D01*
X400985Y348556D01*
X400193Y348698D01*
X399405Y348859D01*
X398621Y349040D01*
X397842Y349240D01*
X397068Y349458D01*
X396300Y349696D01*
X395537Y349952D01*
X394782Y350227D01*
X394033Y350521D01*
X393291Y350832D01*
X392557Y351162D01*
X391832Y351509D01*
X391115Y351874D01*
X390408Y352256D01*
X389710Y352656D01*
X389022Y353073D01*
X388344Y353506D01*
X387677Y353956D01*
X387021Y354421D01*
X386377Y354903D01*
X385745Y355401D01*
X385125Y355913D01*
X384518Y356441D01*
X383924Y356983D01*
X383344Y357540D01*
X382777Y358111D01*
X382225Y358695D01*
X381687Y359293D01*
X381163Y359904D01*
X380655Y360527D01*
X380162Y361163D01*
X380354Y361307D01*
X380843Y360676D01*
X381348Y360057D01*
X381867Y359451D01*
X382402Y358857D01*
X382950Y358277D01*
X383513Y357711D01*
X384089Y357158D01*
X384679Y356620D01*
X385281Y356096D01*
X385897Y355587D01*
X386524Y355093D01*
X387163Y354615D01*
X387814Y354152D01*
X388476Y353706D01*
X389149Y353276D01*
X389832Y352862D01*
X390525Y352466D01*
X391227Y352086D01*
X391939Y351724D01*
X392659Y351379D01*
X393387Y351052D01*
X394124Y350743D01*
X394867Y350452D01*
X395617Y350179D01*
X396374Y349924D01*
X397137Y349688D01*
X397905Y349471D01*
X398679Y349273D01*
X399457Y349094D01*
X400239Y348933D01*
X401025Y348792D01*
X401814Y348671D01*
X402606Y348568D01*
X403400Y348485D01*
X404196Y348421D01*
X404993Y348377D01*
X405791Y348353D01*
X406590Y348348D01*
X407388Y348362D01*
X408186Y348396D01*
X408982Y348449D01*
X409777Y348522D01*
X410570Y348614D01*
X411361Y348726D01*
X412149Y348857D01*
X412933Y349007D01*
X413713Y349176D01*
X414489Y349365D01*
X415260Y349572D01*
X416026Y349798D01*
X416786Y350043D01*
X417540Y350306D01*
X418287Y350588D01*
X419027Y350887D01*
X419760Y351205D01*
X420484Y351541D01*
X421200Y351894D01*
X421907Y352264D01*
X422605Y352652D01*
X423294Y353057D01*
X423972Y353478D01*
X424639Y353916D01*
X425296Y354370D01*
X425942Y354840D01*
X426575Y355326D01*
X427197Y355827D01*
X427806Y356343D01*
X428403Y356873D01*
X428986Y357419D01*
X429556Y357978D01*
X430112Y358551D01*
X430654Y359138D01*
X431181Y359737D01*
X431694Y360349D01*
X432191Y360974D01*
X432673Y361611D01*
X433139Y362259D01*
X433589Y362918D01*
X434023Y363588D01*
X434441Y364269D01*
X434842Y364960D01*
X435225Y365660D01*
X435592Y366369D01*
X435941Y367087D01*
X436272Y367814D01*
X436586Y368548D01*
X436881Y369290D01*
X437158Y370039D01*
X437417Y370794D01*
X437657Y371555D01*
X437879Y372322D01*
X438082Y373095D01*
X438265Y373872D01*
X438430Y374653D01*
X438576Y375438D01*
X438702Y376226D01*
X438809Y377018D01*
X438897Y377811D01*
X438965Y378607D01*
X439014Y379404D01*
X439043Y380202D01*
X439053Y381000D01*
X439043Y381798D01*
X439014Y382596D01*
X438965Y383393D01*
X438897Y384189D01*
X438809Y384982D01*
X438702Y385774D01*
X438576Y386562D01*
X438430Y387347D01*
X438265Y388128D01*
X438082Y388905D01*
X437879Y389678D01*
X437657Y390445D01*
X437417Y391206D01*
X437158Y391961D01*
X436881Y392710D01*
X436586Y393452D01*
X436272Y394186D01*
X435941Y394913D01*
X435592Y395631D01*
X435225Y396340D01*
X434842Y397040D01*
X434441Y397731D01*
X434023Y398412D01*
X433589Y399082D01*
X433139Y399741D01*
X432673Y400389D01*
X432191Y401026D01*
X431694Y401651D01*
X431181Y402263D01*
X430654Y402862D01*
X430112Y403449D01*
X429556Y404022D01*
X428986Y404581D01*
X428403Y405127D01*
X427806Y405657D01*
X427197Y406173D01*
X426575Y406674D01*
X425942Y407160D01*
X425296Y407630D01*
X424639Y408084D01*
X423972Y408522D01*
X423294Y408943D01*
X422605Y409348D01*
X421907Y409736D01*
X421200Y410106D01*
X420484Y410459D01*
X419760Y410795D01*
X419027Y411113D01*
X418287Y411412D01*
X417540Y411694D01*
X416786Y411957D01*
X416026Y412202D01*
X415260Y412428D01*
X414489Y412635D01*
X413713Y412824D01*
X412933Y412993D01*
X412149Y413143D01*
X411361Y413274D01*
X410570Y413386D01*
X409777Y413478D01*
X408982Y413551D01*
X408186Y413604D01*
X407388Y413638D01*
X406590Y413652D01*
X405791Y413647D01*
X404993Y413623D01*
X404196Y413579D01*
X403400Y413515D01*
X402606Y413432D01*
X401814Y413329D01*
X401025Y413208D01*
X400239Y413067D01*
X399457Y412906D01*
X398679Y412727D01*
X397905Y412529D01*
X397137Y412312D01*
X396374Y412076D01*
X395617Y411821D01*
X394867Y411548D01*
X394124Y411257D01*
X393387Y410948D01*
X392659Y410621D01*
X391939Y410276D01*
X391227Y409914D01*
X390525Y409534D01*
X389832Y409138D01*
X389149Y408724D01*
X388476Y408294D01*
X387814Y407848D01*
X387163Y407385D01*
X386524Y406907D01*
X385897Y406413D01*
X385281Y405904D01*
X384679Y405380D01*
X384089Y404842D01*
X383513Y404289D01*
X382950Y403723D01*
X382402Y403143D01*
X381867Y402549D01*
X381348Y401943D01*
X380843Y401324D01*
X380354Y400693D01*
X380546Y400549D01*
X381032Y401176D01*
X381533Y401790D01*
X382048Y402392D01*
X382579Y402981D01*
X383123Y403556D01*
X383682Y404119D01*
X384254Y404667D01*
X384839Y405202D01*
X385437Y405722D01*
X386048Y406227D01*
X386671Y406717D01*
X387305Y407192D01*
X387952Y407651D01*
X388609Y408094D01*
X389276Y408521D01*
X389955Y408931D01*
X390642Y409325D01*
X391340Y409702D01*
X392046Y410061D01*
X392761Y410404D01*
X393484Y410728D01*
X394214Y411035D01*
X394952Y411324D01*
X395697Y411595D01*
X396449Y411848D01*
X397206Y412082D01*
X397968Y412297D01*
X398736Y412494D01*
X399509Y412672D01*
X400285Y412831D01*
X401065Y412971D01*
X401848Y413092D01*
X402634Y413194D01*
X403423Y413276D01*
X404213Y413339D01*
X405004Y413383D01*
X405796Y413407D01*
X406589Y413412D01*
X407381Y413398D01*
X408173Y413364D01*
X408964Y413311D01*
X409753Y413239D01*
X410540Y413147D01*
X411325Y413037D01*
X412107Y412907D01*
X412885Y412758D01*
X413660Y412589D01*
X414430Y412403D01*
X415196Y412197D01*
X415956Y411972D01*
X416710Y411730D01*
X417458Y411468D01*
X418200Y411189D01*
X418935Y410891D01*
X419662Y410576D01*
X420381Y410243D01*
X421092Y409892D01*
X421794Y409524D01*
X422487Y409139D01*
X423170Y408738D01*
X423843Y408319D01*
X424506Y407885D01*
X425158Y407434D01*
X425798Y406967D01*
X426427Y406485D01*
X427045Y405988D01*
X427649Y405476D01*
X428241Y404949D01*
X428820Y404408D01*
X429386Y403853D01*
X429938Y403284D01*
X430476Y402702D01*
X430999Y402106D01*
X431508Y401499D01*
X432002Y400879D01*
X432480Y400247D01*
X432943Y399603D01*
X433390Y398949D01*
X433820Y398284D01*
X434235Y397608D01*
X434633Y396922D01*
X435013Y396227D01*
X435377Y395523D01*
X435724Y394810D01*
X436053Y394089D01*
X436364Y393360D01*
X436657Y392624D01*
X436932Y391881D01*
X437189Y391131D01*
X437428Y390375D01*
X437648Y389614D01*
X437849Y388847D01*
X438031Y388076D01*
X438195Y387300D01*
X438339Y386521D01*
X438465Y385738D01*
X438571Y384953D01*
X438658Y384165D01*
X438726Y383376D01*
X438774Y382585D01*
X438803Y381793D01*
X438813Y381000D01*
X438803Y380207D01*
X438774Y379415D01*
X438726Y378624D01*
X438658Y377835D01*
X438571Y377047D01*
X438465Y376262D01*
X438339Y375479D01*
X438195Y374700D01*
X438031Y373924D01*
X437849Y373153D01*
X437648Y372386D01*
X437428Y371625D01*
X437189Y370869D01*
X436932Y370119D01*
X436657Y369376D01*
X436364Y368640D01*
X436053Y367911D01*
X435724Y367190D01*
X435377Y366477D01*
X435013Y365773D01*
X434633Y365078D01*
X434235Y364392D01*
X433820Y363716D01*
X433390Y363051D01*
X432943Y362397D01*
X432480Y361753D01*
X432002Y361121D01*
X431508Y360501D01*
X430999Y359894D01*
X430476Y359298D01*
X429938Y358716D01*
X429386Y358147D01*
X428820Y357592D01*
X428241Y357051D01*
X427649Y356524D01*
X427045Y356012D01*
X426427Y355515D01*
X425798Y355033D01*
X425158Y354566D01*
X424506Y354115D01*
X423843Y353681D01*
X423170Y353262D01*
X422487Y352861D01*
X421794Y352476D01*
X421092Y352108D01*
X420381Y351757D01*
X419662Y351424D01*
X418935Y351109D01*
X418200Y350811D01*
X417458Y350532D01*
X416710Y350270D01*
X415956Y350028D01*
X415196Y349803D01*
X414430Y349597D01*
X413660Y349411D01*
X412885Y349242D01*
X412107Y349093D01*
X411325Y348963D01*
X410540Y348853D01*
X409753Y348761D01*
X408964Y348689D01*
X408173Y348636D01*
X407381Y348602D01*
X406589Y348588D01*
X405796Y348593D01*
X405004Y348617D01*
X404213Y348661D01*
X403423Y348724D01*
X402634Y348806D01*
X401848Y348908D01*
X401065Y349029D01*
X400285Y349169D01*
X399509Y349328D01*
X398736Y349506D01*
X397968Y349703D01*
X397206Y349918D01*
X396449Y350152D01*
X395697Y350405D01*
X394952Y350676D01*
X394214Y350965D01*
X393484Y351272D01*
X392761Y351596D01*
X392046Y351939D01*
X391340Y352298D01*
X390642Y352675D01*
X389955Y353069D01*
X389276Y353479D01*
X388609Y353906D01*
X387952Y354349D01*
X387305Y354808D01*
X386671Y355283D01*
X386048Y355773D01*
X385437Y356278D01*
X384839Y356798D01*
X384254Y357333D01*
X383682Y357881D01*
X383123Y358444D01*
X382579Y359019D01*
X382048Y359608D01*
X381533Y360210D01*
X381032Y360824D01*
X380546Y361451D01*
X380738Y361595D01*
X381220Y360973D01*
X381717Y360363D01*
X382229Y359766D01*
X382756Y359182D01*
X383296Y358610D01*
X383851Y358052D01*
X384418Y357507D01*
X384999Y356977D01*
X385593Y356461D01*
X386199Y355959D01*
X386818Y355473D01*
X387448Y355002D01*
X388089Y354546D01*
X388741Y354106D01*
X389404Y353683D01*
X390077Y353275D01*
X390760Y352884D01*
X391452Y352510D01*
X392153Y352154D01*
X392862Y351814D01*
X393580Y351492D01*
X394305Y351187D01*
X395038Y350900D01*
X395777Y350631D01*
X396523Y350381D01*
X397275Y350148D01*
X398032Y349934D01*
X398794Y349739D01*
X399560Y349562D01*
X400331Y349405D01*
X401105Y349266D01*
X401883Y349146D01*
X402663Y349045D01*
X403445Y348963D01*
X404230Y348900D01*
X405015Y348857D01*
X405801Y348833D01*
X406588Y348828D01*
X407375Y348842D01*
X408161Y348875D01*
X408945Y348928D01*
X409729Y349000D01*
X410510Y349091D01*
X411289Y349201D01*
X412065Y349330D01*
X412838Y349478D01*
X413607Y349645D01*
X414371Y349830D01*
X415131Y350034D01*
X415885Y350257D01*
X416634Y350498D01*
X417377Y350757D01*
X418113Y351035D01*
X418842Y351330D01*
X419564Y351643D01*
X420278Y351974D01*
X420983Y352322D01*
X421680Y352687D01*
X422368Y353069D01*
X423046Y353468D01*
X423714Y353883D01*
X424372Y354315D01*
X425019Y354762D01*
X425655Y355225D01*
X426279Y355704D01*
X426892Y356197D01*
X427492Y356706D01*
X428080Y357229D01*
X428655Y357766D01*
X429216Y358317D01*
X429764Y358881D01*
X430298Y359459D01*
X430817Y360050D01*
X431322Y360653D01*
X431812Y361269D01*
X432287Y361896D01*
X432746Y362535D01*
X433190Y363184D01*
X433618Y363845D01*
X434029Y364515D01*
X434424Y365196D01*
X434802Y365886D01*
X435163Y366585D01*
X435507Y367292D01*
X435833Y368008D01*
X436142Y368731D01*
X436433Y369462D01*
X436706Y370200D01*
X436961Y370944D01*
X437198Y371694D01*
X437416Y372450D01*
X437616Y373211D01*
X437797Y373977D01*
X437959Y374746D01*
X438103Y375520D01*
X438227Y376297D01*
X438333Y377076D01*
X438419Y377858D01*
X438486Y378642D01*
X438535Y379427D01*
X438563Y380213D01*
X438573Y381000D01*
X438563Y381787D01*
X438535Y382573D01*
X438486Y383358D01*
X438419Y384142D01*
X438333Y384924D01*
X438227Y385703D01*
X438103Y386480D01*
X437959Y387254D01*
X437797Y388023D01*
X437616Y388789D01*
X437416Y389550D01*
X437198Y390306D01*
X436961Y391056D01*
X436706Y391800D01*
X436433Y392538D01*
X436142Y393269D01*
X435833Y393992D01*
X435507Y394708D01*
X435163Y395415D01*
X434802Y396114D01*
X434424Y396804D01*
X434029Y397485D01*
X433618Y398155D01*
X433190Y398816D01*
X432746Y399465D01*
X432287Y400104D01*
X431812Y400731D01*
X431322Y401347D01*
X430817Y401950D01*
X430298Y402541D01*
X429764Y403119D01*
X429216Y403683D01*
X428655Y404234D01*
X428080Y404771D01*
X427492Y405294D01*
X426892Y405803D01*
X426279Y406296D01*
X425655Y406775D01*
X425019Y407238D01*
X424372Y407685D01*
X423714Y408117D01*
X423046Y408532D01*
X422368Y408931D01*
X421680Y409313D01*
X420983Y409678D01*
X420278Y410026D01*
X419564Y410357D01*
X418842Y410670D01*
X418113Y410965D01*
X417377Y411243D01*
X416634Y411502D01*
X415885Y411743D01*
X415131Y411966D01*
X414371Y412170D01*
X413607Y412355D01*
X412838Y412522D01*
X412065Y412670D01*
X411289Y412799D01*
X410510Y412909D01*
X409729Y413000D01*
X408945Y413072D01*
X408161Y413125D01*
X407375Y413158D01*
X406588Y413172D01*
X405801Y413167D01*
X405015Y413143D01*
X404230Y413100D01*
X403445Y413037D01*
X402663Y412955D01*
X401883Y412854D01*
X401105Y412734D01*
X400331Y412595D01*
X399560Y412438D01*
X398794Y412261D01*
X398032Y412066D01*
X397275Y411852D01*
X396523Y411619D01*
X395777Y411369D01*
X395038Y411100D01*
X394305Y410813D01*
X393580Y410508D01*
X392862Y410186D01*
X392153Y409846D01*
X391452Y409490D01*
X390760Y409116D01*
X390077Y408725D01*
X389404Y408317D01*
X388741Y407894D01*
X388089Y407454D01*
X387448Y406998D01*
X386818Y406527D01*
X386199Y406041D01*
X385593Y405539D01*
X384999Y405023D01*
X384418Y404493D01*
X383851Y403948D01*
X383296Y403390D01*
X382756Y402818D01*
X382229Y402234D01*
X381717Y401637D01*
X381220Y401027D01*
X380738Y400405D01*
X380930Y400261D01*
X381409Y400878D01*
X381902Y401483D01*
X382410Y402076D01*
X382933Y402656D01*
X383469Y403224D01*
X384019Y403778D01*
X384583Y404318D01*
X385160Y404845D01*
X385749Y405357D01*
X386351Y405854D01*
X386964Y406337D01*
X387590Y406805D01*
X388226Y407257D01*
X388874Y407693D01*
X389531Y408114D01*
X390199Y408518D01*
X390877Y408906D01*
X391564Y409277D01*
X392260Y409632D01*
X392964Y409969D01*
X393676Y410289D01*
X394396Y410591D01*
X395123Y410876D01*
X395857Y411142D01*
X396597Y411391D01*
X397343Y411622D01*
X398095Y411834D01*
X398851Y412028D01*
X399612Y412203D01*
X400377Y412360D01*
X401145Y412498D01*
X401917Y412617D01*
X402691Y412717D01*
X403468Y412798D01*
X404246Y412860D01*
X405026Y412903D01*
X405806Y412927D01*
X406587Y412932D01*
X407368Y412918D01*
X408148Y412885D01*
X408927Y412833D01*
X409705Y412762D01*
X410480Y412671D01*
X411253Y412562D01*
X412024Y412434D01*
X412790Y412287D01*
X413553Y412121D01*
X414312Y411937D01*
X415066Y411735D01*
X415815Y411513D01*
X416558Y411274D01*
X417295Y411017D01*
X418026Y410741D01*
X418750Y410448D01*
X419466Y410137D01*
X420175Y409809D01*
X420875Y409464D01*
X421566Y409101D01*
X422249Y408722D01*
X422922Y408326D01*
X423585Y407914D01*
X424238Y407486D01*
X424880Y407042D01*
X425512Y406582D01*
X426131Y406108D01*
X426739Y405618D01*
X427335Y405113D01*
X427918Y404594D01*
X428489Y404061D01*
X429046Y403514D01*
X429590Y402953D01*
X430120Y402380D01*
X430635Y401793D01*
X431136Y401195D01*
X431623Y400584D01*
X432094Y399961D01*
X432550Y399327D01*
X432990Y398683D01*
X433415Y398027D01*
X433823Y397362D01*
X434215Y396686D01*
X434590Y396001D01*
X434948Y395308D01*
X435290Y394606D01*
X435614Y393895D01*
X435920Y393177D01*
X436209Y392452D01*
X436480Y391719D01*
X436733Y390981D01*
X436968Y390236D01*
X437185Y389486D01*
X437383Y388731D01*
X437563Y387971D01*
X437724Y387207D01*
X437866Y386439D01*
X437990Y385668D01*
X438095Y384894D01*
X438180Y384118D01*
X438247Y383340D01*
X438295Y382561D01*
X438323Y381781D01*
X438333Y381000D01*
X438323Y380219D01*
X438295Y379439D01*
X438247Y378660D01*
X438180Y377882D01*
X438095Y377106D01*
X437990Y376332D01*
X437866Y375561D01*
X437724Y374793D01*
X437563Y374029D01*
X437383Y373269D01*
X437185Y372514D01*
X436968Y371764D01*
X436733Y371019D01*
X436480Y370281D01*
X436209Y369548D01*
X435920Y368823D01*
X435614Y368105D01*
X435290Y367394D01*
X434948Y366692D01*
X434590Y365999D01*
X434215Y365314D01*
X433823Y364638D01*
X433415Y363973D01*
X432990Y363317D01*
X432550Y362673D01*
X432094Y362039D01*
X431623Y361416D01*
X431136Y360805D01*
X430635Y360207D01*
X430120Y359620D01*
X429590Y359047D01*
X429046Y358486D01*
X428489Y357939D01*
X427918Y357406D01*
X427335Y356887D01*
X426739Y356382D01*
X426131Y355892D01*
X425512Y355418D01*
X424880Y354958D01*
X424238Y354514D01*
X423585Y354086D01*
X422922Y353674D01*
X422249Y353278D01*
X421566Y352899D01*
X420875Y352536D01*
X420175Y352191D01*
X419466Y351863D01*
X418750Y351552D01*
X418026Y351259D01*
X417295Y350983D01*
X416558Y350726D01*
X415815Y350487D01*
X415066Y350265D01*
X414312Y350063D01*
X413553Y349879D01*
X412790Y349713D01*
X412024Y349566D01*
X411253Y349438D01*
X410480Y349329D01*
X409705Y349238D01*
X408927Y349167D01*
X408148Y349115D01*
X407368Y349082D01*
X406587Y349068D01*
X405806Y349073D01*
X405026Y349097D01*
X404246Y349140D01*
X403468Y349202D01*
X402691Y349283D01*
X401917Y349383D01*
X401145Y349502D01*
X400377Y349640D01*
X399612Y349797D01*
X398851Y349972D01*
X398095Y350166D01*
X397343Y350378D01*
X396597Y350609D01*
X395857Y350858D01*
X395123Y351124D01*
X394396Y351409D01*
X393676Y351711D01*
X392964Y352031D01*
X392260Y352368D01*
X391564Y352723D01*
X390877Y353094D01*
X390199Y353482D01*
X389531Y353886D01*
X388874Y354307D01*
X388226Y354743D01*
X387590Y355195D01*
X386964Y355663D01*
X386351Y356146D01*
X385749Y356643D01*
X385160Y357155D01*
X384583Y357682D01*
X384019Y358222D01*
X383469Y358776D01*
X382933Y359344D01*
X382410Y359924D01*
X381902Y360517D01*
X381409Y361122D01*
X380930Y361739D01*
X381122Y361883D01*
X381597Y361270D01*
X382087Y360670D01*
X382591Y360082D01*
X383110Y359506D01*
X383642Y358943D01*
X384188Y358393D01*
X384748Y357857D01*
X385320Y357334D01*
X385905Y356826D01*
X386502Y356332D01*
X387111Y355853D01*
X387732Y355389D01*
X388363Y354940D01*
X389006Y354507D01*
X389659Y354089D01*
X390322Y353688D01*
X390994Y353303D01*
X391676Y352935D01*
X392367Y352583D01*
X393066Y352249D01*
X393773Y351931D01*
X394487Y351631D01*
X395209Y351349D01*
X395937Y351084D01*
X396672Y350837D01*
X397412Y350608D01*
X398158Y350398D01*
X398908Y350205D01*
X399664Y350031D01*
X400423Y349876D01*
X401186Y349739D01*
X401951Y349621D01*
X402720Y349521D01*
X403491Y349441D01*
X404263Y349379D01*
X405037Y349336D01*
X405811Y349312D01*
X406586Y349308D01*
X407361Y349322D01*
X408135Y349355D01*
X408909Y349406D01*
X409680Y349477D01*
X410450Y349567D01*
X411217Y349675D01*
X411982Y349802D01*
X412743Y349948D01*
X413500Y350113D01*
X414253Y350295D01*
X415002Y350497D01*
X415745Y350716D01*
X416482Y350954D01*
X417214Y351209D01*
X417939Y351482D01*
X418657Y351773D01*
X419368Y352082D01*
X420071Y352407D01*
X420766Y352750D01*
X421453Y353110D01*
X422130Y353486D01*
X422798Y353879D01*
X423456Y354288D01*
X424104Y354713D01*
X424742Y355154D01*
X425368Y355610D01*
X425983Y356081D01*
X426587Y356568D01*
X427178Y357068D01*
X427757Y357584D01*
X428323Y358113D01*
X428876Y358656D01*
X429416Y359212D01*
X429942Y359781D01*
X430453Y360363D01*
X430951Y360957D01*
X431433Y361564D01*
X431901Y362181D01*
X432354Y362810D01*
X432791Y363450D01*
X433212Y364101D01*
X433617Y364762D01*
X434006Y365432D01*
X434378Y366111D01*
X434734Y366800D01*
X435073Y367497D01*
X435394Y368202D01*
X435698Y368915D01*
X435985Y369635D01*
X436254Y370361D01*
X436505Y371094D01*
X436738Y371833D01*
X436953Y372578D01*
X437150Y373327D01*
X437329Y374082D01*
X437489Y374840D01*
X437630Y375602D01*
X437753Y376367D01*
X437856Y377135D01*
X437942Y377905D01*
X438008Y378677D01*
X438055Y379451D01*
X438084Y380225D01*
X438093Y381000D01*
X438084Y381775D01*
X438055Y382549D01*
X438008Y383323D01*
X437942Y384095D01*
X437856Y384865D01*
X437753Y385633D01*
X437630Y386398D01*
X437489Y387160D01*
X437329Y387918D01*
X437150Y388673D01*
X436953Y389422D01*
X436738Y390167D01*
X436505Y390906D01*
X436254Y391639D01*
X435985Y392365D01*
X435698Y393085D01*
X435394Y393798D01*
X435073Y394503D01*
X434734Y395200D01*
X434378Y395889D01*
X434006Y396568D01*
X433617Y397238D01*
X433212Y397899D01*
X432791Y398550D01*
X432354Y399190D01*
X431901Y399819D01*
X431433Y400436D01*
X430951Y401043D01*
X430453Y401637D01*
X429942Y402219D01*
X429416Y402788D01*
X428876Y403344D01*
X428323Y403887D01*
X427757Y404416D01*
X427178Y404932D01*
X426587Y405432D01*
X425983Y405919D01*
X425368Y406390D01*
X424742Y406846D01*
X424104Y407287D01*
X423456Y407712D01*
X422798Y408121D01*
X422130Y408514D01*
X421453Y408890D01*
X420766Y409250D01*
X420071Y409593D01*
X419368Y409918D01*
X418657Y410227D01*
X417939Y410518D01*
X417214Y410791D01*
X416482Y411046D01*
X415745Y411284D01*
X415002Y411503D01*
X414253Y411705D01*
X413500Y411887D01*
X412743Y412052D01*
X411982Y412198D01*
X411217Y412325D01*
X410450Y412433D01*
X409680Y412523D01*
X408909Y412594D01*
X408135Y412645D01*
X407361Y412678D01*
X406586Y412692D01*
X405811Y412688D01*
X405037Y412664D01*
X404263Y412621D01*
X403491Y412559D01*
X402720Y412479D01*
X401951Y412379D01*
X401186Y412261D01*
X400423Y412124D01*
X399664Y411969D01*
X398908Y411795D01*
X398158Y411602D01*
X397412Y411392D01*
X396672Y411163D01*
X395937Y410916D01*
X395209Y410651D01*
X394487Y410369D01*
X393773Y410069D01*
X393066Y409751D01*
X392367Y409417D01*
X391676Y409065D01*
X390994Y408697D01*
X390322Y408312D01*
X389659Y407911D01*
X389006Y407493D01*
X388363Y407060D01*
X387732Y406611D01*
X387111Y406147D01*
X386502Y405668D01*
X385905Y405174D01*
X385320Y404666D01*
X384748Y404143D01*
X384188Y403607D01*
X383642Y403057D01*
X383110Y402494D01*
X382591Y401918D01*
X382087Y401330D01*
X381597Y400730D01*
X381122Y400117D01*
X381314Y399973D01*
X381785Y400581D01*
X382271Y401177D01*
X382772Y401761D01*
X383287Y402332D01*
X383815Y402891D01*
X384357Y403437D01*
X384912Y403969D01*
X385480Y404487D01*
X386061Y404992D01*
X386653Y405482D01*
X387258Y405957D01*
X387874Y406418D01*
X388501Y406863D01*
X389138Y407293D01*
X389786Y407707D01*
X390444Y408105D01*
X391112Y408487D01*
X391788Y408853D01*
X392474Y409202D01*
X393167Y409534D01*
X393869Y409849D01*
X394578Y410147D01*
X395294Y410427D01*
X396017Y410690D01*
X396746Y410935D01*
X397481Y411162D01*
X398221Y411371D01*
X398966Y411562D01*
X399715Y411734D01*
X400469Y411889D01*
X401226Y412024D01*
X401986Y412142D01*
X402748Y412240D01*
X403513Y412320D01*
X404280Y412381D01*
X405048Y412424D01*
X405817Y412448D01*
X406586Y412452D01*
X407354Y412439D01*
X408123Y412406D01*
X408890Y412354D01*
X409656Y412284D01*
X410420Y412195D01*
X411181Y412087D01*
X411940Y411961D01*
X412695Y411817D01*
X413447Y411653D01*
X414194Y411472D01*
X414937Y411272D01*
X415674Y411055D01*
X416407Y410819D01*
X417133Y410565D01*
X417852Y410294D01*
X418565Y410005D01*
X419271Y409699D01*
X419968Y409376D01*
X420658Y409036D01*
X421339Y408679D01*
X422011Y408305D01*
X422674Y407915D01*
X423328Y407509D01*
X423971Y407088D01*
X424603Y406650D01*
X425225Y406197D01*
X425835Y405730D01*
X426434Y405247D01*
X427021Y404750D01*
X427595Y404239D01*
X428157Y403714D01*
X428706Y403175D01*
X429242Y402623D01*
X429763Y402058D01*
X430271Y401481D01*
X430765Y400891D01*
X431244Y400289D01*
X431708Y399676D01*
X432157Y399052D01*
X432591Y398416D01*
X433009Y397771D01*
X433411Y397115D01*
X433797Y396450D01*
X434166Y395776D01*
X434519Y395092D01*
X434855Y394401D01*
X435175Y393701D01*
X435477Y392994D01*
X435761Y392279D01*
X436028Y391558D01*
X436277Y390830D01*
X436509Y390097D01*
X436722Y389358D01*
X436917Y388614D01*
X437094Y387866D01*
X437253Y387113D01*
X437393Y386357D01*
X437515Y385598D01*
X437618Y384836D01*
X437703Y384071D01*
X437768Y383305D01*
X437815Y382538D01*
X437844Y381769D01*
X437853Y381000D01*
X437844Y380231D01*
X437815Y379462D01*
X437768Y378695D01*
X437703Y377929D01*
X437618Y377164D01*
X437515Y376402D01*
X437393Y375643D01*
X437253Y374887D01*
X437094Y374134D01*
X436917Y373386D01*
X436722Y372642D01*
X436509Y371903D01*
X436277Y371170D01*
X436028Y370442D01*
X435761Y369721D01*
X435477Y369006D01*
X435175Y368299D01*
X434855Y367599D01*
X434519Y366908D01*
X434166Y366224D01*
X433797Y365550D01*
X433411Y364885D01*
X433009Y364229D01*
X432591Y363584D01*
X432157Y362948D01*
X431708Y362324D01*
X431244Y361711D01*
X430765Y361109D01*
X430271Y360519D01*
X429763Y359942D01*
X429242Y359377D01*
X428706Y358825D01*
X428157Y358286D01*
X427595Y357761D01*
X427021Y357250D01*
X426434Y356753D01*
X425835Y356270D01*
X425225Y355803D01*
X424603Y355350D01*
X423971Y354912D01*
X423328Y354491D01*
X422674Y354085D01*
X422011Y353695D01*
X421339Y353321D01*
X420658Y352964D01*
X419968Y352624D01*
X419271Y352301D01*
X418565Y351995D01*
X417852Y351706D01*
X417133Y351435D01*
X416407Y351181D01*
X415674Y350945D01*
X414937Y350728D01*
X414194Y350528D01*
X413447Y350347D01*
X412695Y350183D01*
X411940Y350039D01*
X411181Y349913D01*
X410420Y349805D01*
X409656Y349716D01*
X408890Y349646D01*
X408123Y349594D01*
X407354Y349561D01*
X406586Y349548D01*
X405817Y349552D01*
X405048Y349576D01*
X404280Y349619D01*
X403513Y349680D01*
X402748Y349760D01*
X401986Y349858D01*
X401226Y349976D01*
X400469Y350111D01*
X399715Y350266D01*
X398966Y350438D01*
X398221Y350629D01*
X397481Y350838D01*
X396746Y351065D01*
X396017Y351310D01*
X395294Y351573D01*
X394578Y351853D01*
X393869Y352151D01*
X393167Y352466D01*
X392474Y352798D01*
X391788Y353147D01*
X391112Y353513D01*
X390444Y353895D01*
X389786Y354293D01*
X389138Y354707D01*
X388501Y355137D01*
X387874Y355582D01*
X387258Y356043D01*
X386653Y356518D01*
X386061Y357008D01*
X385480Y357513D01*
X384912Y358031D01*
X384357Y358563D01*
X383815Y359109D01*
X383287Y359668D01*
X382772Y360239D01*
X382271Y360823D01*
X381785Y361419D01*
X381314Y362027D01*
X381506Y362171D01*
X381974Y361568D01*
X382456Y360976D01*
X382953Y360397D01*
X383464Y359830D01*
X383988Y359275D01*
X384526Y358734D01*
X385077Y358206D01*
X385640Y357691D01*
X386217Y357191D01*
X386805Y356704D01*
X387405Y356233D01*
X388016Y355776D01*
X388638Y355334D01*
X389271Y354907D01*
X389914Y354496D01*
X390567Y354101D01*
X391229Y353722D01*
X391901Y353359D01*
X392581Y353013D01*
X393269Y352683D01*
X393965Y352371D01*
X394669Y352075D01*
X395380Y351797D01*
X396097Y351536D01*
X396820Y351293D01*
X397550Y351068D01*
X398284Y350861D01*
X399023Y350671D01*
X399767Y350500D01*
X400515Y350347D01*
X401266Y350212D01*
X402020Y350096D01*
X402777Y349998D01*
X403536Y349919D01*
X404297Y349858D01*
X405059Y349816D01*
X405822Y349792D01*
X406585Y349788D01*
X407348Y349801D01*
X408110Y349834D01*
X408872Y349885D01*
X409632Y349955D01*
X410390Y350043D01*
X411145Y350150D01*
X411898Y350275D01*
X412648Y350419D01*
X413394Y350581D01*
X414135Y350761D01*
X414872Y350959D01*
X415604Y351175D01*
X416331Y351409D01*
X417051Y351661D01*
X417765Y351930D01*
X418473Y352216D01*
X419173Y352520D01*
X419865Y352841D01*
X420550Y353178D01*
X421226Y353533D01*
X421893Y353903D01*
X422551Y354290D01*
X423199Y354693D01*
X423837Y355112D01*
X424465Y355546D01*
X425082Y355995D01*
X425687Y356459D01*
X426282Y356938D01*
X426864Y357431D01*
X427434Y357939D01*
X427992Y358460D01*
X428536Y358994D01*
X429068Y359542D01*
X429585Y360103D01*
X430089Y360676D01*
X430579Y361261D01*
X431055Y361858D01*
X431515Y362467D01*
X431961Y363086D01*
X432391Y363717D01*
X432806Y364357D01*
X433205Y365008D01*
X433588Y365668D01*
X433955Y366337D01*
X434305Y367015D01*
X434638Y367702D01*
X434955Y368396D01*
X435255Y369098D01*
X435537Y369807D01*
X435802Y370523D01*
X436049Y371245D01*
X436279Y371973D01*
X436491Y372706D01*
X436685Y373444D01*
X436860Y374187D01*
X437018Y374933D01*
X437157Y375684D01*
X437278Y376437D01*
X437380Y377194D01*
X437464Y377952D01*
X437529Y378712D01*
X437576Y379474D01*
X437604Y380237D01*
X437613Y381000D01*
X437604Y381763D01*
X437576Y382526D01*
X437529Y383288D01*
X437464Y384048D01*
X437380Y384806D01*
X437278Y385563D01*
X437157Y386316D01*
X437018Y387067D01*
X436860Y387813D01*
X436685Y388556D01*
X436491Y389294D01*
X436279Y390027D01*
X436049Y390755D01*
X435802Y391477D01*
X435537Y392193D01*
X435255Y392902D01*
X434955Y393604D01*
X434638Y394298D01*
X434305Y394985D01*
X433955Y395663D01*
X433588Y396332D01*
X433205Y396992D01*
X432806Y397643D01*
X432391Y398283D01*
X431961Y398914D01*
X431515Y399533D01*
X431055Y400142D01*
X430579Y400739D01*
X430089Y401324D01*
X429585Y401897D01*
X429068Y402458D01*
X428536Y403006D01*
X427992Y403540D01*
X427434Y404061D01*
X426864Y404569D01*
X426282Y405062D01*
X425687Y405541D01*
X425082Y406005D01*
X424465Y406454D01*
X423837Y406888D01*
X423199Y407307D01*
X422551Y407710D01*
X421893Y408097D01*
X421226Y408467D01*
X420550Y408822D01*
X419865Y409159D01*
X419173Y409480D01*
X418473Y409784D01*
X417765Y410070D01*
X417051Y410339D01*
X416331Y410591D01*
X415604Y410825D01*
X414872Y411041D01*
X414135Y411239D01*
X413394Y411419D01*
X412648Y411581D01*
X411898Y411725D01*
X411145Y411850D01*
X410390Y411957D01*
X409632Y412045D01*
X408872Y412115D01*
X408110Y412166D01*
X407348Y412199D01*
X406585Y412212D01*
X405822Y412208D01*
X405059Y412184D01*
X404297Y412142D01*
X403536Y412081D01*
X402777Y412002D01*
X402020Y411904D01*
X401266Y411788D01*
X400515Y411653D01*
X399767Y411500D01*
X399023Y411329D01*
X398284Y411139D01*
X397550Y410932D01*
X396820Y410707D01*
X396097Y410464D01*
X395380Y410203D01*
X394669Y409925D01*
X393965Y409629D01*
X393269Y409317D01*
X392581Y408987D01*
X391901Y408641D01*
X391229Y408278D01*
X390567Y407899D01*
X389914Y407504D01*
X389271Y407093D01*
X388638Y406666D01*
X388016Y406224D01*
X387405Y405767D01*
X386805Y405296D01*
X386217Y404809D01*
X385640Y404309D01*
X385077Y403794D01*
X384526Y403266D01*
X383988Y402725D01*
X383464Y402170D01*
X382953Y401603D01*
X382456Y401024D01*
X381974Y400432D01*
X381506Y399829D01*
X381698Y399685D01*
X382162Y400284D01*
X382641Y400870D01*
X383134Y401445D01*
X383641Y402008D01*
X384161Y402558D01*
X384695Y403095D01*
X385241Y403620D01*
X385801Y404130D01*
X386372Y404627D01*
X386956Y405109D01*
X387551Y405577D01*
X388158Y406031D01*
X388775Y406469D01*
X389403Y406893D01*
X390041Y407301D01*
X390689Y407693D01*
X391347Y408069D01*
X392013Y408429D01*
X392688Y408772D01*
X393371Y409099D01*
X394062Y409409D01*
X394760Y409703D01*
X395465Y409979D01*
X396177Y410237D01*
X396895Y410478D01*
X397618Y410702D01*
X398347Y410908D01*
X399081Y411096D01*
X399819Y411266D01*
X400561Y411418D01*
X401306Y411551D01*
X402054Y411667D01*
X402805Y411764D01*
X403559Y411842D01*
X404314Y411903D01*
X405070Y411944D01*
X405827Y411968D01*
X406584Y411972D01*
X407341Y411959D01*
X408098Y411926D01*
X408853Y411876D01*
X409607Y411806D01*
X410360Y411719D01*
X411110Y411613D01*
X411857Y411489D01*
X412600Y411346D01*
X413340Y411185D01*
X414076Y411007D01*
X414808Y410810D01*
X415534Y410596D01*
X416255Y410363D01*
X416970Y410114D01*
X417678Y409847D01*
X418380Y409562D01*
X419075Y409261D01*
X419762Y408942D01*
X420441Y408607D01*
X421112Y408256D01*
X421774Y407888D01*
X422427Y407504D01*
X423070Y407104D01*
X423703Y406689D01*
X424326Y406258D01*
X424938Y405813D01*
X425539Y405352D01*
X426129Y404877D01*
X426707Y404387D01*
X427273Y403884D01*
X427826Y403367D01*
X428366Y402836D01*
X428893Y402293D01*
X429407Y401736D01*
X429907Y401168D01*
X430393Y400587D01*
X430865Y399994D01*
X431322Y399391D01*
X431764Y398776D01*
X432191Y398150D01*
X432603Y397515D01*
X432999Y396869D01*
X433379Y396214D01*
X433743Y395550D01*
X434090Y394877D01*
X434421Y394196D01*
X434736Y393507D01*
X435033Y392810D01*
X435313Y392107D01*
X435576Y391397D01*
X435821Y390680D01*
X436049Y389958D01*
X436259Y389230D01*
X436452Y388498D01*
X436626Y387761D01*
X436782Y387020D01*
X436920Y386275D01*
X437040Y385528D01*
X437142Y384777D01*
X437225Y384024D01*
X437290Y383270D01*
X437336Y382514D01*
X437364Y381757D01*
X437373Y381000D01*
X437364Y380243D01*
X437336Y379486D01*
X437290Y378730D01*
X437225Y377976D01*
X437142Y377223D01*
X437040Y376472D01*
X436920Y375725D01*
X436782Y374980D01*
X436626Y374239D01*
X436452Y373502D01*
X436259Y372770D01*
X436049Y372042D01*
X435821Y371320D01*
X435576Y370603D01*
X435313Y369893D01*
X435033Y369190D01*
X434736Y368493D01*
X434421Y367804D01*
X434090Y367123D01*
X433743Y366450D01*
X433379Y365786D01*
X432999Y365131D01*
X432603Y364485D01*
X432191Y363850D01*
X431764Y363224D01*
X431322Y362609D01*
X430865Y362006D01*
X430393Y361413D01*
X429907Y360832D01*
X429407Y360264D01*
X428893Y359707D01*
X428366Y359164D01*
X427826Y358633D01*
X427273Y358116D01*
X426707Y357613D01*
X426129Y357123D01*
X425539Y356648D01*
X424938Y356187D01*
X424326Y355742D01*
X423703Y355311D01*
X423070Y354896D01*
X422427Y354496D01*
X421774Y354112D01*
X421112Y353744D01*
X420441Y353393D01*
X419762Y353058D01*
X419075Y352739D01*
X418380Y352438D01*
X417678Y352153D01*
X416970Y351886D01*
X416255Y351637D01*
X415534Y351404D01*
X414808Y351190D01*
X414076Y350993D01*
X413340Y350815D01*
X412600Y350654D01*
X411857Y350511D01*
X411110Y350387D01*
X410360Y350281D01*
X409607Y350194D01*
X408853Y350124D01*
X408098Y350074D01*
X407341Y350041D01*
X406584Y350028D01*
X405827Y350032D01*
X405070Y350056D01*
X404314Y350097D01*
X403559Y350158D01*
X402805Y350236D01*
X402054Y350333D01*
X401306Y350449D01*
X400561Y350582D01*
X399819Y350734D01*
X399081Y350904D01*
X398347Y351092D01*
X397618Y351298D01*
X396895Y351522D01*
X396177Y351763D01*
X395465Y352021D01*
X394760Y352297D01*
X394062Y352591D01*
X393371Y352901D01*
X392688Y353228D01*
X392013Y353571D01*
X391347Y353931D01*
X390689Y354307D01*
X390041Y354699D01*
X389403Y355107D01*
X388775Y355531D01*
X388158Y355969D01*
X387551Y356423D01*
X386956Y356891D01*
X386372Y357373D01*
X385801Y357870D01*
X385241Y358380D01*
X384695Y358905D01*
X384161Y359442D01*
X383641Y359992D01*
X383134Y360555D01*
X382641Y361130D01*
X382162Y361716D01*
X381698Y362315D01*
X381890Y362459D01*
X382351Y361865D01*
X382826Y361283D01*
X383315Y360712D01*
X383818Y360154D01*
X384334Y359608D01*
X384864Y359075D01*
X385406Y358555D01*
X385961Y358049D01*
X386528Y357556D01*
X387107Y357077D01*
X387698Y356612D01*
X388300Y356162D01*
X388913Y355727D01*
X389536Y355307D01*
X390169Y354903D01*
X390812Y354514D01*
X391464Y354141D01*
X392125Y353783D01*
X392795Y353443D01*
X393472Y353118D01*
X394158Y352810D01*
X394851Y352520D01*
X395551Y352246D01*
X396257Y351989D01*
X396969Y351750D01*
X397687Y351528D01*
X398410Y351324D01*
X399138Y351137D01*
X399870Y350969D01*
X400607Y350818D01*
X401346Y350685D01*
X402089Y350571D01*
X402834Y350475D01*
X403581Y350397D01*
X404330Y350337D01*
X405081Y350295D01*
X405832Y350272D01*
X406583Y350268D01*
X407334Y350281D01*
X408085Y350313D01*
X408835Y350364D01*
X409583Y350432D01*
X410330Y350519D01*
X411074Y350624D01*
X411815Y350748D01*
X412553Y350889D01*
X413287Y351049D01*
X414017Y351226D01*
X414743Y351421D01*
X415464Y351634D01*
X416179Y351864D01*
X416888Y352112D01*
X417591Y352377D01*
X418288Y352659D01*
X418977Y352958D01*
X419659Y353274D01*
X420333Y353607D01*
X420998Y353955D01*
X421655Y354320D01*
X422303Y354701D01*
X422941Y355098D01*
X423569Y355510D01*
X424187Y355938D01*
X424795Y356380D01*
X425391Y356837D01*
X425976Y357309D01*
X426550Y357794D01*
X427111Y358294D01*
X427660Y358807D01*
X428196Y359333D01*
X428719Y359873D01*
X429229Y360425D01*
X429725Y360989D01*
X430208Y361565D01*
X430676Y362153D01*
X431129Y362752D01*
X431568Y363362D01*
X431992Y363983D01*
X432400Y364614D01*
X432793Y365254D01*
X433170Y365904D01*
X433531Y366563D01*
X433876Y367231D01*
X434204Y367907D01*
X434516Y368590D01*
X434811Y369281D01*
X435089Y369979D01*
X435350Y370684D01*
X435593Y371395D01*
X435820Y372112D01*
X436028Y372833D01*
X436219Y373560D01*
X436392Y374291D01*
X436547Y375027D01*
X436684Y375766D01*
X436803Y376508D01*
X436904Y377252D01*
X436986Y377999D01*
X437050Y378748D01*
X437096Y379498D01*
X437124Y380249D01*
X437133Y381000D01*
X437124Y381751D01*
X437096Y382502D01*
X437050Y383252D01*
X436986Y384001D01*
X436904Y384748D01*
X436803Y385492D01*
X436684Y386234D01*
X436547Y386973D01*
X436392Y387709D01*
X436219Y388440D01*
X436028Y389167D01*
X435820Y389888D01*
X435593Y390605D01*
X435350Y391316D01*
X435089Y392021D01*
X434811Y392719D01*
X434516Y393410D01*
X434204Y394093D01*
X433876Y394769D01*
X433531Y395437D01*
X433170Y396096D01*
X432793Y396746D01*
X432400Y397386D01*
X431992Y398017D01*
X431568Y398638D01*
X431129Y399248D01*
X430676Y399847D01*
X430208Y400435D01*
X429725Y401011D01*
X429229Y401575D01*
X428719Y402127D01*
X428196Y402667D01*
X427660Y403193D01*
X427111Y403706D01*
X426550Y404206D01*
X425976Y404691D01*
X425391Y405163D01*
X424795Y405620D01*
X424187Y406062D01*
X423569Y406490D01*
X422941Y406902D01*
X422303Y407299D01*
X421655Y407680D01*
X420998Y408045D01*
X420333Y408393D01*
X419659Y408726D01*
X418977Y409042D01*
X418288Y409341D01*
X417591Y409623D01*
X416888Y409888D01*
X416179Y410136D01*
X415464Y410366D01*
X414743Y410579D01*
X414017Y410774D01*
X413287Y410951D01*
X412553Y411111D01*
X411815Y411252D01*
X411074Y411376D01*
X410330Y411481D01*
X409583Y411568D01*
X408835Y411636D01*
X408085Y411687D01*
X407334Y411719D01*
X406583Y411732D01*
X405832Y411728D01*
X405081Y411705D01*
X404330Y411663D01*
X403581Y411603D01*
X402834Y411525D01*
X402089Y411429D01*
X401346Y411315D01*
X400607Y411182D01*
X399870Y411031D01*
X399138Y410863D01*
X398410Y410676D01*
X397687Y410472D01*
X396969Y410250D01*
X396257Y410011D01*
X395551Y409754D01*
X394851Y409480D01*
X394158Y409190D01*
X393472Y408882D01*
X392795Y408557D01*
X392125Y408217D01*
X391464Y407859D01*
X390812Y407486D01*
X390169Y407097D01*
X389536Y406693D01*
X388913Y406273D01*
X388300Y405838D01*
X387698Y405388D01*
X387107Y404923D01*
X386528Y404444D01*
X385961Y403951D01*
X385406Y403445D01*
X384864Y402925D01*
X384334Y402392D01*
X383818Y401846D01*
X383315Y401288D01*
X382826Y400717D01*
X382351Y400135D01*
X381890Y399541D01*
D12*
X381000Y381000D02*
X381008Y381623D01*
X381031Y382246D01*
X381069Y382869D01*
X381122Y383490D01*
X381191Y384109D01*
X381275Y384727D01*
X381374Y385342D01*
X381488Y385955D01*
X381617Y386565D01*
X381761Y387172D01*
X381920Y387775D01*
X382094Y388373D01*
X382282Y388968D01*
X382485Y389557D01*
X382702Y390141D01*
X382933Y390720D01*
X383179Y391293D01*
X383439Y391860D01*
X383712Y392420D01*
X383999Y392973D01*
X384300Y393520D01*
X384614Y394058D01*
X384941Y394589D01*
X385281Y395111D01*
X385633Y395626D01*
X385999Y396131D01*
X386376Y396627D01*
X386766Y397114D01*
X387167Y397591D01*
X387580Y398058D01*
X388004Y398514D01*
X388439Y398961D01*
X388886Y399396D01*
X389342Y399820D01*
X389809Y400233D01*
X390286Y400634D01*
X390773Y401024D01*
X391269Y401401D01*
X391774Y401767D01*
X392289Y402119D01*
X392811Y402459D01*
X393342Y402786D01*
X393880Y403100D01*
X394427Y403401D01*
X394980Y403688D01*
X395540Y403961D01*
X396107Y404221D01*
X396680Y404467D01*
X397259Y404698D01*
X397843Y404915D01*
X398432Y405118D01*
X399027Y405306D01*
X399625Y405480D01*
X400228Y405639D01*
X400835Y405783D01*
X401445Y405912D01*
X402058Y406026D01*
X402673Y406125D01*
X403291Y406209D01*
X403910Y406278D01*
X404531Y406331D01*
X405154Y406369D01*
X405777Y406392D01*
X406400Y406400D01*
X407023Y406392D01*
X407646Y406369D01*
X408269Y406331D01*
X408890Y406278D01*
X409509Y406209D01*
X410127Y406125D01*
X410742Y406026D01*
X411355Y405912D01*
X411965Y405783D01*
X412572Y405639D01*
X413175Y405480D01*
X413773Y405306D01*
X414368Y405118D01*
X414957Y404915D01*
X415541Y404698D01*
X416120Y404467D01*
X416693Y404221D01*
X417260Y403961D01*
X417820Y403688D01*
X418373Y403401D01*
X418920Y403100D01*
X419458Y402786D01*
X419989Y402459D01*
X420511Y402119D01*
X421026Y401767D01*
X421531Y401401D01*
X422027Y401024D01*
X422514Y400634D01*
X422991Y400233D01*
X423458Y399820D01*
X423914Y399396D01*
X424361Y398961D01*
X424796Y398514D01*
X425220Y398058D01*
X425633Y397591D01*
X426034Y397114D01*
X426424Y396627D01*
X426801Y396131D01*
X427167Y395626D01*
X427519Y395111D01*
X427859Y394589D01*
X428186Y394058D01*
X428500Y393520D01*
X428801Y392973D01*
X429088Y392420D01*
X429361Y391860D01*
X429621Y391293D01*
X429867Y390720D01*
X430098Y390141D01*
X430315Y389557D01*
X430518Y388968D01*
X430706Y388373D01*
X430880Y387775D01*
X431039Y387172D01*
X431183Y386565D01*
X431312Y385955D01*
X431426Y385342D01*
X431525Y384727D01*
X431609Y384109D01*
X431678Y383490D01*
X431731Y382869D01*
X431769Y382246D01*
X431792Y381623D01*
X431800Y381000D01*
X431792Y380377D01*
X431769Y379754D01*
X431731Y379131D01*
X431678Y378510D01*
X431609Y377891D01*
X431525Y377273D01*
X431426Y376658D01*
X431312Y376045D01*
X431183Y375435D01*
X431039Y374828D01*
X430880Y374225D01*
X430706Y373627D01*
X430518Y373032D01*
X430315Y372443D01*
X430098Y371859D01*
X429867Y371280D01*
X429621Y370707D01*
X429361Y370140D01*
X429088Y369580D01*
X428801Y369027D01*
X428500Y368480D01*
X428186Y367942D01*
X427859Y367411D01*
X427519Y366889D01*
X427167Y366374D01*
X426801Y365869D01*
X426424Y365373D01*
X426034Y364886D01*
X425633Y364409D01*
X425220Y363942D01*
X424796Y363486D01*
X424361Y363039D01*
X423914Y362604D01*
X423458Y362180D01*
X422991Y361767D01*
X422514Y361366D01*
X422027Y360976D01*
X421531Y360599D01*
X421026Y360233D01*
X420511Y359881D01*
X419989Y359541D01*
X419458Y359214D01*
X418920Y358900D01*
X418373Y358599D01*
X417820Y358312D01*
X417260Y358039D01*
X416693Y357779D01*
X416120Y357533D01*
X415541Y357302D01*
X414957Y357085D01*
X414368Y356882D01*
X413773Y356694D01*
X413175Y356520D01*
X412572Y356361D01*
X411965Y356217D01*
X411355Y356088D01*
X410742Y355974D01*
X410127Y355875D01*
X409509Y355791D01*
X408890Y355722D01*
X408269Y355669D01*
X407646Y355631D01*
X407023Y355608D01*
X406400Y355600D01*
X405777Y355608D01*
X405154Y355631D01*
X404531Y355669D01*
X403910Y355722D01*
X403291Y355791D01*
X402673Y355875D01*
X402058Y355974D01*
X401445Y356088D01*
X400835Y356217D01*
X400228Y356361D01*
X399625Y356520D01*
X399027Y356694D01*
X398432Y356882D01*
X397843Y357085D01*
X397259Y357302D01*
X396680Y357533D01*
X396107Y357779D01*
X395540Y358039D01*
X394980Y358312D01*
X394427Y358599D01*
X393880Y358900D01*
X393342Y359214D01*
X392811Y359541D01*
X392289Y359881D01*
X391774Y360233D01*
X391269Y360599D01*
X390773Y360976D01*
X390286Y361366D01*
X389809Y361767D01*
X389342Y362180D01*
X388886Y362604D01*
X388439Y363039D01*
X388004Y363486D01*
X387580Y363942D01*
X387167Y364409D01*
X386766Y364886D01*
X386376Y365373D01*
X385999Y365869D01*
X385633Y366374D01*
X385281Y366889D01*
X384941Y367411D01*
X384614Y367942D01*
X384300Y368480D01*
X383999Y369027D01*
X383712Y369580D01*
X383439Y370140D01*
X383179Y370707D01*
X382933Y371280D01*
X382702Y371859D01*
X382485Y372443D01*
X382282Y373032D01*
X382094Y373627D01*
X381920Y374225D01*
X381761Y374828D01*
X381617Y375435D01*
X381488Y376045D01*
X381374Y376658D01*
X381275Y377273D01*
X381191Y377891D01*
X381122Y378510D01*
X381069Y379131D01*
X381031Y379754D01*
X381008Y380377D01*
X381000Y381000D01*
D13*
X336067Y375031D02*
X336067Y363601D01*
X341147Y363601D01*
X345973Y363601D02*
X351053Y363601D01*
X345973Y363601D02*
X345973Y375031D01*
X351053Y375031D01*
X349783Y369951D02*
X345973Y369951D01*
X355854Y375031D02*
X355854Y363601D01*
X355854Y375031D02*
X359029Y375031D01*
X359140Y375029D01*
X359250Y375023D01*
X359361Y375014D01*
X359471Y375000D01*
X359580Y374983D01*
X359689Y374962D01*
X359797Y374937D01*
X359904Y374908D01*
X360010Y374876D01*
X360115Y374840D01*
X360218Y374800D01*
X360320Y374757D01*
X360421Y374710D01*
X360520Y374659D01*
X360617Y374606D01*
X360711Y374549D01*
X360804Y374488D01*
X360895Y374425D01*
X360984Y374358D01*
X361070Y374288D01*
X361153Y374215D01*
X361235Y374140D01*
X361313Y374062D01*
X361388Y373980D01*
X361461Y373897D01*
X361531Y373811D01*
X361598Y373722D01*
X361661Y373631D01*
X361722Y373538D01*
X361779Y373444D01*
X361832Y373347D01*
X361883Y373248D01*
X361930Y373147D01*
X361973Y373045D01*
X362013Y372942D01*
X362049Y372837D01*
X362081Y372731D01*
X362110Y372624D01*
X362135Y372516D01*
X362156Y372407D01*
X362173Y372298D01*
X362187Y372188D01*
X362196Y372077D01*
X362202Y371967D01*
X362204Y371856D01*
X362204Y366776D01*
X362202Y366665D01*
X362196Y366555D01*
X362187Y366444D01*
X362173Y366334D01*
X362156Y366225D01*
X362135Y366116D01*
X362110Y366008D01*
X362081Y365901D01*
X362049Y365795D01*
X362013Y365690D01*
X361973Y365587D01*
X361930Y365485D01*
X361883Y365384D01*
X361832Y365285D01*
X361779Y365188D01*
X361722Y365094D01*
X361661Y365001D01*
X361598Y364910D01*
X361531Y364821D01*
X361461Y364735D01*
X361388Y364652D01*
X361313Y364570D01*
X361235Y364492D01*
X361153Y364417D01*
X361070Y364344D01*
X360984Y364274D01*
X360895Y364207D01*
X360804Y364144D01*
X360711Y364083D01*
X360617Y364026D01*
X360520Y363973D01*
X360421Y363922D01*
X360320Y363875D01*
X360218Y363832D01*
X360115Y363792D01*
X360010Y363756D01*
X359904Y363724D01*
X359797Y363695D01*
X359689Y363670D01*
X359580Y363649D01*
X359471Y363632D01*
X359361Y363618D01*
X359250Y363609D01*
X359140Y363603D01*
X359029Y363601D01*
X355854Y363601D01*
X367665Y363601D02*
X370840Y363601D01*
X370951Y363603D01*
X371061Y363609D01*
X371172Y363618D01*
X371282Y363632D01*
X371391Y363649D01*
X371500Y363670D01*
X371608Y363695D01*
X371715Y363724D01*
X371821Y363756D01*
X371926Y363792D01*
X372029Y363832D01*
X372131Y363875D01*
X372232Y363922D01*
X372331Y363973D01*
X372428Y364026D01*
X372522Y364083D01*
X372615Y364144D01*
X372706Y364207D01*
X372795Y364274D01*
X372881Y364344D01*
X372964Y364417D01*
X373046Y364492D01*
X373124Y364570D01*
X373199Y364652D01*
X373272Y364735D01*
X373342Y364821D01*
X373409Y364910D01*
X373472Y365001D01*
X373533Y365094D01*
X373590Y365188D01*
X373643Y365285D01*
X373694Y365384D01*
X373741Y365485D01*
X373784Y365587D01*
X373824Y365690D01*
X373860Y365795D01*
X373892Y365901D01*
X373921Y366008D01*
X373946Y366116D01*
X373967Y366225D01*
X373984Y366334D01*
X373998Y366444D01*
X374007Y366555D01*
X374013Y366665D01*
X374015Y366776D01*
X374013Y366887D01*
X374007Y366997D01*
X373998Y367108D01*
X373984Y367218D01*
X373967Y367327D01*
X373946Y367436D01*
X373921Y367544D01*
X373892Y367651D01*
X373860Y367757D01*
X373824Y367862D01*
X373784Y367965D01*
X373741Y368067D01*
X373694Y368168D01*
X373643Y368267D01*
X373590Y368363D01*
X373533Y368458D01*
X373472Y368551D01*
X373409Y368642D01*
X373342Y368731D01*
X373272Y368817D01*
X373199Y368900D01*
X373124Y368982D01*
X373046Y369060D01*
X372964Y369135D01*
X372881Y369208D01*
X372795Y369278D01*
X372706Y369345D01*
X372615Y369408D01*
X372522Y369469D01*
X372428Y369526D01*
X372331Y369579D01*
X372232Y369630D01*
X372131Y369677D01*
X372029Y369720D01*
X371926Y369760D01*
X371821Y369796D01*
X371715Y369828D01*
X371608Y369857D01*
X371500Y369882D01*
X371391Y369903D01*
X371282Y369920D01*
X371172Y369934D01*
X371061Y369943D01*
X370951Y369949D01*
X370840Y369951D01*
X371475Y375031D02*
X367665Y375031D01*
X371475Y375031D02*
X371575Y375029D01*
X371674Y375023D01*
X371774Y375013D01*
X371872Y375000D01*
X371971Y374982D01*
X372068Y374961D01*
X372164Y374936D01*
X372260Y374907D01*
X372354Y374874D01*
X372447Y374838D01*
X372538Y374798D01*
X372628Y374754D01*
X372716Y374707D01*
X372802Y374657D01*
X372886Y374603D01*
X372968Y374546D01*
X373047Y374486D01*
X373125Y374422D01*
X373199Y374356D01*
X373271Y374287D01*
X373340Y374215D01*
X373406Y374141D01*
X373470Y374063D01*
X373530Y373984D01*
X373587Y373902D01*
X373641Y373818D01*
X373691Y373732D01*
X373738Y373644D01*
X373782Y373554D01*
X373822Y373463D01*
X373858Y373370D01*
X373891Y373276D01*
X373920Y373180D01*
X373945Y373084D01*
X373966Y372987D01*
X373984Y372888D01*
X373997Y372790D01*
X374007Y372690D01*
X374013Y372591D01*
X374015Y372491D01*
X374013Y372391D01*
X374007Y372292D01*
X373997Y372192D01*
X373984Y372094D01*
X373966Y371995D01*
X373945Y371898D01*
X373920Y371802D01*
X373891Y371706D01*
X373858Y371612D01*
X373822Y371519D01*
X373782Y371428D01*
X373738Y371338D01*
X373691Y371250D01*
X373641Y371164D01*
X373587Y371080D01*
X373530Y370998D01*
X373470Y370919D01*
X373406Y370841D01*
X373340Y370767D01*
X373271Y370695D01*
X373199Y370626D01*
X373125Y370560D01*
X373047Y370496D01*
X372968Y370436D01*
X372886Y370379D01*
X372802Y370325D01*
X372716Y370275D01*
X372628Y370228D01*
X372538Y370184D01*
X372447Y370144D01*
X372354Y370108D01*
X372260Y370075D01*
X372164Y370046D01*
X372068Y370021D01*
X371971Y370000D01*
X371872Y369982D01*
X371774Y369969D01*
X371674Y369959D01*
X371575Y369953D01*
X371475Y369951D01*
X368935Y369951D01*
D12*
X222250Y618490D02*
X222252Y618590D01*
X222258Y618689D01*
X222268Y618789D01*
X222281Y618887D01*
X222299Y618986D01*
X222320Y619083D01*
X222345Y619179D01*
X222374Y619275D01*
X222407Y619369D01*
X222443Y619462D01*
X222483Y619553D01*
X222527Y619643D01*
X222574Y619731D01*
X222624Y619817D01*
X222678Y619901D01*
X222735Y619983D01*
X222795Y620062D01*
X222859Y620140D01*
X222925Y620214D01*
X222994Y620286D01*
X223066Y620355D01*
X223140Y620421D01*
X223218Y620485D01*
X223297Y620545D01*
X223379Y620602D01*
X223463Y620656D01*
X223549Y620706D01*
X223637Y620753D01*
X223727Y620797D01*
X223818Y620837D01*
X223911Y620873D01*
X224005Y620906D01*
X224101Y620935D01*
X224197Y620960D01*
X224294Y620981D01*
X224393Y620999D01*
X224491Y621012D01*
X224591Y621022D01*
X224690Y621028D01*
X224790Y621030D01*
X222250Y600710D02*
X222252Y600610D01*
X222258Y600511D01*
X222268Y600411D01*
X222281Y600313D01*
X222299Y600214D01*
X222320Y600117D01*
X222345Y600021D01*
X222374Y599925D01*
X222407Y599831D01*
X222443Y599738D01*
X222483Y599647D01*
X222527Y599557D01*
X222574Y599469D01*
X222624Y599383D01*
X222678Y599299D01*
X222735Y599217D01*
X222795Y599138D01*
X222859Y599060D01*
X222925Y598986D01*
X222994Y598914D01*
X223066Y598845D01*
X223140Y598779D01*
X223218Y598715D01*
X223297Y598655D01*
X223379Y598598D01*
X223463Y598544D01*
X223549Y598494D01*
X223637Y598447D01*
X223727Y598403D01*
X223818Y598363D01*
X223911Y598327D01*
X224005Y598294D01*
X224101Y598265D01*
X224197Y598240D01*
X224294Y598219D01*
X224393Y598201D01*
X224491Y598188D01*
X224591Y598178D01*
X224690Y598172D01*
X224790Y598170D01*
X283210Y598170D02*
X283310Y598172D01*
X283409Y598178D01*
X283509Y598188D01*
X283607Y598201D01*
X283706Y598219D01*
X283803Y598240D01*
X283899Y598265D01*
X283995Y598294D01*
X284089Y598327D01*
X284182Y598363D01*
X284273Y598403D01*
X284363Y598447D01*
X284451Y598494D01*
X284537Y598544D01*
X284621Y598598D01*
X284703Y598655D01*
X284782Y598715D01*
X284860Y598779D01*
X284934Y598845D01*
X285006Y598914D01*
X285075Y598986D01*
X285141Y599060D01*
X285205Y599138D01*
X285265Y599217D01*
X285322Y599299D01*
X285376Y599383D01*
X285426Y599469D01*
X285473Y599557D01*
X285517Y599647D01*
X285557Y599738D01*
X285593Y599831D01*
X285626Y599925D01*
X285655Y600021D01*
X285680Y600117D01*
X285701Y600214D01*
X285719Y600313D01*
X285732Y600411D01*
X285742Y600511D01*
X285748Y600610D01*
X285750Y600710D01*
X285750Y618490D02*
X285748Y618590D01*
X285742Y618689D01*
X285732Y618789D01*
X285719Y618887D01*
X285701Y618986D01*
X285680Y619083D01*
X285655Y619179D01*
X285626Y619275D01*
X285593Y619369D01*
X285557Y619462D01*
X285517Y619553D01*
X285473Y619643D01*
X285426Y619731D01*
X285376Y619817D01*
X285322Y619901D01*
X285265Y619983D01*
X285205Y620062D01*
X285141Y620140D01*
X285075Y620214D01*
X285006Y620286D01*
X284934Y620355D01*
X284860Y620421D01*
X284782Y620485D01*
X284703Y620545D01*
X284621Y620602D01*
X284537Y620656D01*
X284451Y620706D01*
X284363Y620753D01*
X284273Y620797D01*
X284182Y620837D01*
X284089Y620873D01*
X283995Y620906D01*
X283899Y620935D01*
X283803Y620960D01*
X283706Y620981D01*
X283607Y620999D01*
X283509Y621012D01*
X283409Y621022D01*
X283310Y621028D01*
X283210Y621030D01*
X222250Y618490D02*
X222250Y600710D01*
X224790Y621030D02*
X228600Y621030D01*
X229870Y619760D01*
X228600Y598170D02*
X224790Y598170D01*
X228600Y598170D02*
X229870Y599440D01*
X278130Y619760D02*
X279400Y621030D01*
X278130Y619760D02*
X229870Y619760D01*
X278130Y599440D02*
X279400Y598170D01*
X278130Y599440D02*
X229870Y599440D01*
X279400Y621030D02*
X283210Y621030D01*
X283210Y598170D02*
X279400Y598170D01*
X285750Y600710D02*
X285750Y618490D01*
D14*
X290068Y609600D03*
X217932Y609600D03*
D13*
X224155Y625475D02*
X224155Y636905D01*
X227330Y636905D01*
X227441Y636903D01*
X227551Y636897D01*
X227662Y636888D01*
X227772Y636874D01*
X227881Y636857D01*
X227990Y636836D01*
X228098Y636811D01*
X228205Y636782D01*
X228311Y636750D01*
X228416Y636714D01*
X228519Y636674D01*
X228621Y636631D01*
X228722Y636584D01*
X228821Y636533D01*
X228918Y636480D01*
X229012Y636423D01*
X229105Y636362D01*
X229196Y636299D01*
X229285Y636232D01*
X229371Y636162D01*
X229454Y636089D01*
X229536Y636014D01*
X229614Y635936D01*
X229689Y635854D01*
X229762Y635771D01*
X229832Y635685D01*
X229899Y635596D01*
X229962Y635505D01*
X230023Y635412D01*
X230080Y635317D01*
X230133Y635221D01*
X230184Y635122D01*
X230231Y635021D01*
X230274Y634919D01*
X230314Y634816D01*
X230350Y634711D01*
X230382Y634605D01*
X230411Y634498D01*
X230436Y634390D01*
X230457Y634281D01*
X230474Y634172D01*
X230488Y634062D01*
X230497Y633951D01*
X230503Y633841D01*
X230505Y633730D01*
X230503Y633619D01*
X230497Y633509D01*
X230488Y633398D01*
X230474Y633288D01*
X230457Y633179D01*
X230436Y633070D01*
X230411Y632962D01*
X230382Y632855D01*
X230350Y632749D01*
X230314Y632644D01*
X230274Y632541D01*
X230231Y632439D01*
X230184Y632338D01*
X230133Y632239D01*
X230080Y632143D01*
X230023Y632048D01*
X229962Y631955D01*
X229899Y631864D01*
X229832Y631775D01*
X229762Y631689D01*
X229689Y631606D01*
X229614Y631524D01*
X229536Y631446D01*
X229454Y631371D01*
X229371Y631298D01*
X229285Y631228D01*
X229196Y631161D01*
X229105Y631098D01*
X229012Y631037D01*
X228917Y630980D01*
X228821Y630927D01*
X228722Y630876D01*
X228621Y630829D01*
X228519Y630786D01*
X228416Y630746D01*
X228311Y630710D01*
X228205Y630678D01*
X228098Y630649D01*
X227990Y630624D01*
X227881Y630603D01*
X227772Y630586D01*
X227662Y630572D01*
X227551Y630563D01*
X227441Y630557D01*
X227330Y630555D01*
X224155Y630555D01*
X227965Y630555D02*
X230505Y625475D01*
X235502Y634365D02*
X238677Y636905D01*
X238677Y625475D01*
X235502Y625475D02*
X241852Y625475D01*
D12*
X224790Y506730D02*
X224690Y506728D01*
X224591Y506722D01*
X224491Y506712D01*
X224393Y506699D01*
X224294Y506681D01*
X224197Y506660D01*
X224101Y506635D01*
X224005Y506606D01*
X223911Y506573D01*
X223818Y506537D01*
X223727Y506497D01*
X223637Y506453D01*
X223549Y506406D01*
X223463Y506356D01*
X223379Y506302D01*
X223297Y506245D01*
X223218Y506185D01*
X223140Y506121D01*
X223066Y506055D01*
X222994Y505986D01*
X222925Y505914D01*
X222859Y505840D01*
X222795Y505762D01*
X222735Y505683D01*
X222678Y505601D01*
X222624Y505517D01*
X222574Y505431D01*
X222527Y505343D01*
X222483Y505253D01*
X222443Y505162D01*
X222407Y505069D01*
X222374Y504975D01*
X222345Y504879D01*
X222320Y504783D01*
X222299Y504686D01*
X222281Y504587D01*
X222268Y504489D01*
X222258Y504389D01*
X222252Y504290D01*
X222250Y504190D01*
X222250Y486410D02*
X222252Y486310D01*
X222258Y486211D01*
X222268Y486111D01*
X222281Y486013D01*
X222299Y485914D01*
X222320Y485817D01*
X222345Y485721D01*
X222374Y485625D01*
X222407Y485531D01*
X222443Y485438D01*
X222483Y485347D01*
X222527Y485257D01*
X222574Y485169D01*
X222624Y485083D01*
X222678Y484999D01*
X222735Y484917D01*
X222795Y484838D01*
X222859Y484760D01*
X222925Y484686D01*
X222994Y484614D01*
X223066Y484545D01*
X223140Y484479D01*
X223218Y484415D01*
X223297Y484355D01*
X223379Y484298D01*
X223463Y484244D01*
X223549Y484194D01*
X223637Y484147D01*
X223727Y484103D01*
X223818Y484063D01*
X223911Y484027D01*
X224005Y483994D01*
X224101Y483965D01*
X224197Y483940D01*
X224294Y483919D01*
X224393Y483901D01*
X224491Y483888D01*
X224591Y483878D01*
X224690Y483872D01*
X224790Y483870D01*
X283210Y483870D02*
X283310Y483872D01*
X283409Y483878D01*
X283509Y483888D01*
X283607Y483901D01*
X283706Y483919D01*
X283803Y483940D01*
X283899Y483965D01*
X283995Y483994D01*
X284089Y484027D01*
X284182Y484063D01*
X284273Y484103D01*
X284363Y484147D01*
X284451Y484194D01*
X284537Y484244D01*
X284621Y484298D01*
X284703Y484355D01*
X284782Y484415D01*
X284860Y484479D01*
X284934Y484545D01*
X285006Y484614D01*
X285075Y484686D01*
X285141Y484760D01*
X285205Y484838D01*
X285265Y484917D01*
X285322Y484999D01*
X285376Y485083D01*
X285426Y485169D01*
X285473Y485257D01*
X285517Y485347D01*
X285557Y485438D01*
X285593Y485531D01*
X285626Y485625D01*
X285655Y485721D01*
X285680Y485817D01*
X285701Y485914D01*
X285719Y486013D01*
X285732Y486111D01*
X285742Y486211D01*
X285748Y486310D01*
X285750Y486410D01*
X285750Y504190D02*
X285748Y504290D01*
X285742Y504389D01*
X285732Y504489D01*
X285719Y504587D01*
X285701Y504686D01*
X285680Y504783D01*
X285655Y504879D01*
X285626Y504975D01*
X285593Y505069D01*
X285557Y505162D01*
X285517Y505253D01*
X285473Y505343D01*
X285426Y505431D01*
X285376Y505517D01*
X285322Y505601D01*
X285265Y505683D01*
X285205Y505762D01*
X285141Y505840D01*
X285075Y505914D01*
X285006Y505986D01*
X284934Y506055D01*
X284860Y506121D01*
X284782Y506185D01*
X284703Y506245D01*
X284621Y506302D01*
X284537Y506356D01*
X284451Y506406D01*
X284363Y506453D01*
X284273Y506497D01*
X284182Y506537D01*
X284089Y506573D01*
X283995Y506606D01*
X283899Y506635D01*
X283803Y506660D01*
X283706Y506681D01*
X283607Y506699D01*
X283509Y506712D01*
X283409Y506722D01*
X283310Y506728D01*
X283210Y506730D01*
X222250Y504190D02*
X222250Y486410D01*
X224790Y506730D02*
X228600Y506730D01*
X229870Y505460D01*
X228600Y483870D02*
X224790Y483870D01*
X228600Y483870D02*
X229870Y485140D01*
X278130Y505460D02*
X279400Y506730D01*
X278130Y505460D02*
X229870Y505460D01*
X278130Y485140D02*
X279400Y483870D01*
X278130Y485140D02*
X229870Y485140D01*
X279400Y506730D02*
X283210Y506730D01*
X283210Y483870D02*
X279400Y483870D01*
X285750Y486410D02*
X285750Y504190D01*
D14*
X290068Y495300D03*
X217932Y495300D03*
D13*
X224155Y511175D02*
X224155Y522605D01*
X227330Y522605D01*
X227441Y522603D01*
X227551Y522597D01*
X227662Y522588D01*
X227772Y522574D01*
X227881Y522557D01*
X227990Y522536D01*
X228098Y522511D01*
X228205Y522482D01*
X228311Y522450D01*
X228416Y522414D01*
X228519Y522374D01*
X228621Y522331D01*
X228722Y522284D01*
X228821Y522233D01*
X228918Y522180D01*
X229012Y522123D01*
X229105Y522062D01*
X229196Y521999D01*
X229285Y521932D01*
X229371Y521862D01*
X229454Y521789D01*
X229536Y521714D01*
X229614Y521636D01*
X229689Y521554D01*
X229762Y521471D01*
X229832Y521385D01*
X229899Y521296D01*
X229962Y521205D01*
X230023Y521112D01*
X230080Y521017D01*
X230133Y520921D01*
X230184Y520822D01*
X230231Y520721D01*
X230274Y520619D01*
X230314Y520516D01*
X230350Y520411D01*
X230382Y520305D01*
X230411Y520198D01*
X230436Y520090D01*
X230457Y519981D01*
X230474Y519872D01*
X230488Y519762D01*
X230497Y519651D01*
X230503Y519541D01*
X230505Y519430D01*
X230503Y519319D01*
X230497Y519209D01*
X230488Y519098D01*
X230474Y518988D01*
X230457Y518879D01*
X230436Y518770D01*
X230411Y518662D01*
X230382Y518555D01*
X230350Y518449D01*
X230314Y518344D01*
X230274Y518241D01*
X230231Y518139D01*
X230184Y518038D01*
X230133Y517939D01*
X230080Y517842D01*
X230023Y517748D01*
X229962Y517655D01*
X229899Y517564D01*
X229832Y517475D01*
X229762Y517389D01*
X229689Y517306D01*
X229614Y517224D01*
X229536Y517146D01*
X229454Y517071D01*
X229371Y516998D01*
X229285Y516928D01*
X229196Y516861D01*
X229105Y516798D01*
X229012Y516737D01*
X228917Y516680D01*
X228821Y516627D01*
X228722Y516576D01*
X228621Y516529D01*
X228519Y516486D01*
X228416Y516446D01*
X228311Y516410D01*
X228205Y516378D01*
X228098Y516349D01*
X227990Y516324D01*
X227881Y516303D01*
X227772Y516286D01*
X227662Y516272D01*
X227551Y516263D01*
X227441Y516257D01*
X227330Y516255D01*
X224155Y516255D01*
X227965Y516255D02*
X230505Y511175D01*
X241853Y519748D02*
X241851Y519852D01*
X241845Y519957D01*
X241836Y520061D01*
X241823Y520164D01*
X241805Y520267D01*
X241785Y520369D01*
X241760Y520471D01*
X241732Y520571D01*
X241700Y520671D01*
X241664Y520769D01*
X241625Y520866D01*
X241583Y520961D01*
X241537Y521055D01*
X241487Y521147D01*
X241435Y521237D01*
X241379Y521325D01*
X241319Y521411D01*
X241257Y521495D01*
X241192Y521576D01*
X241124Y521655D01*
X241052Y521732D01*
X240979Y521805D01*
X240902Y521877D01*
X240823Y521945D01*
X240742Y522010D01*
X240658Y522072D01*
X240572Y522132D01*
X240484Y522188D01*
X240394Y522240D01*
X240302Y522290D01*
X240208Y522336D01*
X240113Y522378D01*
X240016Y522417D01*
X239918Y522453D01*
X239818Y522485D01*
X239718Y522513D01*
X239616Y522538D01*
X239514Y522558D01*
X239411Y522576D01*
X239308Y522589D01*
X239204Y522598D01*
X239099Y522604D01*
X238995Y522606D01*
X238995Y522605D02*
X238877Y522603D01*
X238758Y522597D01*
X238640Y522588D01*
X238523Y522575D01*
X238406Y522557D01*
X238289Y522537D01*
X238173Y522512D01*
X238058Y522484D01*
X237945Y522451D01*
X237832Y522416D01*
X237720Y522376D01*
X237610Y522334D01*
X237501Y522287D01*
X237393Y522237D01*
X237288Y522184D01*
X237184Y522127D01*
X237082Y522067D01*
X236982Y522004D01*
X236884Y521937D01*
X236788Y521868D01*
X236695Y521795D01*
X236604Y521719D01*
X236515Y521641D01*
X236429Y521559D01*
X236346Y521475D01*
X236265Y521389D01*
X236188Y521299D01*
X236113Y521208D01*
X236041Y521114D01*
X235972Y521017D01*
X235907Y520919D01*
X235844Y520818D01*
X235785Y520715D01*
X235729Y520611D01*
X235677Y520505D01*
X235628Y520397D01*
X235583Y520288D01*
X235541Y520177D01*
X235503Y520065D01*
X240900Y517526D02*
X240976Y517601D01*
X241051Y517680D01*
X241122Y517761D01*
X241191Y517845D01*
X241256Y517931D01*
X241318Y518019D01*
X241378Y518109D01*
X241434Y518201D01*
X241487Y518296D01*
X241536Y518392D01*
X241582Y518490D01*
X241625Y518589D01*
X241664Y518690D01*
X241699Y518792D01*
X241731Y518895D01*
X241759Y518999D01*
X241784Y519104D01*
X241805Y519211D01*
X241822Y519317D01*
X241835Y519424D01*
X241844Y519532D01*
X241850Y519640D01*
X241852Y519748D01*
X240900Y517525D02*
X235502Y511175D01*
X241852Y511175D01*
D12*
X224790Y392430D02*
X224690Y392428D01*
X224591Y392422D01*
X224491Y392412D01*
X224393Y392399D01*
X224294Y392381D01*
X224197Y392360D01*
X224101Y392335D01*
X224005Y392306D01*
X223911Y392273D01*
X223818Y392237D01*
X223727Y392197D01*
X223637Y392153D01*
X223549Y392106D01*
X223463Y392056D01*
X223379Y392002D01*
X223297Y391945D01*
X223218Y391885D01*
X223140Y391821D01*
X223066Y391755D01*
X222994Y391686D01*
X222925Y391614D01*
X222859Y391540D01*
X222795Y391462D01*
X222735Y391383D01*
X222678Y391301D01*
X222624Y391217D01*
X222574Y391131D01*
X222527Y391043D01*
X222483Y390953D01*
X222443Y390862D01*
X222407Y390769D01*
X222374Y390675D01*
X222345Y390579D01*
X222320Y390483D01*
X222299Y390386D01*
X222281Y390287D01*
X222268Y390189D01*
X222258Y390089D01*
X222252Y389990D01*
X222250Y389890D01*
X222250Y372110D02*
X222252Y372010D01*
X222258Y371911D01*
X222268Y371811D01*
X222281Y371713D01*
X222299Y371614D01*
X222320Y371517D01*
X222345Y371421D01*
X222374Y371325D01*
X222407Y371231D01*
X222443Y371138D01*
X222483Y371047D01*
X222527Y370957D01*
X222574Y370869D01*
X222624Y370783D01*
X222678Y370699D01*
X222735Y370617D01*
X222795Y370538D01*
X222859Y370460D01*
X222925Y370386D01*
X222994Y370314D01*
X223066Y370245D01*
X223140Y370179D01*
X223218Y370115D01*
X223297Y370055D01*
X223379Y369998D01*
X223463Y369944D01*
X223549Y369894D01*
X223637Y369847D01*
X223727Y369803D01*
X223818Y369763D01*
X223911Y369727D01*
X224005Y369694D01*
X224101Y369665D01*
X224197Y369640D01*
X224294Y369619D01*
X224393Y369601D01*
X224491Y369588D01*
X224591Y369578D01*
X224690Y369572D01*
X224790Y369570D01*
X283210Y369570D02*
X283310Y369572D01*
X283409Y369578D01*
X283509Y369588D01*
X283607Y369601D01*
X283706Y369619D01*
X283803Y369640D01*
X283899Y369665D01*
X283995Y369694D01*
X284089Y369727D01*
X284182Y369763D01*
X284273Y369803D01*
X284363Y369847D01*
X284451Y369894D01*
X284537Y369944D01*
X284621Y369998D01*
X284703Y370055D01*
X284782Y370115D01*
X284860Y370179D01*
X284934Y370245D01*
X285006Y370314D01*
X285075Y370386D01*
X285141Y370460D01*
X285205Y370538D01*
X285265Y370617D01*
X285322Y370699D01*
X285376Y370783D01*
X285426Y370869D01*
X285473Y370957D01*
X285517Y371047D01*
X285557Y371138D01*
X285593Y371231D01*
X285626Y371325D01*
X285655Y371421D01*
X285680Y371517D01*
X285701Y371614D01*
X285719Y371713D01*
X285732Y371811D01*
X285742Y371911D01*
X285748Y372010D01*
X285750Y372110D01*
X285750Y389890D02*
X285748Y389990D01*
X285742Y390089D01*
X285732Y390189D01*
X285719Y390287D01*
X285701Y390386D01*
X285680Y390483D01*
X285655Y390579D01*
X285626Y390675D01*
X285593Y390769D01*
X285557Y390862D01*
X285517Y390953D01*
X285473Y391043D01*
X285426Y391131D01*
X285376Y391217D01*
X285322Y391301D01*
X285265Y391383D01*
X285205Y391462D01*
X285141Y391540D01*
X285075Y391614D01*
X285006Y391686D01*
X284934Y391755D01*
X284860Y391821D01*
X284782Y391885D01*
X284703Y391945D01*
X284621Y392002D01*
X284537Y392056D01*
X284451Y392106D01*
X284363Y392153D01*
X284273Y392197D01*
X284182Y392237D01*
X284089Y392273D01*
X283995Y392306D01*
X283899Y392335D01*
X283803Y392360D01*
X283706Y392381D01*
X283607Y392399D01*
X283509Y392412D01*
X283409Y392422D01*
X283310Y392428D01*
X283210Y392430D01*
X222250Y389890D02*
X222250Y372110D01*
X224790Y392430D02*
X228600Y392430D01*
X229870Y391160D01*
X228600Y369570D02*
X224790Y369570D01*
X228600Y369570D02*
X229870Y370840D01*
X278130Y391160D02*
X279400Y392430D01*
X278130Y391160D02*
X229870Y391160D01*
X278130Y370840D02*
X279400Y369570D01*
X278130Y370840D02*
X229870Y370840D01*
X279400Y392430D02*
X283210Y392430D01*
X283210Y369570D02*
X279400Y369570D01*
X285750Y372110D02*
X285750Y389890D01*
D14*
X290068Y381000D03*
X217932Y381000D03*
D13*
X224155Y396875D02*
X224155Y408305D01*
X227330Y408305D01*
X227441Y408303D01*
X227551Y408297D01*
X227662Y408288D01*
X227772Y408274D01*
X227881Y408257D01*
X227990Y408236D01*
X228098Y408211D01*
X228205Y408182D01*
X228311Y408150D01*
X228416Y408114D01*
X228519Y408074D01*
X228621Y408031D01*
X228722Y407984D01*
X228821Y407933D01*
X228918Y407880D01*
X229012Y407823D01*
X229105Y407762D01*
X229196Y407699D01*
X229285Y407632D01*
X229371Y407562D01*
X229454Y407489D01*
X229536Y407414D01*
X229614Y407336D01*
X229689Y407254D01*
X229762Y407171D01*
X229832Y407085D01*
X229899Y406996D01*
X229962Y406905D01*
X230023Y406812D01*
X230080Y406717D01*
X230133Y406621D01*
X230184Y406522D01*
X230231Y406421D01*
X230274Y406319D01*
X230314Y406216D01*
X230350Y406111D01*
X230382Y406005D01*
X230411Y405898D01*
X230436Y405790D01*
X230457Y405681D01*
X230474Y405572D01*
X230488Y405462D01*
X230497Y405351D01*
X230503Y405241D01*
X230505Y405130D01*
X230503Y405019D01*
X230497Y404909D01*
X230488Y404798D01*
X230474Y404688D01*
X230457Y404579D01*
X230436Y404470D01*
X230411Y404362D01*
X230382Y404255D01*
X230350Y404149D01*
X230314Y404044D01*
X230274Y403941D01*
X230231Y403839D01*
X230184Y403738D01*
X230133Y403639D01*
X230080Y403542D01*
X230023Y403448D01*
X229962Y403355D01*
X229899Y403264D01*
X229832Y403175D01*
X229762Y403089D01*
X229689Y403006D01*
X229614Y402924D01*
X229536Y402846D01*
X229454Y402771D01*
X229371Y402698D01*
X229285Y402628D01*
X229196Y402561D01*
X229105Y402498D01*
X229012Y402437D01*
X228917Y402380D01*
X228821Y402327D01*
X228722Y402276D01*
X228621Y402229D01*
X228519Y402186D01*
X228416Y402146D01*
X228311Y402110D01*
X228205Y402078D01*
X228098Y402049D01*
X227990Y402024D01*
X227881Y402003D01*
X227772Y401986D01*
X227662Y401972D01*
X227551Y401963D01*
X227441Y401957D01*
X227330Y401955D01*
X224155Y401955D01*
X227965Y401955D02*
X230505Y396875D01*
X235502Y396875D02*
X238677Y396875D01*
X238788Y396877D01*
X238898Y396883D01*
X239009Y396892D01*
X239119Y396906D01*
X239228Y396923D01*
X239337Y396944D01*
X239445Y396969D01*
X239552Y396998D01*
X239658Y397030D01*
X239763Y397066D01*
X239866Y397106D01*
X239968Y397149D01*
X240069Y397196D01*
X240168Y397247D01*
X240264Y397300D01*
X240359Y397357D01*
X240452Y397418D01*
X240543Y397481D01*
X240632Y397548D01*
X240718Y397618D01*
X240801Y397691D01*
X240883Y397766D01*
X240961Y397844D01*
X241036Y397926D01*
X241109Y398009D01*
X241179Y398095D01*
X241246Y398184D01*
X241309Y398275D01*
X241370Y398368D01*
X241427Y398462D01*
X241480Y398559D01*
X241531Y398658D01*
X241578Y398759D01*
X241621Y398861D01*
X241661Y398964D01*
X241697Y399069D01*
X241729Y399175D01*
X241758Y399282D01*
X241783Y399390D01*
X241804Y399499D01*
X241821Y399608D01*
X241835Y399718D01*
X241844Y399829D01*
X241850Y399939D01*
X241852Y400050D01*
X241850Y400161D01*
X241844Y400271D01*
X241835Y400382D01*
X241821Y400492D01*
X241804Y400601D01*
X241783Y400710D01*
X241758Y400818D01*
X241729Y400925D01*
X241697Y401031D01*
X241661Y401136D01*
X241621Y401239D01*
X241578Y401341D01*
X241531Y401442D01*
X241480Y401541D01*
X241427Y401637D01*
X241370Y401732D01*
X241309Y401825D01*
X241246Y401916D01*
X241179Y402005D01*
X241109Y402091D01*
X241036Y402174D01*
X240961Y402256D01*
X240883Y402334D01*
X240801Y402409D01*
X240718Y402482D01*
X240632Y402552D01*
X240543Y402619D01*
X240452Y402682D01*
X240359Y402743D01*
X240265Y402800D01*
X240168Y402853D01*
X240069Y402904D01*
X239968Y402951D01*
X239866Y402994D01*
X239763Y403034D01*
X239658Y403070D01*
X239552Y403102D01*
X239445Y403131D01*
X239337Y403156D01*
X239228Y403177D01*
X239119Y403194D01*
X239009Y403208D01*
X238898Y403217D01*
X238788Y403223D01*
X238677Y403225D01*
X239312Y408305D02*
X235502Y408305D01*
X239312Y408305D02*
X239412Y408303D01*
X239511Y408297D01*
X239611Y408287D01*
X239709Y408274D01*
X239808Y408256D01*
X239905Y408235D01*
X240001Y408210D01*
X240097Y408181D01*
X240191Y408148D01*
X240284Y408112D01*
X240375Y408072D01*
X240465Y408028D01*
X240553Y407981D01*
X240639Y407931D01*
X240723Y407877D01*
X240805Y407820D01*
X240884Y407760D01*
X240962Y407696D01*
X241036Y407630D01*
X241108Y407561D01*
X241177Y407489D01*
X241243Y407415D01*
X241307Y407337D01*
X241367Y407258D01*
X241424Y407176D01*
X241478Y407092D01*
X241528Y407006D01*
X241575Y406918D01*
X241619Y406828D01*
X241659Y406737D01*
X241695Y406644D01*
X241728Y406550D01*
X241757Y406454D01*
X241782Y406358D01*
X241803Y406261D01*
X241821Y406162D01*
X241834Y406064D01*
X241844Y405964D01*
X241850Y405865D01*
X241852Y405765D01*
X241850Y405665D01*
X241844Y405566D01*
X241834Y405466D01*
X241821Y405368D01*
X241803Y405269D01*
X241782Y405172D01*
X241757Y405076D01*
X241728Y404980D01*
X241695Y404886D01*
X241659Y404793D01*
X241619Y404702D01*
X241575Y404612D01*
X241528Y404524D01*
X241478Y404438D01*
X241424Y404354D01*
X241367Y404272D01*
X241307Y404193D01*
X241243Y404115D01*
X241177Y404041D01*
X241108Y403969D01*
X241036Y403900D01*
X240962Y403834D01*
X240884Y403770D01*
X240805Y403710D01*
X240723Y403653D01*
X240639Y403599D01*
X240553Y403549D01*
X240465Y403502D01*
X240375Y403458D01*
X240284Y403418D01*
X240191Y403382D01*
X240097Y403349D01*
X240001Y403320D01*
X239905Y403295D01*
X239808Y403274D01*
X239709Y403256D01*
X239611Y403243D01*
X239511Y403233D01*
X239412Y403227D01*
X239312Y403225D01*
X236772Y403225D01*
X132080Y462280D02*
X132080Y518160D01*
X134620Y520700D01*
X132080Y523240D01*
X132080Y579120D01*
X137160Y579120D01*
X137160Y574040D01*
X167640Y574040D01*
X167640Y579120D01*
X172720Y579120D01*
X172720Y523240D01*
X170180Y520700D01*
X172720Y518160D01*
X172720Y462280D01*
X167640Y462280D01*
X167640Y467360D01*
X137160Y467360D01*
X137160Y462280D01*
X132080Y462280D01*
X142240Y497840D02*
X142240Y543560D01*
X162560Y543560D01*
X162560Y497840D01*
X142240Y497840D01*
X142240Y500380D02*
X162560Y500380D01*
X162560Y502920D02*
X142240Y502920D01*
X142240Y505460D02*
X162560Y505460D01*
X162560Y508000D02*
X142240Y508000D01*
X142240Y510540D02*
X162560Y510540D01*
X162560Y513080D02*
X142240Y513080D01*
X142240Y515620D02*
X162560Y515620D01*
D15*
X126492Y497163D02*
X126490Y497262D01*
X126484Y497362D01*
X126475Y497461D01*
X126462Y497559D01*
X126445Y497657D01*
X126424Y497755D01*
X126399Y497851D01*
X126371Y497946D01*
X126339Y498040D01*
X126304Y498133D01*
X126265Y498225D01*
X126222Y498315D01*
X126177Y498403D01*
X126127Y498490D01*
X126075Y498574D01*
X126019Y498657D01*
X125961Y498737D01*
X125899Y498815D01*
X125834Y498890D01*
X125766Y498963D01*
X125696Y499033D01*
X125623Y499101D01*
X125548Y499166D01*
X125470Y499228D01*
X125390Y499286D01*
X125307Y499342D01*
X125223Y499394D01*
X125136Y499444D01*
X125048Y499489D01*
X124958Y499532D01*
X124866Y499571D01*
X124773Y499606D01*
X124679Y499638D01*
X124584Y499666D01*
X124488Y499691D01*
X124390Y499712D01*
X124292Y499729D01*
X124194Y499742D01*
X124095Y499751D01*
X123995Y499757D01*
X123896Y499759D01*
X126492Y497163D02*
X126490Y497019D01*
X126484Y496874D01*
X126475Y496730D01*
X126462Y496587D01*
X126445Y496443D01*
X126424Y496300D01*
X126399Y496158D01*
X126371Y496017D01*
X126339Y495876D01*
X126303Y495736D01*
X126264Y495597D01*
X126221Y495459D01*
X126174Y495323D01*
X126124Y495187D01*
X126070Y495053D01*
X126013Y494921D01*
X125952Y494790D01*
X125888Y494661D01*
X125820Y494533D01*
X125750Y494407D01*
X125675Y494283D01*
X125598Y494162D01*
X125517Y494042D01*
X125434Y493924D01*
X125347Y493809D01*
X125257Y493696D01*
X125164Y493585D01*
X125069Y493477D01*
X124970Y493371D01*
X124869Y493268D01*
X117404Y493593D02*
X117305Y493595D01*
X117205Y493601D01*
X117106Y493610D01*
X117008Y493623D01*
X116910Y493640D01*
X116812Y493661D01*
X116716Y493686D01*
X116621Y493714D01*
X116527Y493746D01*
X116434Y493781D01*
X116342Y493820D01*
X116252Y493863D01*
X116164Y493908D01*
X116077Y493958D01*
X115993Y494010D01*
X115910Y494066D01*
X115830Y494124D01*
X115752Y494186D01*
X115677Y494251D01*
X115604Y494319D01*
X115534Y494389D01*
X115466Y494462D01*
X115401Y494537D01*
X115339Y494615D01*
X115281Y494695D01*
X115225Y494778D01*
X115173Y494862D01*
X115123Y494949D01*
X115078Y495037D01*
X115035Y495127D01*
X114996Y495219D01*
X114961Y495312D01*
X114929Y495406D01*
X114901Y495501D01*
X114876Y495597D01*
X114855Y495695D01*
X114838Y495793D01*
X114825Y495891D01*
X114816Y495990D01*
X114810Y496090D01*
X114808Y496189D01*
X114810Y496325D01*
X114816Y496461D01*
X114825Y496597D01*
X114838Y496733D01*
X114856Y496868D01*
X114876Y497002D01*
X114901Y497136D01*
X114929Y497270D01*
X114962Y497402D01*
X114997Y497533D01*
X115037Y497664D01*
X115080Y497793D01*
X115126Y497921D01*
X115177Y498047D01*
X115230Y498173D01*
X115288Y498296D01*
X115348Y498418D01*
X115412Y498538D01*
X115480Y498657D01*
X115550Y498773D01*
X115624Y498887D01*
X115701Y499000D01*
X115782Y499110D01*
X119676Y494891D02*
X119623Y494805D01*
X119566Y494721D01*
X119507Y494639D01*
X119444Y494559D01*
X119378Y494482D01*
X119310Y494407D01*
X119238Y494335D01*
X119164Y494266D01*
X119087Y494200D01*
X119008Y494137D01*
X118926Y494077D01*
X118842Y494020D01*
X118756Y493966D01*
X118668Y493916D01*
X118578Y493869D01*
X118487Y493825D01*
X118393Y493786D01*
X118299Y493749D01*
X118203Y493717D01*
X118105Y493688D01*
X118007Y493663D01*
X117908Y493642D01*
X117808Y493624D01*
X117708Y493611D01*
X117607Y493601D01*
X117505Y493595D01*
X117404Y493593D01*
X121624Y498461D02*
X121677Y498547D01*
X121734Y498631D01*
X121793Y498713D01*
X121856Y498793D01*
X121922Y498870D01*
X121990Y498945D01*
X122062Y499017D01*
X122136Y499086D01*
X122213Y499152D01*
X122292Y499215D01*
X122374Y499275D01*
X122458Y499332D01*
X122544Y499386D01*
X122632Y499436D01*
X122722Y499483D01*
X122813Y499527D01*
X122907Y499566D01*
X123001Y499603D01*
X123097Y499635D01*
X123195Y499664D01*
X123293Y499689D01*
X123392Y499710D01*
X123492Y499728D01*
X123592Y499741D01*
X123693Y499751D01*
X123795Y499757D01*
X123896Y499759D01*
X121624Y498461D02*
X119676Y494891D01*
X117404Y504317D02*
X114808Y507563D01*
X126492Y507563D01*
X126492Y510808D02*
X126492Y504317D01*
D13*
X101600Y673100D02*
X76200Y673100D01*
X50800Y673100D01*
X101600Y673100D02*
X101600Y342900D01*
X50800Y342900D01*
X50800Y647700D01*
X50800Y657225D01*
X50800Y663575D01*
X50800Y673100D01*
X76200Y673100D02*
X76200Y647700D01*
X50800Y647700D01*
X50800Y663575D02*
X47625Y663575D01*
X47625Y657225D01*
X50800Y657225D01*
D15*
X44577Y660527D02*
X42545Y663067D01*
X44577Y660527D02*
X35433Y660527D01*
X35433Y663067D02*
X35433Y657987D01*
X38608Y609092D02*
X47752Y602996D01*
X47752Y609092D02*
X38608Y602996D01*
X45720Y599440D02*
X47752Y596900D01*
X38608Y596900D01*
X38608Y599440D02*
X38608Y594360D01*
M02*
