M48
;GenerationSoftware,Autodesk,EAGLE,9.6.2*%
;CreationDate,2021-01-19T20:24:17Z*%
FMAT,2
ICI,OFF
METRIC,TZ,000.000
T3C0.813
T2C0.900
T1C1.000
%
G90
M71
T1
X11430Y36830
X8890Y11430
X11430Y13970
X8890Y13970
X11430Y16510
X8890Y16510
X11430Y19050
X8890Y19050
X11430Y21590
X8890Y21590
X11430Y24130
X8890Y24130
X11430Y26670
X8890Y26670
X11430Y29210
X8890Y41910
X11430Y41910
X8890Y39370
X11430Y39370
X8890Y36830
X11430Y11430
X8890Y34290
X11430Y34290
X8890Y31750
X11430Y31750
X8890Y29210
T2
X17780Y30480
X17780Y25400
X17780Y27940
T3
X33020Y13970
X22860Y13970
X33020Y25400
X22860Y25400
X33020Y36830
X22860Y36830
X41910Y13970
X44450Y13970
X41910Y25400
X44450Y25400
X41910Y36830
X44450Y36830
M30