%
M48
M72
T01C0.03200
T02C0.03543
T03C0.03937
%
T01
X91000Y56000
X131000Y56000
X166000Y56000
X176000Y56000
X176000Y101000
X166000Y101000
X131000Y101000
X91000Y101000
X91000Y146000
X131000Y146000
X166000Y146000
X176000Y146000
T02
X71000Y121000
X71000Y111000
X71000Y101000
T03
X36000Y46000
X36000Y56000
X36000Y66000
X36000Y76000
X36000Y86000
X36000Y96000
X36000Y106000
X36000Y116000
X36000Y126000
X36000Y136000
X36000Y146000
X36000Y156000
X36000Y166000
X46000Y166000
X46000Y156000
X46000Y146000
X46000Y136000
X46000Y126000
X46000Y116000
X46000Y106000
X46000Y96000
X46000Y86000
X46000Y76000
X46000Y66000
X46000Y56000
X46000Y46000
M30
