G75*
%MOIN*%
%OFA0B0*%
%FSLAX25Y25*%
%IPPOS*%
%LPD*%
%AMOC8*
5,1,8,0,0,1.08239X$1,22.5*
%
%ADD10OC8,0.06600*%
%ADD11C,0.06600*%
%ADD12R,0.07000X0.07000*%
%ADD13C,0.07000*%
%ADD14C,0.05000*%
D10*
X0091000Y0056000D03*
X0131000Y0056000D03*
X0166000Y0056000D03*
X0176000Y0056000D03*
X0176000Y0101000D03*
X0166000Y0101000D03*
X0131000Y0101000D03*
X0091000Y0101000D03*
X0091000Y0146000D03*
X0131000Y0146000D03*
X0166000Y0146000D03*
X0176000Y0146000D03*
D11*
X0071000Y0121000D03*
X0071000Y0111000D03*
X0071000Y0101000D03*
D12*
X0036000Y0166000D03*
D13*
X0036000Y0156000D03*
X0036000Y0146000D03*
X0036000Y0136000D03*
X0036000Y0126000D03*
X0036000Y0116000D03*
X0036000Y0106000D03*
X0036000Y0096000D03*
X0036000Y0086000D03*
X0036000Y0076000D03*
X0036000Y0066000D03*
X0036000Y0056000D03*
X0036000Y0046000D03*
X0046000Y0046000D03*
X0046000Y0056000D03*
X0046000Y0066000D03*
X0046000Y0076000D03*
X0046000Y0086000D03*
X0046000Y0096000D03*
X0046000Y0106000D03*
X0046000Y0116000D03*
X0046000Y0126000D03*
X0046000Y0136000D03*
X0046000Y0146000D03*
X0046000Y0156000D03*
X0046000Y0166000D03*
D14*
X0007500Y0029500D02*
X0021000Y0016000D01*
X0191000Y0016000D01*
X0196000Y0021000D01*
X0196000Y0096000D01*
X0191000Y0101000D01*
X0176000Y0101000D01*
X0166000Y0101000D02*
X0131000Y0101000D01*
X0091000Y0101000D02*
X0081000Y0111000D01*
X0071000Y0111000D01*
X0071000Y0121000D02*
X0056000Y0136000D01*
X0046000Y0136000D01*
X0046000Y0146000D02*
X0091000Y0146000D01*
X0091000Y0101000D01*
X0091000Y0056000D01*
X0131000Y0056000D02*
X0166000Y0056000D01*
X0176000Y0056000D02*
X0176000Y0036000D01*
X0026000Y0036000D01*
X0026000Y0096000D01*
X0036000Y0096000D01*
X0036000Y0106000D02*
X0017500Y0106000D01*
X0007500Y0096000D01*
X0007500Y0029500D01*
X0017500Y0116000D02*
X0036000Y0116000D01*
X0017500Y0116000D02*
X0007500Y0126000D01*
X0007500Y0182500D01*
X0016000Y0191000D01*
X0161000Y0191000D01*
X0176000Y0176000D01*
X0176000Y0146000D01*
X0166000Y0146000D02*
X0131000Y0146000D01*
M02*
