M48
;GenerationSoftware,Autodesk,EAGLE,9.6.2*%
;CreationDate,2021-01-19T14:29:28Z*%
FMAT,2
ICI,OFF
METRIC,TZ,000.000
T3C0.813
T2C0.900
T1C1.000
%
G90
M71
T1
X8890Y60960
X6350Y35560
X8890Y38100
X6350Y38100
X8890Y40640
X6350Y40640
X8890Y43180
X6350Y43180
X8890Y45720
X6350Y45720
X8890Y48260
X6350Y48260
X8890Y50800
X6350Y50800
X8890Y53340
X6350Y66040
X8890Y66040
X6350Y63500
X8890Y63500
X6350Y60960
X8890Y35560
X6350Y58420
X8890Y58420
X6350Y55880
X8890Y55880
X6350Y53340
T2
X15240Y54610
X15240Y49530
X15240Y52070
T3
X30480Y38100
X20320Y38100
X30480Y49530
X20320Y49530
X30480Y60960
X20320Y60960
X39370Y38100
X41910Y38100
X39370Y49530
X41910Y49530
X39370Y60960
X41910Y60960
M30